{
	"asset":{
		"generator":"Khronos glTF Blender I/O v3.6.27",
		"version":"2.0"
	},
	"extensionsUsed":[
		"KHR_materials_specular",
		"KHR_materials_ior"
	],
	"scene":0,
	"scenes":[
		{
			"name":"Scene",
			"nodes":[
				0,
				1,
				2
			]
		}
	],
	"nodes":[
		{
			"mesh":0,
			"name":"Cube.002",
			"scale":[
				2.4016761779785156,
				0.15430527925491333,
				1.9914219379425049
			],
			"translation":[
				-1.2279419898986816,
				-1.8567893505096436,
				0
			]
		},
		{
			"mesh":1,
			"name":"Cube.004",
			"scale":[
				0.6551211476325989,
				0.4824380874633789,
				0.47037941217422485
			],
			"translation":[
				-0.2439991533756256,
				3.1223466396331787,
				0
			]
		},
		{
			"mesh":2,
			"name":"Cylinder.005",
			"rotation":[
				-0.09216028451919556,
				-0.09216028451919556,
				-0.7010751962661743,
				0.7010752558708191
			],
			"scale":[
				0.06659912317991257,
				0.1539904624223709,
				0.06659912317991257
			],
			"translation":[
				0.8398199677467346,
				1.1989097595214844,
				1.6078674793243408
			]
		}
	],
	"materials":[
		{
			"doubleSided":true,
			"extensions":{
				"KHR_materials_specular":{
					"specularColorFactor":[
						0,
						0,
						0
					]
				},
				"KHR_materials_ior":{
					"ior":1.4500000476837158
				}
			},
			"name":"Material.007",
			"pbrMetallicRoughness":{
				"baseColorFactor":[
					0.10653497278690338,
					0.10653497278690338,
					0.10653497278690338,
					1
				],
				"metallicFactor":0,
				"roughnessFactor":0
			}
		},
		{
			"doubleSided":true,
			"name":"Material.005",
			"pbrMetallicRoughness":{
				"baseColorFactor":[
					0.3757493197917938,
					0.07389699667692184,
					0.08236373960971832,
					1
				],
				"metallicFactor":0,
				"roughnessFactor":0.5
			}
		},
		{
			"doubleSided":true,
			"extensions":{
				"KHR_materials_specular":{
					"specularColorFactor":[
						0,
						0,
						0
					]
				},
				"KHR_materials_ior":{
					"ior":1.4500000476837158
				}
			},
			"name":"Material.001",
			"pbrMetallicRoughness":{
				"baseColorFactor":[
					0.3031977415084839,
					0.3031977415084839,
					0.3031977415084839,
					1
				],
				"metallicFactor":0,
				"roughnessFactor":0
			}
		},
		{
			"doubleSided":true,
			"extensions":{
				"KHR_materials_specular":{
					"specularColorFactor":[
						0,
						0,
						0
					]
				},
				"KHR_materials_ior":{
					"ior":1.4500000476837158
				}
			},
			"name":"Material.006",
			"pbrMetallicRoughness":{
				"baseColorFactor":[
					0.03740972653031349,
					0.03740972653031349,
					0.03740972653031349,
					1
				],
				"metallicFactor":0,
				"roughnessFactor":0
			}
		},
		{
			"doubleSided":true,
			"extensions":{
				"KHR_materials_specular":{
					"specularColorFactor":[
						0,
						0,
						0
					]
				},
				"KHR_materials_ior":{
					"ior":1.4500000476837158
				}
			},
			"name":"Material.004",
			"pbrMetallicRoughness":{
				"baseColorFactor":[
					0.2265840768814087,
					0.2265840768814087,
					0.2265840768814087,
					1
				],
				"metallicFactor":0,
				"roughnessFactor":0
			}
		}
	],
	"meshes":[
		{
			"name":"Cube.002",
			"primitives":[
				{
					"attributes":{
						"POSITION":0,
						"NORMAL":1,
						"TEXCOORD_0":2
					},
					"indices":3,
					"material":0
				},
				{
					"attributes":{
						"POSITION":4,
						"NORMAL":5,
						"TEXCOORD_0":6
					},
					"indices":7,
					"material":1
				},
				{
					"attributes":{
						"POSITION":8,
						"NORMAL":9,
						"TEXCOORD_0":10
					},
					"indices":11,
					"material":2
				},
				{
					"attributes":{
						"POSITION":12,
						"NORMAL":13,
						"TEXCOORD_0":14
					},
					"indices":15,
					"material":3
				}
			]
		},
		{
			"name":"Cube.004",
			"primitives":[
				{
					"attributes":{
						"POSITION":16,
						"NORMAL":17,
						"TEXCOORD_0":18
					},
					"indices":19,
					"material":4
				},
				{
					"attributes":{
						"POSITION":20,
						"NORMAL":21,
						"TEXCOORD_0":22
					},
					"indices":23,
					"material":3
				}
			]
		},
		{
			"name":"Cylinder.005",
			"primitives":[
				{
					"attributes":{
						"POSITION":24,
						"NORMAL":25,
						"TEXCOORD_0":26
					},
					"indices":27,
					"material":3
				},
				{
					"attributes":{
						"POSITION":28,
						"NORMAL":29,
						"TEXCOORD_0":30
					},
					"indices":27,
					"material":4
				},
				{
					"attributes":{
						"POSITION":31,
						"NORMAL":32,
						"TEXCOORD_0":33
					},
					"indices":34,
					"material":0
				}
			]
		}
	],
	"accessors":[
		{
			"bufferView":0,
			"componentType":5126,
			"count":48,
			"max":[
				1,
				34.33924865722656,
				1
			],
			"min":[
				-1.1399670839309692,
				-1,
				-1
			],
			"type":"VEC3"
		},
		{
			"bufferView":1,
			"componentType":5126,
			"count":48,
			"type":"VEC3"
		},
		{
			"bufferView":2,
			"componentType":5126,
			"count":48,
			"type":"VEC2"
		},
		{
			"bufferView":3,
			"componentType":5123,
			"count":72,
			"type":"SCALAR"
		},
		{
			"bufferView":4,
			"componentType":5126,
			"count":43,
			"max":[
				1.0358953475952148,
				16.607524871826172,
				0.25516918301582336
			],
			"min":[
				0.992986798286438,
				14.643621444702148,
				0.10299620777368546
			],
			"type":"VEC3"
		},
		{
			"bufferView":5,
			"componentType":5126,
			"count":43,
			"type":"VEC3"
		},
		{
			"bufferView":6,
			"componentType":5126,
			"count":43,
			"type":"VEC2"
		},
		{
			"bufferView":7,
			"componentType":5123,
			"count":132,
			"type":"SCALAR"
		},
		{
			"bufferView":8,
			"componentType":5126,
			"count":72,
			"max":[
				1.0098190307617188,
				33.85342788696289,
				0.502153754234314
			],
			"min":[
				-0.8564396500587463,
				0.8712806701660156,
				-0.5021538138389587
			],
			"type":"VEC3"
		},
		{
			"bufferView":9,
			"componentType":5126,
			"count":72,
			"type":"VEC3"
		},
		{
			"bufferView":10,
			"componentType":5126,
			"count":72,
			"type":"VEC2"
		},
		{
			"bufferView":11,
			"componentType":5123,
			"count":120,
			"type":"SCALAR"
		},
		{
			"bufferView":12,
			"componentType":5126,
			"count":215,
			"max":[
				1.0358952283859253,
				31.4006404876709,
				0.06640017777681351
			],
			"min":[
				-0.7902256846427917,
				14.643621444702148,
				-0.5419663190841675
			],
			"type":"VEC3"
		},
		{
			"bufferView":13,
			"componentType":5126,
			"count":215,
			"type":"VEC3"
		},
		{
			"bufferView":14,
			"componentType":5126,
			"count":215,
			"type":"VEC2"
		},
		{
			"bufferView":15,
			"componentType":5123,
			"count":660,
			"type":"SCALAR"
		},
		{
			"bufferView":16,
			"componentType":5126,
			"count":88,
			"max":[
				1.1145471334457397,
				1,
				1
			],
			"min":[
				-1,
				-1.7822426557540894,
				-1
			],
			"type":"VEC3"
		},
		{
			"bufferView":17,
			"componentType":5126,
			"count":88,
			"type":"VEC3"
		},
		{
			"bufferView":18,
			"componentType":5126,
			"count":88,
			"type":"VEC2"
		},
		{
			"bufferView":19,
			"componentType":5123,
			"count":150,
			"type":"SCALAR"
		},
		{
			"bufferView":20,
			"componentType":5126,
			"count":20,
			"max":[
				0.07266272604465485,
				-1.7822426557540894,
				0.09802109003067017
			],
			"min":[
				-0.07266272604465485,
				-2.7714552879333496,
				-0.09802109003067017
			],
			"type":"VEC3"
		},
		{
			"bufferView":21,
			"componentType":5126,
			"count":20,
			"type":"VEC3"
		},
		{
			"bufferView":22,
			"componentType":5126,
			"count":20,
			"type":"VEC2"
		},
		{
			"bufferView":23,
			"componentType":5123,
			"count":30,
			"type":"SCALAR"
		},
		{
			"bufferView":24,
			"componentType":5126,
			"count":86,
			"max":[
				1,
				1,
				1
			],
			"min":[
				-17.24423599243164,
				-6.996323108673096,
				-61.21763610839844
			],
			"type":"VEC3"
		},
		{
			"bufferView":25,
			"componentType":5126,
			"count":86,
			"type":"VEC3"
		},
		{
			"bufferView":26,
			"componentType":5126,
			"count":86,
			"type":"VEC2"
		},
		{
			"bufferView":27,
			"componentType":5123,
			"count":264,
			"type":"SCALAR"
		},
		{
			"bufferView":28,
			"componentType":5126,
			"count":86,
			"max":[
				9.056953430175781,
				-0.3560284972190857,
				4.686854362487793
			],
			"min":[
				-17.7374324798584,
				-10.346915245056152,
				-59.16921615600586
			],
			"type":"VEC3"
		},
		{
			"bufferView":29,
			"componentType":5126,
			"count":86,
			"type":"VEC3"
		},
		{
			"bufferView":30,
			"componentType":5126,
			"count":86,
			"type":"VEC2"
		},
		{
			"bufferView":31,
			"componentType":5126,
			"count":216,
			"max":[
				7.372806549072266,
				-1.8933935165405273,
				6.026790618896484
			],
			"min":[
				-12.929411888122559,
				-13.324395179748535,
				-54.523284912109375
			],
			"type":"VEC3"
		},
		{
			"bufferView":32,
			"componentType":5126,
			"count":216,
			"type":"VEC3"
		},
		{
			"bufferView":33,
			"componentType":5126,
			"count":216,
			"type":"VEC2"
		},
		{
			"bufferView":34,
			"componentType":5123,
			"count":564,
			"type":"SCALAR"
		}
	],
	"bufferViews":[
		{
			"buffer":0,
			"byteLength":576,
			"byteOffset":0,
			"target":34962
		},
		{
			"buffer":0,
			"byteLength":576,
			"byteOffset":576,
			"target":34962
		},
		{
			"buffer":0,
			"byteLength":384,
			"byteOffset":1152,
			"target":34962
		},
		{
			"buffer":0,
			"byteLength":144,
			"byteOffset":1536,
			"target":34963
		},
		{
			"buffer":0,
			"byteLength":516,
			"byteOffset":1680,
			"target":34962
		},
		{
			"buffer":0,
			"byteLength":516,
			"byteOffset":2196,
			"target":34962
		},
		{
			"buffer":0,
			"byteLength":344,
			"byteOffset":2712,
			"target":34962
		},
		{
			"buffer":0,
			"byteLength":264,
			"byteOffset":3056,
			"target":34963
		},
		{
			"buffer":0,
			"byteLength":864,
			"byteOffset":3320,
			"target":34962
		},
		{
			"buffer":0,
			"byteLength":864,
			"byteOffset":4184,
			"target":34962
		},
		{
			"buffer":0,
			"byteLength":576,
			"byteOffset":5048,
			"target":34962
		},
		{
			"buffer":0,
			"byteLength":240,
			"byteOffset":5624,
			"target":34963
		},
		{
			"buffer":0,
			"byteLength":2580,
			"byteOffset":5864,
			"target":34962
		},
		{
			"buffer":0,
			"byteLength":2580,
			"byteOffset":8444,
			"target":34962
		},
		{
			"buffer":0,
			"byteLength":1720,
			"byteOffset":11024,
			"target":34962
		},
		{
			"buffer":0,
			"byteLength":1320,
			"byteOffset":12744,
			"target":34963
		},
		{
			"buffer":0,
			"byteLength":1056,
			"byteOffset":14064,
			"target":34962
		},
		{
			"buffer":0,
			"byteLength":1056,
			"byteOffset":15120,
			"target":34962
		},
		{
			"buffer":0,
			"byteLength":704,
			"byteOffset":16176,
			"target":34962
		},
		{
			"buffer":0,
			"byteLength":300,
			"byteOffset":16880,
			"target":34963
		},
		{
			"buffer":0,
			"byteLength":240,
			"byteOffset":17180,
			"target":34962
		},
		{
			"buffer":0,
			"byteLength":240,
			"byteOffset":17420,
			"target":34962
		},
		{
			"buffer":0,
			"byteLength":160,
			"byteOffset":17660,
			"target":34962
		},
		{
			"buffer":0,
			"byteLength":60,
			"byteOffset":17820,
			"target":34963
		},
		{
			"buffer":0,
			"byteLength":1032,
			"byteOffset":17880,
			"target":34962
		},
		{
			"buffer":0,
			"byteLength":1032,
			"byteOffset":18912,
			"target":34962
		},
		{
			"buffer":0,
			"byteLength":688,
			"byteOffset":19944,
			"target":34962
		},
		{
			"buffer":0,
			"byteLength":528,
			"byteOffset":20632,
			"target":34963
		},
		{
			"buffer":0,
			"byteLength":1032,
			"byteOffset":21160,
			"target":34962
		},
		{
			"buffer":0,
			"byteLength":1032,
			"byteOffset":22192,
			"target":34962
		},
		{
			"buffer":0,
			"byteLength":688,
			"byteOffset":23224,
			"target":34962
		},
		{
			"buffer":0,
			"byteLength":2592,
			"byteOffset":23912,
			"target":34962
		},
		{
			"buffer":0,
			"byteLength":2592,
			"byteOffset":26504,
			"target":34962
		},
		{
			"buffer":0,
			"byteLength":1728,
			"byteOffset":29096,
			"target":34962
		},
		{
			"buffer":0,
			"byteLength":1128,
			"byteOffset":30824,
			"target":34963
		}
	],
	"buffers":[
		{
			"byteLength":31952,
			"uri":"data:application/octet-stream;base64,"
		}
	]
}
