{
	"asset":{
		"generator":"Khronos glTF Blender I/O v3.6.27",
		"version":"2.0"
	},
	"extensionsUsed":[
		"KHR_materials_specular",
		"KHR_materials_ior"
	],
	"scene":0,
	"scenes":[
		{
			"name":"Scene",
			"nodes":[
				0,
				1,
				2
			]
		}
	],
	"nodes":[
		{
			"mesh":0,
			"name":"Cube.001",
			"scale":[
				0.22403086721897125,
				0.19021755456924438,
				2.2869794368743896
			],
			"translation":[
				0,
				2.0877459049224854,
				0
			]
		},
		{
			"mesh":1,
			"name":"Cylinder",
			"translation":[
				0,
				0,
				-0.031365424394607544
			]
		},
		{
			"mesh":2,
			"name":"Cube.003",
			"scale":[
				0.29875051975250244,
				0.8162348866462708,
				0.29875051975250244
			],
			"translation":[
				0,
				2.5997040271759033,
				0
			]
		}
	],
	"materials":[
		{
			"doubleSided":true,
			"extensions":{
				"KHR_materials_specular":{
					"specularColorFactor":[
						0,
						0,
						0
					]
				},
				"KHR_materials_ior":{
					"ior":1.4500000476837158
				}
			},
			"name":"Material",
			"pbrMetallicRoughness":{
				"baseColorFactor":[
					0.2956917881965637,
					0.2956917881965637,
					0.2956917881965637,
					1
				],
				"metallicFactor":0,
				"roughnessFactor":0
			}
		},
		{
			"doubleSided":true,
			"extensions":{
				"KHR_materials_specular":{
					"specularColorFactor":[
						0,
						0,
						0
					]
				},
				"KHR_materials_ior":{
					"ior":1.4500000476837158
				}
			},
			"name":"Material.002",
			"pbrMetallicRoughness":{
				"baseColorFactor":[
					0.13758321106433868,
					0.13758321106433868,
					0.13758321106433868,
					1
				],
				"metallicFactor":0,
				"roughnessFactor":0
			}
		},
		{
			"doubleSided":true,
			"extensions":{
				"KHR_materials_specular":{
					"specularColorFactor":[
						0,
						0,
						0
					]
				},
				"KHR_materials_ior":{
					"ior":1.4500000476837158
				}
			},
			"name":"Material.001",
			"pbrMetallicRoughness":{
				"baseColorFactor":[
					0.16501547396183014,
					0.2956917881965637,
					0.15308703482151031,
					1
				],
				"metallicFactor":0,
				"roughnessFactor":0
			}
		},
		{
			"doubleSided":true,
			"name":"Material.004",
			"pbrMetallicRoughness":{
				"baseColorFactor":[
					0.34338679909706116,
					0.5005274415016174,
					0.5814615488052368,
					1
				],
				"metallicFactor":0,
				"roughnessFactor":0.5
			}
		},
		{
			"doubleSided":true,
			"name":"Material.005",
			"pbrMetallicRoughness":{
				"baseColorFactor":[
					0.3031974732875824,
					0.10568925738334656,
					0.096751868724823,
					1
				],
				"metallicFactor":0,
				"roughnessFactor":0.5
			}
		},
		{
			"doubleSided":true,
			"extensions":{
				"KHR_materials_specular":{
					"specularColorFactor":[
						0,
						0,
						0
					]
				},
				"KHR_materials_ior":{
					"ior":1.4500000476837158
				}
			},
			"name":"Material.003",
			"pbrMetallicRoughness":{
				"baseColorFactor":[
					0.03521755337715149,
					0.03521755337715149,
					0.03521755337715149,
					1
				],
				"metallicFactor":0,
				"roughnessFactor":0
			}
		}
	],
	"meshes":[
		{
			"name":"Cube.001",
			"primitives":[
				{
					"attributes":{
						"POSITION":0,
						"NORMAL":1,
						"TEXCOORD_0":2
					},
					"indices":3,
					"material":0
				}
			]
		},
		{
			"name":"Cylinder",
			"primitives":[
				{
					"attributes":{
						"POSITION":4,
						"NORMAL":5,
						"TEXCOORD_0":6
					},
					"indices":7,
					"material":1
				},
				{
					"attributes":{
						"POSITION":8,
						"NORMAL":9,
						"TEXCOORD_0":10
					},
					"indices":11,
					"material":2
				},
				{
					"attributes":{
						"POSITION":12,
						"NORMAL":13,
						"TEXCOORD_0":14
					},
					"indices":15,
					"material":0
				},
				{
					"attributes":{
						"POSITION":16,
						"NORMAL":17,
						"TEXCOORD_0":18
					},
					"indices":19,
					"material":3
				},
				{
					"attributes":{
						"POSITION":20,
						"NORMAL":21,
						"TEXCOORD_0":22
					},
					"indices":23,
					"material":4
				}
			]
		},
		{
			"name":"Cube.003",
			"primitives":[
				{
					"attributes":{
						"POSITION":24,
						"NORMAL":25,
						"TEXCOORD_0":26
					},
					"indices":27,
					"material":1
				},
				{
					"attributes":{
						"POSITION":28,
						"NORMAL":29,
						"TEXCOORD_0":30
					},
					"indices":31,
					"material":2
				},
				{
					"attributes":{
						"POSITION":32,
						"NORMAL":33,
						"TEXCOORD_0":34
					},
					"indices":35,
					"material":5
				}
			]
		}
	],
	"accessors":[
		{
			"bufferView":0,
			"componentType":5126,
			"count":64,
			"max":[
				1,
				1,
				1.2021429538726807
			],
			"min":[
				-1,
				-7.351694107055664,
				-1.2134497165679932
			],
			"type":"VEC3"
		},
		{
			"bufferView":1,
			"componentType":5126,
			"count":64,
			"type":"VEC3"
		},
		{
			"bufferView":2,
			"componentType":5126,
			"count":64,
			"type":"VEC2"
		},
		{
			"bufferView":3,
			"componentType":5123,
			"count":132,
			"type":"SCALAR"
		},
		{
			"bufferView":4,
			"componentType":5126,
			"count":204,
			"max":[
				3.980435609817505,
				1.08992338180542,
				3.7747910022735596
			],
			"min":[
				-3.5068283081054688,
				0.5882064700126648,
				-2.4701695442199707
			],
			"type":"VEC3"
		},
		{
			"bufferView":5,
			"componentType":5126,
			"count":204,
			"type":"VEC3"
		},
		{
			"bufferView":6,
			"componentType":5126,
			"count":204,
			"type":"VEC2"
		},
		{
			"bufferView":7,
			"componentType":5123,
			"count":342,
			"type":"SCALAR"
		},
		{
			"bufferView":8,
			"componentType":5126,
			"count":92,
			"max":[
				3.9498960971832275,
				1.1132757663726807,
				3.971526861190796
			],
			"min":[
				-3.7315244674682617,
				-0.6158707141876221,
				-2.584259033203125
			],
			"type":"VEC3"
		},
		{
			"bufferView":9,
			"componentType":5126,
			"count":92,
			"type":"VEC3"
		},
		{
			"bufferView":10,
			"componentType":5126,
			"count":92,
			"type":"VEC2"
		},
		{
			"bufferView":11,
			"componentType":5123,
			"count":192,
			"type":"SCALAR"
		},
		{
			"bufferView":12,
			"componentType":5126,
			"count":475,
			"max":[
				3.90419864654541,
				1.8273152112960815,
				3.971526861190796
			],
			"min":[
				-3.872015953063965,
				-0.5947991013526917,
				-2.7306699752807617
			],
			"type":"VEC3"
		},
		{
			"bufferView":13,
			"componentType":5126,
			"count":475,
			"type":"VEC3"
		},
		{
			"bufferView":14,
			"componentType":5126,
			"count":475,
			"type":"VEC2"
		},
		{
			"bufferView":15,
			"componentType":5123,
			"count":1260,
			"type":"SCALAR"
		},
		{
			"bufferView":16,
			"componentType":5126,
			"count":20,
			"max":[
				3.8344969749450684,
				1.7502230405807495,
				3.842362642288208
			],
			"min":[
				3.3201494216918945,
				1.1909490823745728,
				2.977421998977661
			],
			"type":"VEC3"
		},
		{
			"bufferView":17,
			"componentType":5126,
			"count":20,
			"type":"VEC3"
		},
		{
			"bufferView":18,
			"componentType":5126,
			"count":20,
			"type":"VEC2"
		},
		{
			"bufferView":19,
			"componentType":5123,
			"count":30,
			"type":"SCALAR"
		},
		{
			"bufferView":20,
			"componentType":5126,
			"count":60,
			"max":[
				3.980435609817505,
				1.08992338180542,
				3.2800304889678955
			],
			"min":[
				3.9356014728546143,
				0.8947059512138367,
				3.0747663974761963
			],
			"type":"VEC3"
		},
		{
			"bufferView":21,
			"componentType":5126,
			"count":60,
			"type":"VEC3"
		},
		{
			"bufferView":22,
			"componentType":5126,
			"count":60,
			"type":"VEC2"
		},
		{
			"bufferView":23,
			"componentType":5123,
			"count":108,
			"type":"SCALAR"
		},
		{
			"bufferView":24,
			"componentType":5126,
			"count":78,
			"max":[
				0.6208284497261047,
				0.8271430134773254,
				1.944688320159912
			],
			"min":[
				-0.6208284497261047,
				-2.003756046295166,
				-0.43116307258605957
			],
			"type":"VEC3"
		},
		{
			"bufferView":25,
			"componentType":5126,
			"count":78,
			"type":"VEC3"
		},
		{
			"bufferView":26,
			"componentType":5126,
			"count":78,
			"type":"VEC2"
		},
		{
			"bufferView":27,
			"componentType":5123,
			"count":132,
			"type":"SCALAR"
		},
		{
			"bufferView":28,
			"componentType":5126,
			"count":38,
			"max":[
				1,
				1,
				1
			],
			"min":[
				-1,
				-1,
				-1
			],
			"type":"VEC3"
		},
		{
			"bufferView":29,
			"componentType":5126,
			"count":38,
			"type":"VEC3"
		},
		{
			"bufferView":30,
			"componentType":5126,
			"count":38,
			"type":"VEC2"
		},
		{
			"bufferView":31,
			"componentType":5123,
			"count":72,
			"type":"SCALAR"
		},
		{
			"bufferView":32,
			"componentType":5126,
			"count":16,
			"max":[
				0.1671951413154602,
				-1.1630994081497192,
				0.1671951413154602
			],
			"min":[
				-0.1671951413154602,
				-2.003756046295166,
				-0.1671951413154602
			],
			"type":"VEC3"
		},
		{
			"bufferView":33,
			"componentType":5126,
			"count":16,
			"type":"VEC3"
		},
		{
			"bufferView":34,
			"componentType":5126,
			"count":16,
			"type":"VEC2"
		},
		{
			"bufferView":35,
			"componentType":5123,
			"count":24,
			"type":"SCALAR"
		}
	],
	"bufferViews":[
		{
			"buffer":0,
			"byteLength":768,
			"byteOffset":0,
			"target":34962
		},
		{
			"buffer":0,
			"byteLength":768,
			"byteOffset":768,
			"target":34962
		},
		{
			"buffer":0,
			"byteLength":512,
			"byteOffset":1536,
			"target":34962
		},
		{
			"buffer":0,
			"byteLength":264,
			"byteOffset":2048,
			"target":34963
		},
		{
			"buffer":0,
			"byteLength":2448,
			"byteOffset":2312,
			"target":34962
		},
		{
			"buffer":0,
			"byteLength":2448,
			"byteOffset":4760,
			"target":34962
		},
		{
			"buffer":0,
			"byteLength":1632,
			"byteOffset":7208,
			"target":34962
		},
		{
			"buffer":0,
			"byteLength":684,
			"byteOffset":8840,
			"target":34963
		},
		{
			"buffer":0,
			"byteLength":1104,
			"byteOffset":9524,
			"target":34962
		},
		{
			"buffer":0,
			"byteLength":1104,
			"byteOffset":10628,
			"target":34962
		},
		{
			"buffer":0,
			"byteLength":736,
			"byteOffset":11732,
			"target":34962
		},
		{
			"buffer":0,
			"byteLength":384,
			"byteOffset":12468,
			"target":34963
		},
		{
			"buffer":0,
			"byteLength":5700,
			"byteOffset":12852,
			"target":34962
		},
		{
			"buffer":0,
			"byteLength":5700,
			"byteOffset":18552,
			"target":34962
		},
		{
			"buffer":0,
			"byteLength":3800,
			"byteOffset":24252,
			"target":34962
		},
		{
			"buffer":0,
			"byteLength":2520,
			"byteOffset":28052,
			"target":34963
		},
		{
			"buffer":0,
			"byteLength":240,
			"byteOffset":30572,
			"target":34962
		},
		{
			"buffer":0,
			"byteLength":240,
			"byteOffset":30812,
			"target":34962
		},
		{
			"buffer":0,
			"byteLength":160,
			"byteOffset":31052,
			"target":34962
		},
		{
			"buffer":0,
			"byteLength":60,
			"byteOffset":31212,
			"target":34963
		},
		{
			"buffer":0,
			"byteLength":720,
			"byteOffset":31272,
			"target":34962
		},
		{
			"buffer":0,
			"byteLength":720,
			"byteOffset":31992,
			"target":34962
		},
		{
			"buffer":0,
			"byteLength":480,
			"byteOffset":32712,
			"target":34962
		},
		{
			"buffer":0,
			"byteLength":216,
			"byteOffset":33192,
			"target":34963
		},
		{
			"buffer":0,
			"byteLength":936,
			"byteOffset":33408,
			"target":34962
		},
		{
			"buffer":0,
			"byteLength":936,
			"byteOffset":34344,
			"target":34962
		},
		{
			"buffer":0,
			"byteLength":624,
			"byteOffset":35280,
			"target":34962
		},
		{
			"buffer":0,
			"byteLength":264,
			"byteOffset":35904,
			"target":34963
		},
		{
			"buffer":0,
			"byteLength":456,
			"byteOffset":36168,
			"target":34962
		},
		{
			"buffer":0,
			"byteLength":456,
			"byteOffset":36624,
			"target":34962
		},
		{
			"buffer":0,
			"byteLength":304,
			"byteOffset":37080,
			"target":34962
		},
		{
			"buffer":0,
			"byteLength":144,
			"byteOffset":37384,
			"target":34963
		},
		{
			"buffer":0,
			"byteLength":192,
			"byteOffset":37528,
			"target":34962
		},
		{
			"buffer":0,
			"byteLength":192,
			"byteOffset":37720,
			"target":34962
		},
		{
			"buffer":0,
			"byteLength":128,
			"byteOffset":37912,
			"target":34962
		},
		{
			"buffer":0,
			"byteLength":48,
			"byteOffset":38040,
			"target":34963
		}
	],
	"buffers":[
		{
			"byteLength":38088,
			"uri":"data:application/octet-stream;base64,"
		}
	]
}
