{
	"asset":{
		"generator":"Khronos glTF Blender I/O v3.6.27",
		"version":"2.0"
	},
	"extensionsUsed":[
		"KHR_materials_specular",
		"KHR_materials_ior"
	],
	"scene":0,
	"scenes":[
		{
			"name":"Scene",
			"nodes":[
				0,
				1
			]
		}
	],
	"nodes":[
		{
			"mesh":0,
			"name":"Cube",
			"rotation":[
				1,
				0,
				0,
				0
			],
			"scale":[
				-0.04099893569946289,
				-1,
				-1.49541175365448
			]
		},
		{
			"mesh":1,
			"name":"Text",
			"rotation":[
				0.5,
				0.5,
				-0.5,
				0.5
			],
			"scale":[
				0.4103204607963562,
				0.4103204607963562,
				0.4103204607963562
			],
			"translation":[
				0.04744119197130203,
				0.30678021907806396,
				0
			]
		}
	],
	"materials":[
		{
			"doubleSided":true,
			"name":"Material",
			"pbrMetallicRoughness":{
				"baseColorFactor":[
					0.800000011920929,
					0.800000011920929,
					0.800000011920929,
					1
				],
				"metallicFactor":0,
				"roughnessFactor":0.5
			}
		},
		{
			"doubleSided":true,
			"extensions":{
				"KHR_materials_specular":{
					"specularColorFactor":[
						0,
						0,
						0
					]
				},
				"KHR_materials_ior":{
					"ior":1.4500000476837158
				}
			},
			"name":"Material.001",
			"pbrMetallicRoughness":{
				"baseColorFactor":[
					0.0835312008857727,
					0.0835312008857727,
					0.0835312008857727,
					1
				],
				"metallicFactor":0,
				"roughnessFactor":0
			}
		}
	],
	"meshes":[
		{
			"name":"Cube",
			"primitives":[
				{
					"attributes":{
						"POSITION":0,
						"NORMAL":1,
						"TEXCOORD_0":2
					},
					"indices":3,
					"material":0
				},
				{
					"attributes":{
						"POSITION":4,
						"NORMAL":5,
						"TEXCOORD_0":6
					},
					"indices":7,
					"material":1
				}
			]
		},
		{
			"name":"Text",
			"primitives":[
				{
					"attributes":{
						"POSITION":8,
						"NORMAL":9,
						"TEXCOORD_0":10
					},
					"indices":11,
					"material":1
				}
			]
		}
	],
	"accessors":[
		{
			"bufferView":0,
			"componentType":5126,
			"count":4,
			"max":[
				-1,
				0.8385944366455078,
				0.8981167674064636
			],
			"min":[
				-1,
				-0.8385944366455078,
				-0.8981167674064636
			],
			"type":"VEC3"
		},
		{
			"bufferView":1,
			"componentType":5126,
			"count":4,
			"type":"VEC3"
		},
		{
			"bufferView":2,
			"componentType":5126,
			"count":4,
			"type":"VEC2"
		},
		{
			"bufferView":3,
			"componentType":5123,
			"count":6,
			"type":"SCALAR"
		},
		{
			"bufferView":4,
			"componentType":5126,
			"count":36,
			"max":[
				1,
				1,
				1
			],
			"min":[
				-1,
				-1,
				-1
			],
			"type":"VEC3"
		},
		{
			"bufferView":5,
			"componentType":5126,
			"count":36,
			"type":"VEC3"
		},
		{
			"bufferView":6,
			"componentType":5126,
			"count":36,
			"type":"VEC2"
		},
		{
			"bufferView":7,
			"componentType":5123,
			"count":54,
			"type":"SCALAR"
		},
		{
			"bufferView":8,
			"componentType":5126,
			"count":1426,
			"max":[
				2.28554368019104,
				0,
				2.00852370262146
			],
			"min":[
				-2.269519329071045,
				0,
				-0.49982950091362
			],
			"type":"VEC3"
		},
		{
			"bufferView":9,
			"componentType":5126,
			"count":1426,
			"type":"VEC3"
		},
		{
			"bufferView":10,
			"componentType":5126,
			"count":1426,
			"type":"VEC2"
		},
		{
			"bufferView":11,
			"componentType":5123,
			"count":4206,
			"type":"SCALAR"
		}
	],
	"bufferViews":[
		{
			"buffer":0,
			"byteLength":48,
			"byteOffset":0,
			"target":34962
		},
		{
			"buffer":0,
			"byteLength":48,
			"byteOffset":48,
			"target":34962
		},
		{
			"buffer":0,
			"byteLength":32,
			"byteOffset":96,
			"target":34962
		},
		{
			"buffer":0,
			"byteLength":12,
			"byteOffset":128,
			"target":34963
		},
		{
			"buffer":0,
			"byteLength":432,
			"byteOffset":140,
			"target":34962
		},
		{
			"buffer":0,
			"byteLength":432,
			"byteOffset":572,
			"target":34962
		},
		{
			"buffer":0,
			"byteLength":288,
			"byteOffset":1004,
			"target":34962
		},
		{
			"buffer":0,
			"byteLength":108,
			"byteOffset":1292,
			"target":34963
		},
		{
			"buffer":0,
			"byteLength":17112,
			"byteOffset":1400,
			"target":34962
		},
		{
			"buffer":0,
			"byteLength":17112,
			"byteOffset":18512,
			"target":34962
		},
		{
			"buffer":0,
			"byteLength":11408,
			"byteOffset":35624,
			"target":34962
		},
		{
			"buffer":0,
			"byteLength":8412,
			"byteOffset":47032,
			"target":34963
		}
	],
	"buffers":[
		{
			"byteLength":55444,
			"uri":"data:application/octet-stream;base64,"
		}
	]
}
