{
	"asset":{
		"generator":"Khronos glTF Blender I/O v3.6.27",
		"version":"2.0"
	},
	"extensionsUsed":[
		"KHR_materials_specular",
		"KHR_materials_ior"
	],
	"scene":0,
	"scenes":[
		{
			"name":"Scene",
			"nodes":[
				0,
				1
			]
		}
	],
	"nodes":[
		{
			"mesh":0,
			"name":"Cube",
			"scale":[
				7.226349830627441,
				0.13769574463367462,
				7.226349830627441
			]
		},
		{
			"mesh":1,
			"name":"Circle",
			"rotation":[
				0,
				0,
				-0.7071068286895752,
				0.7071068286895752
			],
			"scale":[
				7.197407245635986,
				7.197407245635986,
				7.197407245635986
			],
			"translation":[
				0.31104010343551636,
				1.7192041873931885,
				0
			]
		}
	],
	"materials":[
		{
			"doubleSided":true,
			"extensions":{
				"KHR_materials_specular":{
					"specularColorFactor":[
						0,
						0,
						0
					]
				},
				"KHR_materials_ior":{
					"ior":1.4500000476837158
				}
			},
			"name":"Material",
			"pbrMetallicRoughness":{
				"baseColorFactor":[
					0.2019008994102478,
					0.2019008994102478,
					0.2019008994102478,
					1
				],
				"metallicFactor":0,
				"roughnessFactor":0
			}
		},
		{
			"doubleSided":true,
			"extensions":{
				"KHR_materials_specular":{
					"specularColorFactor":[
						0,
						0,
						0
					]
				},
				"KHR_materials_ior":{
					"ior":1.4500000476837158
				}
			},
			"name":"Material.001",
			"pbrMetallicRoughness":{
				"baseColorFactor":[
					0.10359879583120346,
					0.10653212666511536,
					0.10653212666511536,
					1
				],
				"metallicFactor":0,
				"roughnessFactor":0
			}
		},
		{
			"doubleSided":true,
			"name":"Material.002",
			"pbrMetallicRoughness":{
				"baseColorFactor":[
					0.8000000715255737,
					0.41059502959251404,
					0.219886913895607,
					1
				],
				"metallicFactor":0,
				"roughnessFactor":0.5
			}
		},
		{
			"doubleSided":true,
			"name":"Material.003",
			"pbrMetallicRoughness":{
				"baseColorFactor":[
					0.1844688504934311,
					0.1844688504934311,
					0.1844688504934311,
					1
				],
				"metallicFactor":0,
				"roughnessFactor":0.5
			}
		}
	],
	"meshes":[
		{
			"name":"Cube",
			"primitives":[
				{
					"attributes":{
						"POSITION":0,
						"NORMAL":1,
						"TEXCOORD_0":2
					},
					"indices":3,
					"material":0
				},
				{
					"attributes":{
						"POSITION":4,
						"NORMAL":5,
						"TEXCOORD_0":6
					},
					"indices":7,
					"material":1
				}
			]
		},
		{
			"name":"Circle",
			"primitives":[
				{
					"attributes":{
						"POSITION":8,
						"NORMAL":9,
						"TEXCOORD_0":10
					},
					"indices":11,
					"material":2
				},
				{
					"attributes":{
						"POSITION":12,
						"NORMAL":13,
						"TEXCOORD_0":14
					},
					"indices":15,
					"material":3
				}
			]
		}
	],
	"accessors":[
		{
			"bufferView":0,
			"componentType":5126,
			"count":54,
			"max":[
				1.504085659980774,
				12.554306030273438,
				1
			],
			"min":[
				-1.504085659980774,
				-0.9999998211860657,
				-1
			],
			"type":"VEC3"
		},
		{
			"bufferView":1,
			"componentType":5126,
			"count":54,
			"type":"VEC3"
		},
		{
			"bufferView":2,
			"componentType":5126,
			"count":54,
			"type":"VEC2"
		},
		{
			"bufferView":3,
			"componentType":5123,
			"count":102,
			"type":"SCALAR"
		},
		{
			"bufferView":4,
			"componentType":5126,
			"count":4,
			"max":[
				1.4646040201187134,
				0.9999999403953552,
				0.958763062953949
			],
			"min":[
				-1.4646040201187134,
				0.9999999403953552,
				-0.958763062953949
			],
			"type":"VEC3"
		},
		{
			"bufferView":5,
			"componentType":5126,
			"count":4,
			"type":"VEC3"
		},
		{
			"bufferView":6,
			"componentType":5126,
			"count":4,
			"type":"VEC2"
		},
		{
			"bufferView":7,
			"componentType":5123,
			"count":6,
			"type":"SCALAR"
		},
		{
			"bufferView":8,
			"componentType":5126,
			"count":302,
			"max":[
				1.1021974444247462e-07,
				1.459904670715332,
				1
			],
			"min":[
				-1.0000001192092896,
				-1.5542203187942505,
				-1
			],
			"type":"VEC3"
		},
		{
			"bufferView":9,
			"componentType":5126,
			"count":302,
			"type":"VEC3"
		},
		{
			"bufferView":10,
			"componentType":5126,
			"count":302,
			"type":"VEC2"
		},
		{
			"bufferView":11,
			"componentType":5123,
			"count":825,
			"type":"SCALAR"
		},
		{
			"bufferView":12,
			"componentType":5126,
			"count":261,
			"max":[
				1.1021974444247462e-07,
				1.459904670715332,
				1
			],
			"min":[
				-1.0000001192092896,
				-1.5052133798599243,
				-1
			],
			"type":"VEC3"
		},
		{
			"bufferView":13,
			"componentType":5126,
			"count":261,
			"type":"VEC3"
		},
		{
			"bufferView":14,
			"componentType":5126,
			"count":261,
			"type":"VEC2"
		},
		{
			"bufferView":15,
			"componentType":5123,
			"count":687,
			"type":"SCALAR"
		}
	],
	"bufferViews":[
		{
			"buffer":0,
			"byteLength":648,
			"byteOffset":0,
			"target":34962
		},
		{
			"buffer":0,
			"byteLength":648,
			"byteOffset":648,
			"target":34962
		},
		{
			"buffer":0,
			"byteLength":432,
			"byteOffset":1296,
			"target":34962
		},
		{
			"buffer":0,
			"byteLength":204,
			"byteOffset":1728,
			"target":34963
		},
		{
			"buffer":0,
			"byteLength":48,
			"byteOffset":1932,
			"target":34962
		},
		{
			"buffer":0,
			"byteLength":48,
			"byteOffset":1980,
			"target":34962
		},
		{
			"buffer":0,
			"byteLength":32,
			"byteOffset":2028,
			"target":34962
		},
		{
			"buffer":0,
			"byteLength":12,
			"byteOffset":2060,
			"target":34963
		},
		{
			"buffer":0,
			"byteLength":3624,
			"byteOffset":2072,
			"target":34962
		},
		{
			"buffer":0,
			"byteLength":3624,
			"byteOffset":5696,
			"target":34962
		},
		{
			"buffer":0,
			"byteLength":2416,
			"byteOffset":9320,
			"target":34962
		},
		{
			"buffer":0,
			"byteLength":1650,
			"byteOffset":11736,
			"target":34963
		},
		{
			"buffer":0,
			"byteLength":3132,
			"byteOffset":13388,
			"target":34962
		},
		{
			"buffer":0,
			"byteLength":3132,
			"byteOffset":16520,
			"target":34962
		},
		{
			"buffer":0,
			"byteLength":2088,
			"byteOffset":19652,
			"target":34962
		},
		{
			"buffer":0,
			"byteLength":1374,
			"byteOffset":21740,
			"target":34963
		}
	],
	"buffers":[
		{
			"byteLength":23116,
			"uri":"data:application/octet-stream;base64,"
		}
	]
}
