{
	"asset":{
		"generator":"Khronos glTF Blender I/O v3.6.27",
		"version":"2.0"
	},
	"extensionsUsed":[
		"KHR_materials_specular",
		"KHR_materials_ior"
	],
	"scene":0,
	"scenes":[
		{
			"name":"Scene",
			"nodes":[
				0,
				1
			]
		}
	],
	"nodes":[
		{
			"mesh":0,
			"name":"Cube",
			"scale":[
				1.73900306224823,
				1,
				2.9495816230773926
			]
		},
		{
			"mesh":1,
			"name":"Cylinder",
			"rotation":[
				-0.7071068286895752,
				0,
				0,
				0.7071068286895752
			],
			"scale":[
				0.4845549762248993,
				0.4845549762248993,
				0.4845549762248993
			],
			"translation":[
				0,
				1.1141870021820068,
				0.7219882011413574
			]
		}
	],
	"materials":[
		{
			"doubleSided":true,
			"extensions":{
				"KHR_materials_specular":{
					"specularColorFactor":[
						0,
						0,
						0
					]
				},
				"KHR_materials_ior":{
					"ior":1.4500000476837158
				}
			},
			"name":"Material",
			"pbrMetallicRoughness":{
				"baseColorFactor":[
					0.43854326009750366,
					0.43854326009750366,
					0.43854326009750366,
					1
				],
				"metallicFactor":0,
				"roughnessFactor":0.5
			}
		},
		{
			"doubleSided":true,
			"name":"Material.001",
			"pbrMetallicRoughness":{
				"baseColorFactor":[
					0.06661283224821091,
					0.27873069047927856,
					0.8000000715255737,
					1
				],
				"metallicFactor":0,
				"roughnessFactor":0.5
			}
		},
		{
			"doubleSided":true,
			"name":"Material.003",
			"pbrMetallicRoughness":{
				"baseColorFactor":[
					0.3435461223125458,
					0.86888587474823,
					0.4489997923374176,
					1
				],
				"metallicFactor":0,
				"roughnessFactor":0.5
			}
		},
		{
			"doubleSided":true,
			"name":"Material.004",
			"pbrMetallicRoughness":{
				"baseColorFactor":[
					0.5814630389213562,
					0.5814630389213562,
					0.5814630389213562,
					1
				],
				"metallicFactor":0,
				"roughnessFactor":0.5
			}
		},
		{
			"doubleSided":true,
			"extensions":{
				"KHR_materials_specular":{
					"specularColorFactor":[
						0,
						0,
						0
					]
				},
				"KHR_materials_ior":{
					"ior":1.4500000476837158
				}
			},
			"name":"Material.005",
			"pbrMetallicRoughness":{
				"baseColorFactor":[
					0.0908377543091774,
					0.0908377543091774,
					0.0908377543091774,
					1
				],
				"metallicFactor":0,
				"roughnessFactor":0
			}
		},
		{
			"doubleSided":true,
			"extensions":{
				"KHR_materials_specular":{
					"specularColorFactor":[
						0,
						0,
						0
					]
				},
				"KHR_materials_ior":{
					"ior":1.4500000476837158
				}
			},
			"name":"Material.002",
			"pbrMetallicRoughness":{
				"baseColorFactor":[
					0.16264186799526215,
					0.16264186799526215,
					0.16264186799526215,
					1
				],
				"metallicFactor":0,
				"roughnessFactor":0
			}
		}
	],
	"meshes":[
		{
			"name":"Cube",
			"primitives":[
				{
					"attributes":{
						"POSITION":0,
						"NORMAL":1,
						"TEXCOORD_0":2
					},
					"indices":3,
					"material":0
				},
				{
					"attributes":{
						"POSITION":4,
						"NORMAL":5,
						"TEXCOORD_0":6
					},
					"indices":7,
					"material":1
				},
				{
					"attributes":{
						"POSITION":8,
						"NORMAL":9,
						"TEXCOORD_0":10
					},
					"indices":11,
					"material":2
				},
				{
					"attributes":{
						"POSITION":12,
						"NORMAL":13,
						"TEXCOORD_0":14
					},
					"indices":15,
					"material":3
				},
				{
					"attributes":{
						"POSITION":16,
						"NORMAL":17,
						"TEXCOORD_0":18
					},
					"indices":19,
					"material":4
				}
			]
		},
		{
			"name":"Cylinder",
			"primitives":[
				{
					"attributes":{
						"POSITION":20,
						"NORMAL":21,
						"TEXCOORD_0":22
					},
					"indices":23,
					"material":5
				}
			]
		}
	],
	"accessors":[
		{
			"bufferView":0,
			"componentType":5126,
			"count":214,
			"max":[
				1,
				2.608380079269409,
				1
			],
			"min":[
				-1,
				0.31036651134490967,
				-1
			],
			"type":"VEC3"
		},
		{
			"bufferView":1,
			"componentType":5126,
			"count":214,
			"type":"VEC3"
		},
		{
			"bufferView":2,
			"componentType":5126,
			"count":214,
			"type":"VEC2"
		},
		{
			"bufferView":3,
			"componentType":5123,
			"count":456,
			"type":"SCALAR"
		},
		{
			"bufferView":4,
			"componentType":5126,
			"count":296,
			"max":[
				1.8680922985076904,
				2.331908702850342,
				0.7643302083015442
			],
			"min":[
				-1,
				-1.3562531471252441,
				-0.771265983581543
			],
			"type":"VEC3"
		},
		{
			"bufferView":5,
			"componentType":5126,
			"count":296,
			"type":"VEC3"
		},
		{
			"bufferView":6,
			"componentType":5126,
			"count":296,
			"type":"VEC2"
		},
		{
			"bufferView":7,
			"componentType":5123,
			"count":798,
			"type":"SCALAR"
		},
		{
			"bufferView":8,
			"componentType":5126,
			"count":8,
			"max":[
				1.7877568006515503,
				1.9926875829696655,
				0.6230106949806213
			],
			"min":[
				1.1720491647720337,
				1.230246663093567,
				0.5254626274108887
			],
			"type":"VEC3"
		},
		{
			"bufferView":9,
			"componentType":5126,
			"count":8,
			"type":"VEC3"
		},
		{
			"bufferView":10,
			"componentType":5126,
			"count":8,
			"type":"VEC2"
		},
		{
			"bufferView":11,
			"componentType":5123,
			"count":18,
			"type":"SCALAR"
		},
		{
			"bufferView":12,
			"componentType":5126,
			"count":194,
			"max":[
				1,
				0.31036651134490967,
				1
			],
			"min":[
				-1,
				-1,
				-1
			],
			"type":"VEC3"
		},
		{
			"bufferView":13,
			"componentType":5126,
			"count":194,
			"type":"VEC3"
		},
		{
			"bufferView":14,
			"componentType":5126,
			"count":194,
			"type":"VEC2"
		},
		{
			"bufferView":15,
			"componentType":5123,
			"count":432,
			"type":"SCALAR"
		},
		{
			"bufferView":16,
			"componentType":5126,
			"count":320,
			"max":[
				1,
				2.608380079269409,
				1
			],
			"min":[
				-1,
				-1.669488549232483,
				-1
			],
			"type":"VEC3"
		},
		{
			"bufferView":17,
			"componentType":5126,
			"count":320,
			"type":"VEC3"
		},
		{
			"bufferView":18,
			"componentType":5126,
			"count":320,
			"type":"VEC2"
		},
		{
			"bufferView":19,
			"componentType":5123,
			"count":798,
			"type":"SCALAR"
		},
		{
			"bufferView":20,
			"componentType":5126,
			"count":180,
			"max":[
				1,
				2.405424118041992,
				1
			],
			"min":[
				-1,
				-1,
				-1
			],
			"type":"VEC3"
		},
		{
			"bufferView":21,
			"componentType":5126,
			"count":180,
			"type":"VEC3"
		},
		{
			"bufferView":22,
			"componentType":5126,
			"count":180,
			"type":"VEC2"
		},
		{
			"bufferView":23,
			"componentType":5123,
			"count":324,
			"type":"SCALAR"
		}
	],
	"bufferViews":[
		{
			"buffer":0,
			"byteLength":2568,
			"byteOffset":0,
			"target":34962
		},
		{
			"buffer":0,
			"byteLength":2568,
			"byteOffset":2568,
			"target":34962
		},
		{
			"buffer":0,
			"byteLength":1712,
			"byteOffset":5136,
			"target":34962
		},
		{
			"buffer":0,
			"byteLength":912,
			"byteOffset":6848,
			"target":34963
		},
		{
			"buffer":0,
			"byteLength":3552,
			"byteOffset":7760,
			"target":34962
		},
		{
			"buffer":0,
			"byteLength":3552,
			"byteOffset":11312,
			"target":34962
		},
		{
			"buffer":0,
			"byteLength":2368,
			"byteOffset":14864,
			"target":34962
		},
		{
			"buffer":0,
			"byteLength":1596,
			"byteOffset":17232,
			"target":34963
		},
		{
			"buffer":0,
			"byteLength":96,
			"byteOffset":18828,
			"target":34962
		},
		{
			"buffer":0,
			"byteLength":96,
			"byteOffset":18924,
			"target":34962
		},
		{
			"buffer":0,
			"byteLength":64,
			"byteOffset":19020,
			"target":34962
		},
		{
			"buffer":0,
			"byteLength":36,
			"byteOffset":19084,
			"target":34963
		},
		{
			"buffer":0,
			"byteLength":2328,
			"byteOffset":19120,
			"target":34962
		},
		{
			"buffer":0,
			"byteLength":2328,
			"byteOffset":21448,
			"target":34962
		},
		{
			"buffer":0,
			"byteLength":1552,
			"byteOffset":23776,
			"target":34962
		},
		{
			"buffer":0,
			"byteLength":864,
			"byteOffset":25328,
			"target":34963
		},
		{
			"buffer":0,
			"byteLength":3840,
			"byteOffset":26192,
			"target":34962
		},
		{
			"buffer":0,
			"byteLength":3840,
			"byteOffset":30032,
			"target":34962
		},
		{
			"buffer":0,
			"byteLength":2560,
			"byteOffset":33872,
			"target":34962
		},
		{
			"buffer":0,
			"byteLength":1596,
			"byteOffset":36432,
			"target":34963
		},
		{
			"buffer":0,
			"byteLength":2160,
			"byteOffset":38028,
			"target":34962
		},
		{
			"buffer":0,
			"byteLength":2160,
			"byteOffset":40188,
			"target":34962
		},
		{
			"buffer":0,
			"byteLength":1440,
			"byteOffset":42348,
			"target":34962
		},
		{
			"buffer":0,
			"byteLength":648,
			"byteOffset":43788,
			"target":34963
		}
	],
	"buffers":[
		{
			"byteLength":44436,
			"uri":"data:application/octet-stream;base64,"
		}
	]
}
