{
    "asset" : {
        "generator" : "Khronos glTF Blender I/O v3.4.50",
        "version" : "2.0"
    },
    "scene" : 0,
    "scenes" : [
        {
            "name" : "Scene",
            "nodes" : [
                0
            ]
        }
    ],
    "nodes" : [
        {
            "mesh" : 0,
            "name" : "stella"
        }
    ],
    "materials" : [
        {
            "doubleSided" : true,
            "name" : "solver gray",
            "pbrMetallicRoughness" : {
                "baseColorFactor" : [
                    0.09083791822195053,
                    0.09083791822195053,
                    0.09083791822195053,
                    1
                ],
                "metallicFactor" : 0
            }
        },
        {
            "doubleSided" : true,
            "name" : "light gray",
            "pbrMetallicRoughness" : {
                "baseColorFactor" : [
                    0.3185378611087799,
                    0.3185378611087799,
                    0.3185378611087799,
                    1
                ],
                "metallicFactor" : 0
            }
        },
        {
            "doubleSided" : true,
            "name" : "sletta",
            "pbrMetallicRoughness" : {
                "baseColorFactor" : [
                    0.018848465755581856,
                    0.018848465755581856,
                    0.018848465755581856,
                    1
                ],
                "metallicFactor" : 0
            }
        }
    ],
    "meshes" : [
        {
            "name" : "stella",
            "primitives" : [
                {
                    "attributes" : {
                        "POSITION" : 0,
                        "NORMAL" : 1
                    },
                    "indices" : 2,
                    "material" : 0
                },
                {
                    "attributes" : {
                        "POSITION" : 3,
                        "NORMAL" : 4
                    },
                    "indices" : 5,
                    "material" : 1
                },
                {
                    "attributes" : {
                        "POSITION" : 6,
                        "NORMAL" : 7
                    },
                    "indices" : 8,
                    "material" : 2
                }
            ]
        }
    ],
    "accessors" : [
        {
            "bufferView" : 0,
            "componentType" : 5126,
            "count" : 14344,
            "max" : [
                10.697916030883789,
                71.67646789550781,
                12.86508560180664
            ],
            "min" : [
                -6.403186321258545,
                26.794300079345703,
                -7.388862609863281
            ],
            "type" : "VEC3"
        },
        {
            "bufferView" : 1,
            "componentType" : 5126,
            "count" : 14344,
            "type" : "VEC3"
        },
        {
            "bufferView" : 2,
            "componentType" : 5123,
            "count" : 14481,
            "type" : "SCALAR"
        },
        {
            "bufferView" : 3,
            "componentType" : 5126,
            "count" : 76,
            "max" : [
                4.509674072265625,
                71.67646789550781,
                -4.94024658203125
            ],
            "min" : [
                -0.2147350311279297,
                21.282772064208984,
                -9.664657592773438
            ],
            "type" : "VEC3"
        },
        {
            "bufferView" : 4,
            "componentType" : 5126,
            "count" : 76,
            "type" : "VEC3"
        },
        {
            "bufferView" : 5,
            "componentType" : 5123,
            "count" : 78,
            "type" : "SCALAR"
        },
        {
            "bufferView" : 6,
            "componentType" : 5126,
            "count" : 4007,
            "max" : [
                10.52634048461914,
                43.62861251831055,
                11.050554275512695
            ],
            "min" : [
                -6.330781936645508,
                3.176799774169922,
                -5.676853179931641
            ],
            "type" : "VEC3"
        },
        {
            "bufferView" : 7,
            "componentType" : 5126,
            "count" : 4007,
            "type" : "VEC3"
        },
        {
            "bufferView" : 8,
            "componentType" : 5123,
            "count" : 4161,
            "type" : "SCALAR"
        }
    ],
    "bufferViews" : [
        {
            "buffer" : 0,
            "byteLength" : 172128,
            "byteOffset" : 0,
            "target" : 34962
        },
        {
            "buffer" : 0,
            "byteLength" : 172128,
            "byteOffset" : 172128,
            "target" : 34962
        },
        {
            "buffer" : 0,
            "byteLength" : 28962,
            "byteOffset" : 344256,
            "target" : 34963
        },
        {
            "buffer" : 0,
            "byteLength" : 912,
            "byteOffset" : 373220,
            "target" : 34962
        },
        {
            "buffer" : 0,
            "byteLength" : 912,
            "byteOffset" : 374132,
            "target" : 34962
        },
        {
            "buffer" : 0,
            "byteLength" : 156,
            "byteOffset" : 375044,
            "target" : 34963
        },
        {
            "buffer" : 0,
            "byteLength" : 48084,
            "byteOffset" : 375200,
            "target" : 34962
        },
        {
            "buffer" : 0,
            "byteLength" : 48084,
            "byteOffset" : 423284,
            "target" : 34962
        },
        {
            "buffer" : 0,
            "byteLength" : 8322,
            "byteOffset" : 471368,
            "target" : 34963
        }
    ],
    "buffers" : [
        {
            "byteLength" : 479692,
            "uri" : "data:application/octet-stream;base64,"
        }
    ]
}
