{
	"asset":{
		"generator":"Khronos glTF Blender I/O v3.6.27",
		"version":"2.0"
	},
	"extensionsUsed":[
		"KHR_materials_specular",
		"KHR_materials_ior"
	],
	"scene":0,
	"scenes":[
		{
			"name":"Scene",
			"nodes":[
				0
			]
		}
	],
	"nodes":[
		{
			"mesh":0,
			"name":"Cube",
			"scale":[
				2.2521581649780273,
				0.4055638909339905,
				1
			]
		}
	],
	"materials":[
		{
			"doubleSided":true,
			"extensions":{
				"KHR_materials_specular":{
					"specularColorFactor":[
						0,
						0,
						0
					]
				},
				"KHR_materials_ior":{
					"ior":1.4500000476837158
				}
			},
			"name":"Material",
			"pbrMetallicRoughness":{
				"baseColorFactor":[
					0.05901026725769043,
					0.08353140205144882,
					0.055209316313266754,
					1
				],
				"metallicFactor":0,
				"roughnessFactor":0
			}
		},
		{
			"doubleSided":true,
			"extensions":{
				"KHR_materials_specular":{
					"specularColorFactor":[
						0,
						0,
						0
					]
				},
				"KHR_materials_ior":{
					"ior":1.4500000476837158
				}
			},
			"name":"Material.001",
			"pbrMetallicRoughness":{
				"baseColorFactor":[
					0.03735813498497009,
					0.054968833923339844,
					0.035386823117733,
					1
				],
				"metallicFactor":0,
				"roughnessFactor":0
			}
		}
	],
	"meshes":[
		{
			"name":"Cube",
			"primitives":[
				{
					"attributes":{
						"POSITION":0,
						"NORMAL":1,
						"TEXCOORD_0":2
					},
					"indices":3,
					"material":0
				},
				{
					"attributes":{
						"POSITION":4,
						"NORMAL":5,
						"TEXCOORD_0":6
					},
					"indices":7,
					"material":1
				}
			]
		}
	],
	"accessors":[
		{
			"bufferView":0,
			"componentType":5126,
			"count":62,
			"max":[
				1,
				1,
				1
			],
			"min":[
				-1,
				-1,
				-1
			],
			"type":"VEC3"
		},
		{
			"bufferView":1,
			"componentType":5126,
			"count":62,
			"type":"VEC3"
		},
		{
			"bufferView":2,
			"componentType":5126,
			"count":62,
			"type":"VEC2"
		},
		{
			"bufferView":3,
			"componentType":5123,
			"count":102,
			"type":"SCALAR"
		},
		{
			"bufferView":4,
			"componentType":5126,
			"count":52,
			"max":[
				1,
				1,
				1
			],
			"min":[
				-1,
				-0.4910438656806946,
				-1
			],
			"type":"VEC3"
		},
		{
			"bufferView":5,
			"componentType":5126,
			"count":52,
			"type":"VEC3"
		},
		{
			"bufferView":6,
			"componentType":5126,
			"count":52,
			"type":"VEC2"
		},
		{
			"bufferView":7,
			"componentType":5123,
			"count":78,
			"type":"SCALAR"
		}
	],
	"bufferViews":[
		{
			"buffer":0,
			"byteLength":744,
			"byteOffset":0,
			"target":34962
		},
		{
			"buffer":0,
			"byteLength":744,
			"byteOffset":744,
			"target":34962
		},
		{
			"buffer":0,
			"byteLength":496,
			"byteOffset":1488,
			"target":34962
		},
		{
			"buffer":0,
			"byteLength":204,
			"byteOffset":1984,
			"target":34963
		},
		{
			"buffer":0,
			"byteLength":624,
			"byteOffset":2188,
			"target":34962
		},
		{
			"buffer":0,
			"byteLength":624,
			"byteOffset":2812,
			"target":34962
		},
		{
			"buffer":0,
			"byteLength":416,
			"byteOffset":3436,
			"target":34962
		},
		{
			"buffer":0,
			"byteLength":156,
			"byteOffset":3852,
			"target":34963
		}
	],
	"buffers":[
		{
			"byteLength":4008,
			"uri":"data:application/octet-stream;base64,"
		}
	]
}
