{
	"asset":{
		"generator":"Khronos glTF Blender I/O v3.6.27",
		"version":"2.0"
	},
	"extensionsUsed":[
		"KHR_materials_specular",
		"KHR_materials_ior"
	],
	"scene":0,
	"scenes":[
		{
			"name":"Scene",
			"nodes":[
				2,
				3,
				4
			]
		}
	],
	"nodes":[
		{
			"name":"Object_2"
		},
		{
			"children":[
				0
			],
			"name":"8a6f4764c9794614a453b6a8750aa3ef.obj.cleaner.materialmerger.gle"
		},
		{
			"children":[
				1
			],
			"name":"Sketchfab_model",
			"rotation":[
				-0.7192075252532959,
				0.016307851299643517,
				-0.0020793138537555933,
				0.6946008205413818
			],
			"scale":[
				1.182349681854248,
				1.1823498010635376,
				1.1823498010635376
			],
			"translation":[
				-0.012551193125545979,
				-0.005745798349380493,
				0.012350383214652538
			]
		},
		{
			"mesh":0,
			"name":"Cube",
			"scale":[
				0.1380011886358261,
				0.10589754581451416,
				0.10589754581451416
			],
			"translation":[
				-0.03621728718280792,
				0.8716029524803162,
				-0.1669645756483078
			]
		},
		{
			"mesh":1,
			"name":"Cylinder",
			"rotation":[
				0,
				0,
				-0.7071068286895752,
				0.7071068286895752
			],
			"scale":[
				0.12967117130756378,
				0.7518457174301147,
				0.12967117130756378
			],
			"translation":[
				1.0507453680038452,
				0.973115861415863,
				-0.19877994060516357
			]
		}
	],
	"materials":[
		{
			"doubleSided":true,
			"extensions":{
				"KHR_materials_specular":{
					"specularColorFactor":[
						0,
						0,
						0
					]
				},
				"KHR_materials_ior":{
					"ior":1.4500000476837158
				}
			},
			"name":"Material",
			"pbrMetallicRoughness":{
				"baseColorFactor":[
					0.1149354875087738,
					0.1149354875087738,
					0.1149354875087738,
					1
				],
				"metallicFactor":0,
				"roughnessFactor":0
			}
		},
		{
			"doubleSided":true,
			"extensions":{
				"KHR_materials_specular":{
					"specularColorFactor":[
						0,
						0,
						0
					]
				},
				"KHR_materials_ior":{
					"ior":1.4500000476837158
				}
			},
			"name":"Material.002",
			"pbrMetallicRoughness":{
				"baseColorFactor":[
					0.05221787095069885,
					0.05221787095069885,
					0.05221787095069885,
					1
				],
				"metallicFactor":0,
				"roughnessFactor":0
			}
		},
		{
			"doubleSided":true,
			"extensions":{
				"KHR_materials_specular":{
					"specularColorFactor":[
						0,
						0,
						0
					]
				},
				"KHR_materials_ior":{
					"ior":1.4500000476837158
				}
			},
			"name":"Material.001",
			"pbrMetallicRoughness":{
				"baseColorFactor":[
					0.1375834196805954,
					0.04414554685354233,
					0.03030363656580448,
					1
				],
				"metallicFactor":0,
				"roughnessFactor":0
			}
		}
	],
	"meshes":[
		{
			"name":"Cube.001",
			"primitives":[
				{
					"attributes":{
						"POSITION":0,
						"NORMAL":1,
						"TEXCOORD_0":2
					},
					"indices":3,
					"material":0
				},
				{
					"attributes":{
						"POSITION":4,
						"NORMAL":5,
						"TEXCOORD_0":6
					},
					"indices":7,
					"material":1
				},
				{
					"attributes":{
						"POSITION":8,
						"NORMAL":9,
						"TEXCOORD_0":10
					},
					"indices":11,
					"material":2
				}
			]
		},
		{
			"name":"Cylinder",
			"primitives":[
				{
					"attributes":{
						"POSITION":12,
						"NORMAL":13,
						"TEXCOORD_0":14
					},
					"indices":15,
					"material":0
				}
			]
		}
	],
	"accessors":[
		{
			"bufferView":0,
			"componentType":5126,
			"count":5438,
			"max":[
				13.255450248718262,
				11.159187316894531,
				2.0624237060546875
			],
			"min":[
				-19.72010040283203,
				-6.256931304931641,
				-1.2375545501708984
			],
			"type":"VEC3"
		},
		{
			"bufferView":1,
			"componentType":5126,
			"count":5438,
			"type":"VEC3"
		},
		{
			"bufferView":2,
			"componentType":5126,
			"count":5438,
			"type":"VEC2"
		},
		{
			"bufferView":3,
			"componentType":5123,
			"count":10368,
			"type":"SCALAR"
		},
		{
			"bufferView":4,
			"componentType":5126,
			"count":487,
			"max":[
				13.240538597106934,
				9.635951042175293,
				2.0624237060546875
			],
			"min":[
				-6.8747639656066895,
				-2.3362627029418945,
				-1.1663248538970947
			],
			"type":"VEC3"
		},
		{
			"bufferView":5,
			"componentType":5126,
			"count":487,
			"type":"VEC3"
		},
		{
			"bufferView":6,
			"componentType":5126,
			"count":487,
			"type":"VEC2"
		},
		{
			"bufferView":7,
			"componentType":5123,
			"count":810,
			"type":"SCALAR"
		},
		{
			"bufferView":8,
			"componentType":5126,
			"count":870,
			"max":[
				-1.3696938753128052,
				1.6329774856567383,
				1.6676585674285889
			],
			"min":[
				-19.72010040283203,
				-6.256931304931641,
				-1.0837767124176025
			],
			"type":"VEC3"
		},
		{
			"bufferView":9,
			"componentType":5126,
			"count":870,
			"type":"VEC3"
		},
		{
			"bufferView":10,
			"componentType":5126,
			"count":870,
			"type":"VEC2"
		},
		{
			"bufferView":11,
			"componentType":5123,
			"count":1257,
			"type":"SCALAR"
		},
		{
			"bufferView":12,
			"componentType":5126,
			"count":386,
			"max":[
				1,
				1,
				1
			],
			"min":[
				-1,
				-1,
				-1
			],
			"type":"VEC3"
		},
		{
			"bufferView":13,
			"componentType":5126,
			"count":386,
			"type":"VEC3"
		},
		{
			"bufferView":14,
			"componentType":5126,
			"count":386,
			"type":"VEC2"
		},
		{
			"bufferView":15,
			"componentType":5123,
			"count":756,
			"type":"SCALAR"
		}
	],
	"bufferViews":[
		{
			"buffer":0,
			"byteLength":65256,
			"byteOffset":0,
			"target":34962
		},
		{
			"buffer":0,
			"byteLength":65256,
			"byteOffset":65256,
			"target":34962
		},
		{
			"buffer":0,
			"byteLength":43504,
			"byteOffset":130512,
			"target":34962
		},
		{
			"buffer":0,
			"byteLength":20736,
			"byteOffset":174016,
			"target":34963
		},
		{
			"buffer":0,
			"byteLength":5844,
			"byteOffset":194752,
			"target":34962
		},
		{
			"buffer":0,
			"byteLength":5844,
			"byteOffset":200596,
			"target":34962
		},
		{
			"buffer":0,
			"byteLength":3896,
			"byteOffset":206440,
			"target":34962
		},
		{
			"buffer":0,
			"byteLength":1620,
			"byteOffset":210336,
			"target":34963
		},
		{
			"buffer":0,
			"byteLength":10440,
			"byteOffset":211956,
			"target":34962
		},
		{
			"buffer":0,
			"byteLength":10440,
			"byteOffset":222396,
			"target":34962
		},
		{
			"buffer":0,
			"byteLength":6960,
			"byteOffset":232836,
			"target":34962
		},
		{
			"buffer":0,
			"byteLength":2514,
			"byteOffset":239796,
			"target":34963
		},
		{
			"buffer":0,
			"byteLength":4632,
			"byteOffset":242312,
			"target":34962
		},
		{
			"buffer":0,
			"byteLength":4632,
			"byteOffset":246944,
			"target":34962
		},
		{
			"buffer":0,
			"byteLength":3088,
			"byteOffset":251576,
			"target":34962
		},
		{
			"buffer":0,
			"byteLength":1512,
			"byteOffset":254664,
			"target":34963
		}
	],
	"buffers":[
		{
			"byteLength":256176,
			"uri":"data:application/octet-stream;base64,"
		}
	]
}
