{
	"asset":{
		"generator":"Khronos glTF Blender I/O v3.6.27",
		"version":"2.0"
	},
	"extensionsUsed":[
		"KHR_materials_specular",
		"KHR_materials_ior"
	],
	"scene":0,
	"scenes":[
		{
			"name":"Scene",
			"nodes":[
				2,
				8
			]
		}
	],
	"nodes":[
		{
			"name":"RootNode"
		},
		{
			"children":[
				0
			],
			"name":"24632585e7144c48909cd1937efa1a28.fbx",
			"rotation":[
				0.70710688829422,
				0,
				0,
				0.7071066498756409
			]
		},
		{
			"children":[
				1
			],
			"name":"Sketchfab_model",
			"rotation":[
				-0.70710688829422,
				0,
				0,
				0.7071066498756409
			]
		},
		{
			"mesh":0,
			"name":"earth4_blinn1_0"
		},
		{
			"mesh":1,
			"name":"earth4_lambert1_0"
		},
		{
			"children":[
				3,
				4
			],
			"name":"earth4"
		},
		{
			"children":[
				5
			],
			"name":"RootNode.001"
		},
		{
			"children":[
				6
			],
			"name":"24632585e7144c48909cd1937efa1a28.fbx.001",
			"rotation":[
				0.70710688829422,
				0,
				0,
				0.7071066498756409
			]
		},
		{
			"children":[
				7
			],
			"name":"Sketchfab_model.001",
			"rotation":[
				-0.70710688829422,
				0,
				0,
				0.7071066498756409
			]
		}
	],
	"materials":[
		{
			"doubleSided":true,
			"extensions":{
				"KHR_materials_specular":{
					"specularColorFactor":[
						0,
						0,
						0
					]
				},
				"KHR_materials_ior":{
					"ior":1.4500000476837158
				}
			},
			"name":"Material.001",
			"pbrMetallicRoughness":{
				"baseColorFactor":[
					0.09958814829587936,
					0.2612760365009308,
					0.45753368735313416,
					1
				],
				"metallicFactor":0,
				"roughnessFactor":0
			}
		},
		{
			"doubleSided":true,
			"name":"Material",
			"pbrMetallicRoughness":{
				"baseColorFactor":[
					0.18693813681602478,
					0.581462025642395,
					0.20656391978263855,
					1
				],
				"metallicFactor":0,
				"roughnessFactor":0.5
			}
		},
		{
			"doubleSided":true,
			"extensions":{
				"KHR_materials_specular":{
					"specularColorFactor":[
						0,
						0,
						0
					]
				},
				"KHR_materials_ior":{
					"ior":1.4500000476837158
				}
			},
			"name":"Material.002",
			"pbrMetallicRoughness":{
				"baseColorFactor":[
					0.6038155555725098,
					0.6038155555725098,
					0.6038155555725098,
					1
				],
				"metallicFactor":0,
				"roughnessFactor":0
			}
		},
		{
			"doubleSided":true,
			"extensions":{
				"KHR_materials_specular":{
					"specularColorFactor":[
						0,
						0,
						0
					]
				},
				"KHR_materials_ior":{
					"ior":1.4500000476837158
				}
			},
			"name":"Material.003",
			"pbrMetallicRoughness":{
				"baseColorFactor":[
					0.7484000325202942,
					0.7167057394981384,
					0.27150243520736694,
					1
				],
				"metallicFactor":0,
				"roughnessFactor":0
			}
		}
	],
	"meshes":[
		{
			"name":"earth4_blinn1_0.001",
			"primitives":[
				{
					"attributes":{
						"POSITION":0,
						"NORMAL":1,
						"TEXCOORD_0":2
					},
					"indices":3,
					"material":0
				}
			]
		},
		{
			"name":"earth4_lambert1_0",
			"primitives":[
				{
					"attributes":{
						"POSITION":4,
						"NORMAL":5,
						"TEXCOORD_0":6
					},
					"indices":7,
					"material":1
				},
				{
					"attributes":{
						"POSITION":8,
						"NORMAL":9,
						"TEXCOORD_0":10
					},
					"indices":11,
					"material":2
				},
				{
					"attributes":{
						"POSITION":12,
						"NORMAL":13,
						"TEXCOORD_0":14
					},
					"indices":15,
					"material":3
				}
			]
		}
	],
	"accessors":[
		{
			"bufferView":0,
			"componentType":5126,
			"count":2400,
			"max":[
				8.406753540039062,
				8.52292537689209,
				8.494434356689453
			],
			"min":[
				-8.406753540039062,
				-8.423351287841797,
				-8.494434356689453
			],
			"type":"VEC3"
		},
		{
			"bufferView":1,
			"componentType":5126,
			"count":2400,
			"type":"VEC3"
		},
		{
			"bufferView":2,
			"componentType":5126,
			"count":2400,
			"type":"VEC2"
		},
		{
			"bufferView":3,
			"componentType":5123,
			"count":2952,
			"type":"SCALAR"
		},
		{
			"bufferView":4,
			"componentType":5126,
			"count":2255,
			"max":[
				8.583353042602539,
				8.41865062713623,
				8.79779052734375
			],
			"min":[
				-8.742206573486328,
				-8.516124725341797,
				-8.453768730163574
			],
			"type":"VEC3"
		},
		{
			"bufferView":5,
			"componentType":5126,
			"count":2255,
			"type":"VEC3"
		},
		{
			"bufferView":6,
			"componentType":5126,
			"count":2255,
			"type":"VEC2"
		},
		{
			"bufferView":7,
			"componentType":5123,
			"count":3162,
			"type":"SCALAR"
		},
		{
			"bufferView":8,
			"componentType":5126,
			"count":784,
			"max":[
				5.399761199951172,
				8.588372230529785,
				4.640139102935791
			],
			"min":[
				-4.416192054748535,
				-9.351238250732422,
				-5.0561418533325195
			],
			"type":"VEC3"
		},
		{
			"bufferView":9,
			"componentType":5126,
			"count":784,
			"type":"VEC3"
		},
		{
			"bufferView":10,
			"componentType":5126,
			"count":784,
			"type":"VEC2"
		},
		{
			"bufferView":11,
			"componentType":5123,
			"count":1098,
			"type":"SCALAR"
		},
		{
			"bufferView":12,
			"componentType":5126,
			"count":200,
			"max":[
				7.437069416046143,
				7.669852256774902,
				8.795618057250977
			],
			"min":[
				-7.906914710998535,
				-5.543820381164551,
				-7.068031311035156
			],
			"type":"VEC3"
		},
		{
			"bufferView":13,
			"componentType":5126,
			"count":200,
			"type":"VEC3"
		},
		{
			"bufferView":14,
			"componentType":5126,
			"count":200,
			"type":"VEC2"
		},
		{
			"bufferView":15,
			"componentType":5123,
			"count":228,
			"type":"SCALAR"
		}
	],
	"bufferViews":[
		{
			"buffer":0,
			"byteLength":28800,
			"byteOffset":0,
			"target":34962
		},
		{
			"buffer":0,
			"byteLength":28800,
			"byteOffset":28800,
			"target":34962
		},
		{
			"buffer":0,
			"byteLength":19200,
			"byteOffset":57600,
			"target":34962
		},
		{
			"buffer":0,
			"byteLength":5904,
			"byteOffset":76800,
			"target":34963
		},
		{
			"buffer":0,
			"byteLength":27060,
			"byteOffset":82704,
			"target":34962
		},
		{
			"buffer":0,
			"byteLength":27060,
			"byteOffset":109764,
			"target":34962
		},
		{
			"buffer":0,
			"byteLength":18040,
			"byteOffset":136824,
			"target":34962
		},
		{
			"buffer":0,
			"byteLength":6324,
			"byteOffset":154864,
			"target":34963
		},
		{
			"buffer":0,
			"byteLength":9408,
			"byteOffset":161188,
			"target":34962
		},
		{
			"buffer":0,
			"byteLength":9408,
			"byteOffset":170596,
			"target":34962
		},
		{
			"buffer":0,
			"byteLength":6272,
			"byteOffset":180004,
			"target":34962
		},
		{
			"buffer":0,
			"byteLength":2196,
			"byteOffset":186276,
			"target":34963
		},
		{
			"buffer":0,
			"byteLength":2400,
			"byteOffset":188472,
			"target":34962
		},
		{
			"buffer":0,
			"byteLength":2400,
			"byteOffset":190872,
			"target":34962
		},
		{
			"buffer":0,
			"byteLength":1600,
			"byteOffset":193272,
			"target":34962
		},
		{
			"buffer":0,
			"byteLength":456,
			"byteOffset":194872,
			"target":34963
		}
	],
	"buffers":[
		{
			"byteLength":195328,
			"uri":"data:application/octet-stream;base64,"
		}
	]
}
