{
	"asset":{
		"generator":"Khronos glTF Blender I/O v3.6.27",
		"version":"2.0"
	},
	"extensionsUsed":[
		"KHR_materials_specular",
		"KHR_materials_ior"
	],
	"scene":0,
	"scenes":[
		{
			"name":"Scene",
			"nodes":[
				19
			]
		}
	],
	"nodes":[
		{
			"name":"bullet_end",
			"rotation":[
				3.587412214078184e-14,
				-2.2689914132815884e-15,
				1.7448556377530622e-08,
				1
			],
			"scale":[
				0.9999999403953552,
				0.9999999403953552,
				0.9999998807907104
			],
			"translation":[
				7.219016850967819e-08,
				0.6332923769950867,
				1.4210854715202004e-14
			]
		},
		{
			"children":[
				0
			],
			"name":"bullet",
			"rotation":[
				2.39325601114615e-07,
				8.585504929214949e-08,
				0.675906777381897,
				0.7369871139526367
			],
			"scale":[
				1.0000001192092896,
				1.0000001192092896,
				0.9999999403953552
			],
			"translation":[
				0.5738762021064758,
				-0.29256728291511536,
				-3.8007601688150316e-07
			]
		},
		{
			"name":"bullets_end",
			"rotation":[
				7.345674700562528e-15,
				3.3191498493092848e-15,
				-3.098019263347851e-08,
				1
			],
			"scale":[
				0.9999999403953552,
				0.9999999403953552,
				0.9999998807907104
			],
			"translation":[
				3.331618358970445e-08,
				0.6332924962043762,
				4.440892098500626e-16
			]
		},
		{
			"children":[
				2
			],
			"name":"bullets",
			"rotation":[
				2.443615017000411e-07,
				8.036402476818694e-08,
				0.6759068369865417,
				0.7369870543479919
			],
			"scale":[
				1.0000001192092896,
				1.0000001192092896,
				0.9999999403953552
			],
			"translation":[
				0.5769723653793335,
				-0.1729421615600586,
				-3.658418279428588e-07
			]
		},
		{
			"children":[
				1,
				3
			],
			"name":"mag",
			"rotation":[
				-2.46083288857335e-07,
				-7.848656480291538e-08,
				-0.6759068369865417,
				0.7369870543479919
			],
			"scale":[
				0.9999998807907104,
				0.9999998807907104,
				0.9999999403953552
			],
			"translation":[
				-0.13448607921600342,
				-0.48651501536369324,
				-7.193343520839335e-08
			]
		},
		{
			"name":"magrelease_end",
			"rotation":[
				-7.45057571194252e-09,
				3.5351508387293507e-08,
				3.552714525833448e-15,
				1
			],
			"scale":[
				0.9999999403953552,
				0.9999998807907104,
				1
			],
			"translation":[
				-6.217248937900877e-15,
				0.291558176279068,
				-2.2351704487277857e-08
			]
		},
		{
			"children":[
				5
			],
			"name":"magrelease",
			"rotation":[
				-0.4058147668838501,
				-0.5790634155273438,
				-0.40581467747688293,
				0.5790634751319885
			],
			"scale":[
				0.9999999403953552,
				1,
				1
			],
			"translation":[
				0.2627284526824951,
				-0.21746550500392914,
				-2.1441168485125672e-07
			]
		},
		{
			"name":"bolt_end",
			"rotation":[
				-1.7742019875824355e-14,
				2.6606205238977054e-08,
				1.2639393875193148e-16,
				1
			],
			"scale":[
				0.9999999403953552,
				0.9999999403953552,
				0.9999999403953552
			],
			"translation":[
				5.684341886080802e-14,
				0.6436569690704346,
				1.1654401532723568e-07
			]
		},
		{
			"children":[
				7
			],
			"name":"bolt",
			"rotation":[
				6.548030739850219e-08,
				0.7071065902709961,
				-6.548030029307483e-08,
				0.7071069478988647
			],
			"scale":[
				0.9999999403953552,
				0.9999999403953552,
				0.9999999403953552
			],
			"translation":[
				-0.6361267566680908,
				-0.9573682546615601,
				-1.7057072909665294e-07
			]
		},
		{
			"name":"dustcover_end",
			"rotation":[
				-3.1584329708643066e-15,
				-2.7950162184708915e-09,
				2.138518312086446e-14,
				1
			],
			"scale":[
				0.9999999403953552,
				0.9999999403953552,
				0.9999999403953552
			],
			"translation":[
				3.907985046680551e-14,
				0.4885454773902893,
				6.219502068915972e-08
			]
		},
		{
			"children":[
				9
			],
			"name":"dustcover",
			"rotation":[
				8.62700701986796e-08,
				0.7071066498756409,
				-8.627005598782489e-08,
				0.70710688829422
			],
			"scale":[
				0.9999999403953552,
				0.9999999403953552,
				0.9999999403953552
			],
			"translation":[
				-0.731683611869812,
				-1.7832595109939575,
				-2.7911789857171243e-07
			]
		},
		{
			"name":"selector_end",
			"rotation":[
				5.736947059631348e-07,
				1.1372401687026468e-08,
				-4.813927034774679e-13,
				1
			],
			"translation":[
				2.1671553440683056e-13,
				0.20640626549720764,
				-3.115272591003304e-07
			]
		},
		{
			"children":[
				11
			],
			"name":"selector",
			"rotation":[
				0.48654070496559143,
				0.5131058096885681,
				-0.48654139041900635,
				0.5131062269210815
			],
			"scale":[
				0.9999998807907104,
				0.9999998211860657,
				0.9999999403953552
			],
			"translation":[
				0.1934805065393448,
				-2.1090216636657715,
				-4.4719101310874976e-07
			]
		},
		{
			"name":"safety_end",
			"rotation":[
				-2.6921043172478676e-09,
				1.761654857546091e-07,
				1.493526724516414e-08,
				1
			],
			"scale":[
				1,
				1,
				0.9999998807907104
			],
			"translation":[
				3.073364496231079e-08,
				0.1906965672969818,
				-8.579809218645096e-08
			]
		},
		{
			"children":[
				13
			],
			"name":"safety",
			"rotation":[
				-0.09899110347032547,
				-0.6993368864059448,
				-0.700470507144928,
				0.10232189297676086
			],
			"scale":[
				1,
				1,
				0.9999998807907104
			],
			"translation":[
				0.17474152147769928,
				-1.791459560394287,
				0.0018541290191933513
			]
		},
		{
			"name":"boltholdopen_end",
			"rotation":[
				4.228900252201129e-08,
				1.789473103031014e-08,
				-2.9602153972518863e-07,
				1
			],
			"scale":[
				0.9999999403953552,
				0.9999999403953552,
				0.9999999403953552
			],
			"translation":[
				6.735994872997253e-09,
				0.3523666262626648,
				-1.4774740009215748e-07
			]
		},
		{
			"children":[
				15
			],
			"name":"boltholdopen",
			"rotation":[
				0.7071067094802856,
				-4.186376258985547e-07,
				-0.7071068286895752,
				5.980537309824285e-08
			],
			"scale":[
				0.9999999403953552,
				0.9999999403953552,
				0.9999999403953552
			],
			"translation":[
				-0.4935620427131653,
				-1.35202157497406,
				0.22923341393470764
			]
		},
		{
			"children":[
				4,
				6,
				8,
				10,
				12,
				14,
				16
			],
			"name":"body",
			"rotation":[
				1.4210856409267898e-14,
				-2.3571117399873733e-21,
				0,
				1
			],
			"scale":[
				0.9999999403953552,
				0.9999999403953552,
				0.9999999403953552
			],
			"translation":[
				6.60665335772137e-08,
				6.84704723474816e-11,
				-2.1269878219820626e-15
			]
		},
		{
			"mesh":0,
			"name":"Cube",
			"skin":0
		},
		{
			"children":[
				18,
				17
			],
			"name":"Armature",
			"rotation":[
				0,
				0,
				-0.7071066498756409,
				0.7071069478988647
			],
			"scale":[
				0.39366888999938965,
				0.39366888999938965,
				0.39366888999938965
			],
			"translation":[
				0.013064980506896973,
				0.1884380280971527,
				0
			]
		}
	],
	"materials":[
		{
			"doubleSided":true,
			"extensions":{
				"KHR_materials_specular":{
					"specularColorFactor":[
						0,
						0,
						0
					]
				},
				"KHR_materials_ior":{
					"ior":1.4500000476837158
				}
			},
			"name":"Material.004",
			"pbrMetallicRoughness":{
				"baseColorFactor":[
					0.06997805833816528,
					0.04757573828101158,
					0.035906992852687836,
					1
				],
				"metallicFactor":0,
				"roughnessFactor":0
			}
		},
		{
			"doubleSided":true,
			"name":"Material.005",
			"pbrMetallicRoughness":{}
		}
	],
	"meshes":[
		{
			"name":"Cube.002",
			"primitives":[
				{
					"attributes":{
						"COLOR_0":0,
						"POSITION":1,
						"NORMAL":2,
						"TEXCOORD_0":3,
						"JOINTS_0":4,
						"WEIGHTS_0":5
					},
					"indices":6,
					"material":0
				},
				{
					"attributes":{
						"COLOR_0":7,
						"POSITION":8,
						"NORMAL":9,
						"TEXCOORD_0":10,
						"JOINTS_0":11,
						"WEIGHTS_0":12
					},
					"indices":13,
					"material":1
				}
			]
		}
	],
	"skins":[
		{
			"inverseBindMatrices":14,
			"joints":[
				17,
				4,
				1,
				0,
				3,
				2,
				6,
				5,
				8,
				7,
				10,
				9,
				12,
				11,
				14,
				13,
				16,
				15
			],
			"name":"Armature"
		}
	],
	"accessors":[
		{
			"bufferView":0,
			"componentType":5123,
			"count":876,
			"normalized":true,
			"type":"VEC4"
		},
		{
			"bufferView":1,
			"componentType":5126,
			"count":876,
			"max":[
				1.0246994495391846,
				0.39825037121772766,
				0.09445217996835709
			],
			"min":[
				-2.348494291305542,
				-0.33027327060699463,
				-0.09445224702358246
			],
			"type":"VEC3"
		},
		{
			"bufferView":2,
			"componentType":5126,
			"count":876,
			"type":"VEC3"
		},
		{
			"bufferView":3,
			"componentType":5126,
			"count":876,
			"type":"VEC2"
		},
		{
			"bufferView":4,
			"componentType":5121,
			"count":876,
			"type":"VEC4"
		},
		{
			"bufferView":5,
			"componentType":5126,
			"count":876,
			"type":"VEC4"
		},
		{
			"bufferView":6,
			"componentType":5123,
			"count":1542,
			"type":"SCALAR"
		},
		{
			"bufferView":7,
			"componentType":5123,
			"count":8615,
			"normalized":true,
			"type":"VEC4"
		},
		{
			"bufferView":8,
			"componentType":5126,
			"count":8615,
			"max":[
				2.381753921508789,
				0.5462833046913147,
				0.21041056513786316
			],
			"min":[
				-2.36043119430542,
				-0.5407453179359436,
				-0.09421281516551971
			],
			"type":"VEC3"
		},
		{
			"bufferView":9,
			"componentType":5126,
			"count":8615,
			"type":"VEC3"
		},
		{
			"bufferView":10,
			"componentType":5126,
			"count":8615,
			"type":"VEC2"
		},
		{
			"bufferView":11,
			"componentType":5121,
			"count":8615,
			"type":"VEC4"
		},
		{
			"bufferView":12,
			"componentType":5126,
			"count":8615,
			"type":"VEC4"
		},
		{
			"bufferView":13,
			"componentType":5123,
			"count":16926,
			"type":"SCALAR"
		},
		{
			"bufferView":14,
			"componentType":5126,
			"count":18,
			"type":"MAT4"
		}
	],
	"bufferViews":[
		{
			"buffer":0,
			"byteLength":7008,
			"byteOffset":0,
			"target":34962
		},
		{
			"buffer":0,
			"byteLength":10512,
			"byteOffset":7008,
			"target":34962
		},
		{
			"buffer":0,
			"byteLength":10512,
			"byteOffset":17520,
			"target":34962
		},
		{
			"buffer":0,
			"byteLength":7008,
			"byteOffset":28032,
			"target":34962
		},
		{
			"buffer":0,
			"byteLength":3504,
			"byteOffset":35040,
			"target":34962
		},
		{
			"buffer":0,
			"byteLength":14016,
			"byteOffset":38544,
			"target":34962
		},
		{
			"buffer":0,
			"byteLength":3084,
			"byteOffset":52560,
			"target":34963
		},
		{
			"buffer":0,
			"byteLength":68920,
			"byteOffset":55644,
			"target":34962
		},
		{
			"buffer":0,
			"byteLength":103380,
			"byteOffset":124564,
			"target":34962
		},
		{
			"buffer":0,
			"byteLength":103380,
			"byteOffset":227944,
			"target":34962
		},
		{
			"buffer":0,
			"byteLength":68920,
			"byteOffset":331324,
			"target":34962
		},
		{
			"buffer":0,
			"byteLength":34460,
			"byteOffset":400244,
			"target":34962
		},
		{
			"buffer":0,
			"byteLength":137840,
			"byteOffset":434704,
			"target":34962
		},
		{
			"buffer":0,
			"byteLength":33852,
			"byteOffset":572544,
			"target":34963
		},
		{
			"buffer":0,
			"byteLength":1152,
			"byteOffset":606396
		}
	],
	"buffers":[
		{
			"byteLength":607548,
			"uri":"data:application/octet-stream;base64,"
		}
	]
}
