{
	"asset":{
		"generator":"Khronos glTF Blender I/O v3.6.27",
		"version":"2.0"
	},
	"extensionsUsed":[
		"KHR_materials_specular",
		"KHR_materials_ior"
	],
	"scene":0,
	"scenes":[
		{
			"name":"Scene",
			"nodes":[
				0
			]
		}
	],
	"nodes":[
		{
			"mesh":0,
			"name":"GAZ-AA_box OBJ",
			"rotation":[
				0.7071068286895752,
				0,
				0,
				0.7071068286895752
			],
			"scale":[
				0.008241325616836548,
				0.008241325616836548,
				0.008241325616836548
			]
		}
	],
	"materials":[
		{
			"doubleSided":true,
			"extensions":{
				"KHR_materials_specular":{
					"specularColorFactor":[
						0,
						0,
						0
					]
				},
				"KHR_materials_ior":{
					"ior":1.4500000476837158
				}
			},
			"name":"Material.003",
			"pbrMetallicRoughness":{
				"baseColorFactor":[
					0.125967875123024,
					0.17333215475082397,
					0.10038755089044571,
					1
				],
				"metallicFactor":0,
				"roughnessFactor":0
			}
		},
		{
			"doubleSided":true,
			"extensions":{
				"KHR_materials_specular":{
					"specularColorFactor":[
						0,
						0,
						0
					]
				},
				"KHR_materials_ior":{
					"ior":1.4500000476837158
				}
			},
			"name":"Material.004",
			"pbrMetallicRoughness":{
				"baseColorFactor":[
					0.13286276161670685,
					0.08538061380386353,
					0.05266491696238518,
					1
				],
				"metallicFactor":0,
				"roughnessFactor":0
			}
		},
		{
			"doubleSided":true,
			"extensions":{
				"KHR_materials_specular":{
					"specularColorFactor":[
						0,
						0,
						0
					]
				},
				"KHR_materials_ior":{
					"ior":1.4500000476837158
				}
			},
			"name":"Material.005",
			"pbrMetallicRoughness":{
				"baseColorFactor":[
					0.06680598855018616,
					0.06680598855018616,
					0.06680598855018616,
					1
				],
				"metallicFactor":0,
				"roughnessFactor":0
			}
		},
		{
			"doubleSided":true,
			"name":"Material.006",
			"pbrMetallicRoughness":{
				"baseColorFactor":[
					0.11506173014640808,
					0.19405034184455872,
					0.24619315564632416,
					1
				],
				"metallicFactor":0,
				"roughnessFactor":0.5
			}
		},
		{
			"doubleSided":true,
			"name":"Material.007",
			"pbrMetallicRoughness":{
				"baseColorFactor":[
					0.5814610719680786,
					0.5424290895462036,
					0.29222372174263,
					1
				],
				"metallicFactor":0,
				"roughnessFactor":0.5
			}
		},
		{
			"doubleSided":true,
			"extensions":{
				"KHR_materials_specular":{
					"specularColorFactor":[
						0,
						0,
						0
					]
				},
				"KHR_materials_ior":{
					"ior":1.4500000476837158
				}
			},
			"name":"Material.008",
			"pbrMetallicRoughness":{
				"baseColorFactor":[
					0.16794787347316742,
					0.16794787347316742,
					0.16794787347316742,
					1
				],
				"metallicFactor":0,
				"roughnessFactor":0
			}
		}
	],
	"meshes":[
		{
			"name":"GAZ-AA_box OBJ.001",
			"primitives":[
				{
					"attributes":{
						"POSITION":0,
						"NORMAL":1,
						"TEXCOORD_0":2
					},
					"indices":3,
					"material":0
				},
				{
					"attributes":{
						"POSITION":4,
						"NORMAL":5,
						"TEXCOORD_0":6
					},
					"indices":7,
					"material":1
				},
				{
					"attributes":{
						"POSITION":8,
						"NORMAL":9,
						"TEXCOORD_0":10
					},
					"indices":11,
					"material":2
				},
				{
					"attributes":{
						"POSITION":12,
						"NORMAL":13,
						"TEXCOORD_0":14
					},
					"indices":15,
					"material":3
				},
				{
					"attributes":{
						"POSITION":16,
						"NORMAL":17,
						"TEXCOORD_0":18
					},
					"indices":19,
					"material":4
				},
				{
					"attributes":{
						"POSITION":20,
						"NORMAL":21,
						"TEXCOORD_0":22
					},
					"indices":23,
					"material":5
				}
			]
		}
	],
	"accessors":[
		{
			"bufferView":0,
			"componentType":5126,
			"count":6907,
			"max":[
				2554.57275390625,
				979.3336791992188,
				-58.79209899902344
			],
			"min":[
				-2643,
				-979.3330078125,
				-1865.900146484375
			],
			"type":"VEC3"
		},
		{
			"bufferView":1,
			"componentType":5126,
			"count":6907,
			"type":"VEC3"
		},
		{
			"bufferView":2,
			"componentType":5126,
			"count":6907,
			"type":"VEC2"
		},
		{
			"bufferView":3,
			"componentType":5123,
			"count":11736,
			"type":"SCALAR"
		},
		{
			"bufferView":4,
			"componentType":5126,
			"count":48,
			"max":[
				2554.57275390625,
				939.3336791992188,
				-940.0458984375
			],
			"min":[
				44.572601318359375,
				-939.3330078125,
				-1411.2042236328125
			],
			"type":"VEC3"
		},
		{
			"bufferView":5,
			"componentType":5126,
			"count":48,
			"type":"VEC3"
		},
		{
			"bufferView":6,
			"componentType":5126,
			"count":48,
			"type":"VEC2"
		},
		{
			"bufferView":7,
			"componentType":5123,
			"count":90,
			"type":"SCALAR"
		},
		{
			"bufferView":8,
			"componentType":5126,
			"count":1202,
			"max":[
				1674,
				980,
				3.63319993019104
			],
			"min":[
				-2499,
				-979.9998779296875,
				-1242.5040283203125
			],
			"type":"VEC3"
		},
		{
			"bufferView":9,
			"componentType":5126,
			"count":1202,
			"type":"VEC3"
		},
		{
			"bufferView":10,
			"componentType":5126,
			"count":1202,
			"type":"VEC2"
		},
		{
			"bufferView":11,
			"componentType":5123,
			"count":2256,
			"type":"SCALAR"
		},
		{
			"bufferView":12,
			"componentType":5126,
			"count":36,
			"max":[
				-249.99940490722656,
				670.098876953125,
				-1290.0001220703125
			],
			"min":[
				-999.9998779296875,
				-670.10302734375,
				-1670.0006103515625
			],
			"type":"VEC3"
		},
		{
			"bufferView":13,
			"componentType":5126,
			"count":36,
			"type":"VEC3"
		},
		{
			"bufferView":14,
			"componentType":5126,
			"count":36,
			"type":"VEC2"
		},
		{
			"bufferView":15,
			"componentType":5123,
			"count":90,
			"type":"SCALAR"
		},
		{
			"bufferView":16,
			"componentType":5126,
			"count":32,
			"max":[
				-2247.901123046875,
				524.3079223632812,
				-968.0004272460938
			],
			"min":[
				-2247.901123046875,
				-524.3079223632812,
				-1208.0003662109375
			],
			"type":"VEC3"
		},
		{
			"bufferView":17,
			"componentType":5126,
			"count":32,
			"type":"VEC3"
		},
		{
			"bufferView":18,
			"componentType":5126,
			"count":32,
			"type":"VEC2"
		},
		{
			"bufferView":19,
			"componentType":5123,
			"count":84,
			"type":"SCALAR"
		},
		{
			"bufferView":20,
			"componentType":5126,
			"count":26,
			"max":[
				-2174.99951171875,
				200.6495819091797,
				-605.7796630859375
			],
			"min":[
				-2174.999755859375,
				-195.64488220214844,
				-1225.80810546875
			],
			"type":"VEC3"
		},
		{
			"bufferView":21,
			"componentType":5126,
			"count":26,
			"type":"VEC3"
		},
		{
			"bufferView":22,
			"componentType":5126,
			"count":26,
			"type":"VEC2"
		},
		{
			"bufferView":23,
			"componentType":5123,
			"count":66,
			"type":"SCALAR"
		}
	],
	"bufferViews":[
		{
			"buffer":0,
			"byteLength":82884,
			"byteOffset":0,
			"target":34962
		},
		{
			"buffer":0,
			"byteLength":82884,
			"byteOffset":82884,
			"target":34962
		},
		{
			"buffer":0,
			"byteLength":55256,
			"byteOffset":165768,
			"target":34962
		},
		{
			"buffer":0,
			"byteLength":23472,
			"byteOffset":221024,
			"target":34963
		},
		{
			"buffer":0,
			"byteLength":576,
			"byteOffset":244496,
			"target":34962
		},
		{
			"buffer":0,
			"byteLength":576,
			"byteOffset":245072,
			"target":34962
		},
		{
			"buffer":0,
			"byteLength":384,
			"byteOffset":245648,
			"target":34962
		},
		{
			"buffer":0,
			"byteLength":180,
			"byteOffset":246032,
			"target":34963
		},
		{
			"buffer":0,
			"byteLength":14424,
			"byteOffset":246212,
			"target":34962
		},
		{
			"buffer":0,
			"byteLength":14424,
			"byteOffset":260636,
			"target":34962
		},
		{
			"buffer":0,
			"byteLength":9616,
			"byteOffset":275060,
			"target":34962
		},
		{
			"buffer":0,
			"byteLength":4512,
			"byteOffset":284676,
			"target":34963
		},
		{
			"buffer":0,
			"byteLength":432,
			"byteOffset":289188,
			"target":34962
		},
		{
			"buffer":0,
			"byteLength":432,
			"byteOffset":289620,
			"target":34962
		},
		{
			"buffer":0,
			"byteLength":288,
			"byteOffset":290052,
			"target":34962
		},
		{
			"buffer":0,
			"byteLength":180,
			"byteOffset":290340,
			"target":34963
		},
		{
			"buffer":0,
			"byteLength":384,
			"byteOffset":290520,
			"target":34962
		},
		{
			"buffer":0,
			"byteLength":384,
			"byteOffset":290904,
			"target":34962
		},
		{
			"buffer":0,
			"byteLength":256,
			"byteOffset":291288,
			"target":34962
		},
		{
			"buffer":0,
			"byteLength":168,
			"byteOffset":291544,
			"target":34963
		},
		{
			"buffer":0,
			"byteLength":312,
			"byteOffset":291712,
			"target":34962
		},
		{
			"buffer":0,
			"byteLength":312,
			"byteOffset":292024,
			"target":34962
		},
		{
			"buffer":0,
			"byteLength":208,
			"byteOffset":292336,
			"target":34962
		},
		{
			"buffer":0,
			"byteLength":132,
			"byteOffset":292544,
			"target":34963
		}
	],
	"buffers":[
		{
			"byteLength":292676,
			"uri":"data:application/octet-stream;base64,"
		}
	]
}
