{
	"asset":{
		"generator":"Khronos glTF Blender I/O v3.6.27",
		"version":"2.0"
	},
	"extensionsUsed":[
		"KHR_materials_specular",
		"KHR_materials_ior"
	],
	"scene":0,
	"scenes":[
		{
			"name":"Scene",
			"nodes":[
				0,
				1,
				2,
				3
			]
		}
	],
	"nodes":[
		{
			"mesh":0,
			"name":"Cube",
			"rotation":[
				0,
				0,
				0.14507225155830383,
				0.9894210696220398
			],
			"scale":[
				0.1068878099322319,
				1.983114242553711,
				2.6688289642333984
			]
		},
		{
			"mesh":1,
			"name":"Cube.001",
			"scale":[
				0.15961268544197083,
				0.15961268544197083,
				0.15961268544197083
			],
			"translation":[
				-0.17555329203605652,
				0,
				1.5582237243652344
			]
		},
		{
			"mesh":2,
			"name":"Cube.002",
			"rotation":[
				0,
				0,
				0.1316375732421875,
				0.9912980198860168
			],
			"scale":[
				0.23188209533691406,
				0.23188209533691406,
				0.23188209533691406
			],
			"translation":[
				-0.7025936841964722,
				1.9748679399490356,
				0
			]
		},
		{
			"mesh":3,
			"name":"Cube.003",
			"rotation":[
				0,
				0,
				0.13481734693050385,
				0.990870475769043
			],
			"scale":[
				0.08255784213542938,
				0.15079596638679504,
				0.15079596638679504
			],
			"translation":[
				0.29436635971069336,
				-0.6954472661018372,
				1.5042338371276855
			]
		}
	],
	"materials":[
		{
			"doubleSided":true,
			"extensions":{
				"KHR_materials_specular":{
					"specularColorFactor":[
						0,
						0,
						0
					]
				},
				"KHR_materials_ior":{
					"ior":1.4500000476837158
				}
			},
			"name":"Material",
			"pbrMetallicRoughness":{
				"baseColorFactor":[
					0.25294268131256104,
					0.18532699346542358,
					0.12468591332435608,
					1
				],
				"metallicFactor":0,
				"roughnessFactor":0
			}
		},
		{
			"doubleSided":true,
			"extensions":{
				"KHR_materials_specular":{
					"specularColorFactor":[
						0,
						0,
						0
					]
				},
				"KHR_materials_ior":{
					"ior":1.4500000476837158
				}
			},
			"name":"Material.001",
			"pbrMetallicRoughness":{
				"baseColorFactor":[
					0.7742707133293152,
					0.6811838746070862,
					0.6605509519577026,
					1
				],
				"metallicFactor":0,
				"roughnessFactor":0
			}
		},
		{
			"doubleSided":true,
			"extensions":{
				"KHR_materials_specular":{
					"specularColorFactor":[
						0,
						0,
						0
					]
				},
				"KHR_materials_ior":{
					"ior":1.4500000476837158
				}
			},
			"name":"Material.002",
			"pbrMetallicRoughness":{
				"baseColorFactor":[
					0.18446926772594452,
					0.18446926772594452,
					0.18446926772594452,
					1
				],
				"metallicFactor":0,
				"roughnessFactor":0
			}
		},
		{
			"doubleSided":true,
			"extensions":{
				"KHR_materials_specular":{
					"specularColorFactor":[
						0,
						0,
						0
					]
				},
				"KHR_materials_ior":{
					"ior":1.4500000476837158
				}
			},
			"name":"Material.003",
			"pbrMetallicRoughness":{
				"baseColorFactor":[
					0.05221741646528244,
					0.05221741646528244,
					0.05221741646528244,
					1
				],
				"metallicFactor":0,
				"roughnessFactor":0
			}
		}
	],
	"meshes":[
		{
			"name":"Cube",
			"primitives":[
				{
					"attributes":{
						"POSITION":0,
						"NORMAL":1,
						"TEXCOORD_0":2
					},
					"indices":3,
					"material":0
				},
				{
					"attributes":{
						"POSITION":4,
						"NORMAL":5,
						"TEXCOORD_0":6
					},
					"indices":7,
					"material":1
				}
			]
		},
		{
			"name":"Cube.001",
			"primitives":[
				{
					"attributes":{
						"POSITION":8,
						"NORMAL":9,
						"TEXCOORD_0":10
					},
					"indices":11,
					"material":2
				}
			]
		},
		{
			"name":"Cube.003",
			"primitives":[
				{
					"attributes":{
						"POSITION":12,
						"NORMAL":13,
						"TEXCOORD_0":14
					},
					"indices":15,
					"material":2
				},
				{
					"attributes":{
						"POSITION":16,
						"NORMAL":17,
						"TEXCOORD_0":18
					},
					"indices":19,
					"material":3
				}
			]
		},
		{
			"name":"Cube.004",
			"primitives":[
				{
					"attributes":{
						"POSITION":20,
						"NORMAL":21,
						"TEXCOORD_0":22
					},
					"indices":23,
					"material":2
				},
				{
					"attributes":{
						"POSITION":24,
						"NORMAL":25,
						"TEXCOORD_0":26
					},
					"indices":27,
					"material":3
				}
			]
		}
	],
	"accessors":[
		{
			"bufferView":0,
			"componentType":5126,
			"count":28,
			"max":[
				1,
				1,
				1
			],
			"min":[
				-1,
				-1,
				-1
			],
			"type":"VEC3"
		},
		{
			"bufferView":1,
			"componentType":5126,
			"count":28,
			"type":"VEC3"
		},
		{
			"bufferView":2,
			"componentType":5126,
			"count":28,
			"type":"VEC2"
		},
		{
			"bufferView":3,
			"componentType":5123,
			"count":54,
			"type":"SCALAR"
		},
		{
			"bufferView":4,
			"componentType":5126,
			"count":4,
			"max":[
				0.9999999403953552,
				0.7998834252357483,
				0.7998834848403931
			],
			"min":[
				0.9999999403953552,
				-0.7998834252357483,
				-0.7998834848403931
			],
			"type":"VEC3"
		},
		{
			"bufferView":5,
			"componentType":5126,
			"count":4,
			"type":"VEC3"
		},
		{
			"bufferView":6,
			"componentType":5126,
			"count":4,
			"type":"VEC2"
		},
		{
			"bufferView":7,
			"componentType":5123,
			"count":6,
			"type":"SCALAR"
		},
		{
			"bufferView":8,
			"componentType":5126,
			"count":176,
			"max":[
				9.241366386413574,
				1,
				1
			],
			"min":[
				-9.3425874710083,
				-28.602752685546875,
				-20.006465911865234
			],
			"type":"VEC3"
		},
		{
			"bufferView":9,
			"componentType":5126,
			"count":176,
			"type":"VEC3"
		},
		{
			"bufferView":10,
			"componentType":5126,
			"count":176,
			"type":"VEC2"
		},
		{
			"bufferView":11,
			"componentType":5123,
			"count":384,
			"type":"SCALAR"
		},
		{
			"bufferView":12,
			"componentType":5126,
			"count":114,
			"max":[
				2.976930856704712,
				1,
				8.94195556640625
			],
			"min":[
				-1,
				-13.981877326965332,
				-7.637434005737305
			],
			"type":"VEC3"
		},
		{
			"bufferView":13,
			"componentType":5126,
			"count":114,
			"type":"VEC3"
		},
		{
			"bufferView":14,
			"componentType":5126,
			"count":114,
			"type":"VEC2"
		},
		{
			"bufferView":15,
			"componentType":5123,
			"count":198,
			"type":"SCALAR"
		},
		{
			"bufferView":16,
			"componentType":5126,
			"count":60,
			"max":[
				2.976930856704712,
				-1,
				8.94195556640625
			],
			"min":[
				2.1450538635253906,
				-13.981877326965332,
				4.688116073608398
			],
			"type":"VEC3"
		},
		{
			"bufferView":17,
			"componentType":5126,
			"count":60,
			"type":"VEC3"
		},
		{
			"bufferView":18,
			"componentType":5126,
			"count":60,
			"type":"VEC2"
		},
		{
			"bufferView":19,
			"componentType":5123,
			"count":90,
			"type":"SCALAR"
		},
		{
			"bufferView":20,
			"componentType":5126,
			"count":27,
			"max":[
				2.3740029335021973,
				8.743912696838379,
				1
			],
			"min":[
				-1,
				-1,
				-15.199423789978027
			],
			"type":"VEC3"
		},
		{
			"bufferView":21,
			"componentType":5126,
			"count":27,
			"type":"VEC3"
		},
		{
			"bufferView":22,
			"componentType":5126,
			"count":27,
			"type":"VEC2"
		},
		{
			"bufferView":23,
			"componentType":5123,
			"count":48,
			"type":"SCALAR"
		},
		{
			"bufferView":24,
			"componentType":5126,
			"count":34,
			"max":[
				2.3740029335021973,
				8.743912696838379,
				1
			],
			"min":[
				-1,
				-1,
				-15.199423789978027
			],
			"type":"VEC3"
		},
		{
			"bufferView":25,
			"componentType":5126,
			"count":34,
			"type":"VEC3"
		},
		{
			"bufferView":26,
			"componentType":5126,
			"count":34,
			"type":"VEC2"
		},
		{
			"bufferView":27,
			"componentType":5123,
			"count":60,
			"type":"SCALAR"
		}
	],
	"bufferViews":[
		{
			"buffer":0,
			"byteLength":336,
			"byteOffset":0,
			"target":34962
		},
		{
			"buffer":0,
			"byteLength":336,
			"byteOffset":336,
			"target":34962
		},
		{
			"buffer":0,
			"byteLength":224,
			"byteOffset":672,
			"target":34962
		},
		{
			"buffer":0,
			"byteLength":108,
			"byteOffset":896,
			"target":34963
		},
		{
			"buffer":0,
			"byteLength":48,
			"byteOffset":1004,
			"target":34962
		},
		{
			"buffer":0,
			"byteLength":48,
			"byteOffset":1052,
			"target":34962
		},
		{
			"buffer":0,
			"byteLength":32,
			"byteOffset":1100,
			"target":34962
		},
		{
			"buffer":0,
			"byteLength":12,
			"byteOffset":1132,
			"target":34963
		},
		{
			"buffer":0,
			"byteLength":2112,
			"byteOffset":1144,
			"target":34962
		},
		{
			"buffer":0,
			"byteLength":2112,
			"byteOffset":3256,
			"target":34962
		},
		{
			"buffer":0,
			"byteLength":1408,
			"byteOffset":5368,
			"target":34962
		},
		{
			"buffer":0,
			"byteLength":768,
			"byteOffset":6776,
			"target":34963
		},
		{
			"buffer":0,
			"byteLength":1368,
			"byteOffset":7544,
			"target":34962
		},
		{
			"buffer":0,
			"byteLength":1368,
			"byteOffset":8912,
			"target":34962
		},
		{
			"buffer":0,
			"byteLength":912,
			"byteOffset":10280,
			"target":34962
		},
		{
			"buffer":0,
			"byteLength":396,
			"byteOffset":11192,
			"target":34963
		},
		{
			"buffer":0,
			"byteLength":720,
			"byteOffset":11588,
			"target":34962
		},
		{
			"buffer":0,
			"byteLength":720,
			"byteOffset":12308,
			"target":34962
		},
		{
			"buffer":0,
			"byteLength":480,
			"byteOffset":13028,
			"target":34962
		},
		{
			"buffer":0,
			"byteLength":180,
			"byteOffset":13508,
			"target":34963
		},
		{
			"buffer":0,
			"byteLength":324,
			"byteOffset":13688,
			"target":34962
		},
		{
			"buffer":0,
			"byteLength":324,
			"byteOffset":14012,
			"target":34962
		},
		{
			"buffer":0,
			"byteLength":216,
			"byteOffset":14336,
			"target":34962
		},
		{
			"buffer":0,
			"byteLength":96,
			"byteOffset":14552,
			"target":34963
		},
		{
			"buffer":0,
			"byteLength":408,
			"byteOffset":14648,
			"target":34962
		},
		{
			"buffer":0,
			"byteLength":408,
			"byteOffset":15056,
			"target":34962
		},
		{
			"buffer":0,
			"byteLength":272,
			"byteOffset":15464,
			"target":34962
		},
		{
			"buffer":0,
			"byteLength":120,
			"byteOffset":15736,
			"target":34963
		}
	],
	"buffers":[
		{
			"byteLength":15856,
			"uri":"data:application/octet-stream;base64,"
		}
	]
}
