{
	"asset":{
		"generator":"Khronos glTF Blender I/O v3.6.27",
		"version":"2.0"
	},
	"extensionsUsed":[
		"KHR_materials_specular",
		"KHR_materials_ior"
	],
	"scene":0,
	"scenes":[
		{
			"name":"Scene",
			"nodes":[
				0,
				1,
				2,
				3,
				4,
				5,
				6,
				7,
				8
			]
		}
	],
	"nodes":[
		{
			"mesh":0,
			"name":"Cube",
			"rotation":[
				0,
				-0.16946354508399963,
				0,
				0.9855364561080933
			],
			"scale":[
				1,
				1,
				2.138842821121216
			],
			"translation":[
				-0.803034245967865,
				0,
				-0.4240534007549286
			]
		},
		{
			"mesh":1,
			"name":"Cube.001",
			"scale":[
				1,
				1,
				2.138842821121216
			],
			"translation":[
				0,
				0,
				-4.637749195098877
			]
		},
		{
			"mesh":2,
			"name":"Cube.002",
			"scale":[
				1,
				1,
				2.138842821121216
			],
			"translation":[
				0,
				0,
				-8.996121406555176
			]
		},
		{
			"mesh":3,
			"name":"Cube.003",
			"scale":[
				1,
				1,
				2.138842821121216
			],
			"translation":[
				0,
				1.891491174697876,
				-6.972046375274658
			]
		},
		{
			"mesh":4,
			"name":"Cube.004",
			"rotation":[
				0,
				-0.09683077782392502,
				0,
				0.9953008890151978
			],
			"scale":[
				1,
				1,
				2.138842821121216
			],
			"translation":[
				-0.1839657723903656,
				1.891491174697876,
				-2.7583506107330322
			]
		},
		{
			"mesh":5,
			"name":"Cube.005",
			"rotation":[
				0,
				0.16459223628044128,
				0,
				0.9863616824150085
			],
			"scale":[
				1,
				1,
				2.138842821121216
			],
			"translation":[
				-0.7524864673614502,
				0,
				-13.160655975341797
			]
		},
		{
			"mesh":6,
			"name":"Cube.006",
			"rotation":[
				0,
				0.09717244654893875,
				0,
				0.9952675700187683
			],
			"scale":[
				1,
				1,
				2.138842821121216
			],
			"translation":[
				-0.24916212260723114,
				1.891491174697876,
				-11.191574096679688
			]
		},
		{
			"mesh":7,
			"name":"Cube.007",
			"rotation":[
				0,
				-0.0503014475107193,
				0,
				0.9987341165542603
			],
			"scale":[
				1,
				1,
				2.138842821121216
			],
			"translation":[
				0,
				3.7509326934814453,
				-5.130932807922363
			]
		},
		{
			"mesh":8,
			"name":"Cube.008",
			"rotation":[
				0,
				0.04383869469165802,
				0,
				0.9990386366844177
			],
			"scale":[
				1,
				1,
				2.138842821121216
			],
			"translation":[
				0,
				3.7509326934814453,
				-9.344629287719727
			]
		}
	],
	"materials":[
		{
			"doubleSided":true,
			"extensions":{
				"KHR_materials_specular":{
					"specularColorFactor":[
						0,
						0,
						0
					]
				},
				"KHR_materials_ior":{
					"ior":1.4500000476837158
				}
			},
			"name":"Material.004",
			"pbrMetallicRoughness":{
				"baseColorFactor":[
					0.4200241267681122,
					0.38153761625289917,
					0.2787739336490631,
					1
				],
				"metallicFactor":0,
				"roughnessFactor":0
			}
		}
	],
	"meshes":[
		{
			"name":"Cube.001",
			"primitives":[
				{
					"attributes":{
						"POSITION":0,
						"NORMAL":1,
						"TEXCOORD_0":2
					},
					"indices":3,
					"material":0
				}
			]
		},
		{
			"name":"Cube.002",
			"primitives":[
				{
					"attributes":{
						"POSITION":4,
						"NORMAL":5,
						"TEXCOORD_0":6
					},
					"indices":3,
					"material":0
				}
			]
		},
		{
			"name":"Cube.003",
			"primitives":[
				{
					"attributes":{
						"POSITION":7,
						"NORMAL":8,
						"TEXCOORD_0":9
					},
					"indices":3,
					"material":0
				}
			]
		},
		{
			"name":"Cube.004",
			"primitives":[
				{
					"attributes":{
						"POSITION":10,
						"NORMAL":11,
						"TEXCOORD_0":12
					},
					"indices":3,
					"material":0
				}
			]
		},
		{
			"name":"Cube.005",
			"primitives":[
				{
					"attributes":{
						"POSITION":13,
						"NORMAL":14,
						"TEXCOORD_0":15
					},
					"indices":3,
					"material":0
				}
			]
		},
		{
			"name":"Cube.006",
			"primitives":[
				{
					"attributes":{
						"POSITION":16,
						"NORMAL":17,
						"TEXCOORD_0":18
					},
					"indices":3,
					"material":0
				}
			]
		},
		{
			"name":"Cube.007",
			"primitives":[
				{
					"attributes":{
						"POSITION":19,
						"NORMAL":20,
						"TEXCOORD_0":21
					},
					"indices":3,
					"material":0
				}
			]
		},
		{
			"name":"Cube.008",
			"primitives":[
				{
					"attributes":{
						"POSITION":22,
						"NORMAL":23,
						"TEXCOORD_0":24
					},
					"indices":3,
					"material":0
				}
			]
		},
		{
			"name":"Cube.009",
			"primitives":[
				{
					"attributes":{
						"POSITION":25,
						"NORMAL":26,
						"TEXCOORD_0":27
					},
					"indices":3,
					"material":0
				}
			]
		}
	],
	"accessors":[
		{
			"bufferView":0,
			"componentType":5126,
			"count":152,
			"max":[
				0.9949160814285278,
				0.9928191304206848,
				0.9961956739425659
			],
			"min":[
				-0.9928591251373291,
				-0.993054211139679,
				-0.996332049369812
			],
			"type":"VEC3"
		},
		{
			"bufferView":1,
			"componentType":5126,
			"count":152,
			"type":"VEC3"
		},
		{
			"bufferView":2,
			"componentType":5126,
			"count":152,
			"type":"VEC2"
		},
		{
			"bufferView":3,
			"componentType":5123,
			"count":642,
			"type":"SCALAR"
		},
		{
			"bufferView":4,
			"componentType":5126,
			"count":152,
			"max":[
				0.9949160814285278,
				0.9928191304206848,
				0.9961956739425659
			],
			"min":[
				-0.9928591251373291,
				-0.993054211139679,
				-0.996332049369812
			],
			"type":"VEC3"
		},
		{
			"bufferView":5,
			"componentType":5126,
			"count":152,
			"type":"VEC3"
		},
		{
			"bufferView":6,
			"componentType":5126,
			"count":152,
			"type":"VEC2"
		},
		{
			"bufferView":7,
			"componentType":5126,
			"count":152,
			"max":[
				0.9949160814285278,
				0.9928191304206848,
				0.9961956739425659
			],
			"min":[
				-0.9928591251373291,
				-0.993054211139679,
				-0.996332049369812
			],
			"type":"VEC3"
		},
		{
			"bufferView":8,
			"componentType":5126,
			"count":152,
			"type":"VEC3"
		},
		{
			"bufferView":9,
			"componentType":5126,
			"count":152,
			"type":"VEC2"
		},
		{
			"bufferView":10,
			"componentType":5126,
			"count":152,
			"max":[
				0.9949160814285278,
				0.9928191304206848,
				0.9961956739425659
			],
			"min":[
				-0.9928591251373291,
				-0.993054211139679,
				-0.996332049369812
			],
			"type":"VEC3"
		},
		{
			"bufferView":11,
			"componentType":5126,
			"count":152,
			"type":"VEC3"
		},
		{
			"bufferView":12,
			"componentType":5126,
			"count":152,
			"type":"VEC2"
		},
		{
			"bufferView":13,
			"componentType":5126,
			"count":152,
			"max":[
				0.9949160814285278,
				0.9928191304206848,
				0.9961956739425659
			],
			"min":[
				-0.9928591251373291,
				-0.993054211139679,
				-0.996332049369812
			],
			"type":"VEC3"
		},
		{
			"bufferView":14,
			"componentType":5126,
			"count":152,
			"type":"VEC3"
		},
		{
			"bufferView":15,
			"componentType":5126,
			"count":152,
			"type":"VEC2"
		},
		{
			"bufferView":16,
			"componentType":5126,
			"count":152,
			"max":[
				0.9949160814285278,
				0.9928191304206848,
				0.9961956739425659
			],
			"min":[
				-0.9928591251373291,
				-0.993054211139679,
				-0.996332049369812
			],
			"type":"VEC3"
		},
		{
			"bufferView":17,
			"componentType":5126,
			"count":152,
			"type":"VEC3"
		},
		{
			"bufferView":18,
			"componentType":5126,
			"count":152,
			"type":"VEC2"
		},
		{
			"bufferView":19,
			"componentType":5126,
			"count":152,
			"max":[
				0.9949160814285278,
				0.9928191304206848,
				0.9961956739425659
			],
			"min":[
				-0.9928591251373291,
				-0.993054211139679,
				-0.996332049369812
			],
			"type":"VEC3"
		},
		{
			"bufferView":20,
			"componentType":5126,
			"count":152,
			"type":"VEC3"
		},
		{
			"bufferView":21,
			"componentType":5126,
			"count":152,
			"type":"VEC2"
		},
		{
			"bufferView":22,
			"componentType":5126,
			"count":152,
			"max":[
				0.9949160814285278,
				0.9928191304206848,
				0.9961956739425659
			],
			"min":[
				-0.9928591251373291,
				-0.993054211139679,
				-0.996332049369812
			],
			"type":"VEC3"
		},
		{
			"bufferView":23,
			"componentType":5126,
			"count":152,
			"type":"VEC3"
		},
		{
			"bufferView":24,
			"componentType":5126,
			"count":152,
			"type":"VEC2"
		},
		{
			"bufferView":25,
			"componentType":5126,
			"count":152,
			"max":[
				0.9949160814285278,
				0.9928191304206848,
				0.9961956739425659
			],
			"min":[
				-0.9928591251373291,
				-0.993054211139679,
				-0.996332049369812
			],
			"type":"VEC3"
		},
		{
			"bufferView":26,
			"componentType":5126,
			"count":152,
			"type":"VEC3"
		},
		{
			"bufferView":27,
			"componentType":5126,
			"count":152,
			"type":"VEC2"
		}
	],
	"bufferViews":[
		{
			"buffer":0,
			"byteLength":1824,
			"byteOffset":0,
			"target":34962
		},
		{
			"buffer":0,
			"byteLength":1824,
			"byteOffset":1824,
			"target":34962
		},
		{
			"buffer":0,
			"byteLength":1216,
			"byteOffset":3648,
			"target":34962
		},
		{
			"buffer":0,
			"byteLength":1284,
			"byteOffset":4864,
			"target":34963
		},
		{
			"buffer":0,
			"byteLength":1824,
			"byteOffset":6148,
			"target":34962
		},
		{
			"buffer":0,
			"byteLength":1824,
			"byteOffset":7972,
			"target":34962
		},
		{
			"buffer":0,
			"byteLength":1216,
			"byteOffset":9796,
			"target":34962
		},
		{
			"buffer":0,
			"byteLength":1824,
			"byteOffset":11012,
			"target":34962
		},
		{
			"buffer":0,
			"byteLength":1824,
			"byteOffset":12836,
			"target":34962
		},
		{
			"buffer":0,
			"byteLength":1216,
			"byteOffset":14660,
			"target":34962
		},
		{
			"buffer":0,
			"byteLength":1824,
			"byteOffset":15876,
			"target":34962
		},
		{
			"buffer":0,
			"byteLength":1824,
			"byteOffset":17700,
			"target":34962
		},
		{
			"buffer":0,
			"byteLength":1216,
			"byteOffset":19524,
			"target":34962
		},
		{
			"buffer":0,
			"byteLength":1824,
			"byteOffset":20740,
			"target":34962
		},
		{
			"buffer":0,
			"byteLength":1824,
			"byteOffset":22564,
			"target":34962
		},
		{
			"buffer":0,
			"byteLength":1216,
			"byteOffset":24388,
			"target":34962
		},
		{
			"buffer":0,
			"byteLength":1824,
			"byteOffset":25604,
			"target":34962
		},
		{
			"buffer":0,
			"byteLength":1824,
			"byteOffset":27428,
			"target":34962
		},
		{
			"buffer":0,
			"byteLength":1216,
			"byteOffset":29252,
			"target":34962
		},
		{
			"buffer":0,
			"byteLength":1824,
			"byteOffset":30468,
			"target":34962
		},
		{
			"buffer":0,
			"byteLength":1824,
			"byteOffset":32292,
			"target":34962
		},
		{
			"buffer":0,
			"byteLength":1216,
			"byteOffset":34116,
			"target":34962
		},
		{
			"buffer":0,
			"byteLength":1824,
			"byteOffset":35332,
			"target":34962
		},
		{
			"buffer":0,
			"byteLength":1824,
			"byteOffset":37156,
			"target":34962
		},
		{
			"buffer":0,
			"byteLength":1216,
			"byteOffset":38980,
			"target":34962
		},
		{
			"buffer":0,
			"byteLength":1824,
			"byteOffset":40196,
			"target":34962
		},
		{
			"buffer":0,
			"byteLength":1824,
			"byteOffset":42020,
			"target":34962
		},
		{
			"buffer":0,
			"byteLength":1216,
			"byteOffset":43844,
			"target":34962
		}
	],
	"buffers":[
		{
			"byteLength":45060,
			"uri":"data:application/octet-stream;base64,"
		}
	]
}
