{
	"asset":{
		"generator":"Khronos glTF Blender I/O v3.6.27",
		"version":"2.0"
	},
	"extensionsUsed":[
		"KHR_materials_specular",
		"KHR_materials_ior"
	],
	"scene":0,
	"scenes":[
		{
			"name":"Scene",
			"nodes":[
				0,
				1
			]
		}
	],
	"nodes":[
		{
			"mesh":0,
			"name":"Cube",
			"scale":[
				0.9256100058555603,
				0.23186272382736206,
				0.23186272382736206
			]
		},
		{
			"mesh":1,
			"name":"Circle",
			"rotation":[
				0,
				0,
				-0.7071068286895752,
				0.7071068286895752
			],
			"scale":[
				0.3750208020210266,
				0.3750208020210266,
				0.3750208020210266
			],
			"translation":[
				3.2840027809143066,
				0,
				0
			]
		}
	],
	"materials":[
		{
			"doubleSided":true,
			"extensions":{
				"KHR_materials_specular":{
					"specularColorFactor":[
						0,
						0,
						0
					]
				},
				"KHR_materials_ior":{
					"ior":1.4500000476837158
				}
			},
			"name":"Material",
			"pbrMetallicRoughness":{
				"baseColorFactor":[
					0.09335337579250336,
					0.1065324917435646,
					0.05487343296408653,
					1
				],
				"metallicFactor":0,
				"roughnessFactor":0
			}
		},
		{
			"doubleSided":true,
			"extensions":{
				"KHR_materials_specular":{
					"specularColorFactor":[
						0,
						0,
						0
					]
				},
				"KHR_materials_ior":{
					"ior":1.4500000476837158
				}
			},
			"name":"Material.001",
			"pbrMetallicRoughness":{
				"baseColorFactor":[
					0.0978471040725708,
					0.2490995079278946,
					0.32637545466423035,
					1
				],
				"metallicFactor":0,
				"roughnessFactor":0
			}
		},
		{
			"doubleSided":true,
			"extensions":{
				"KHR_materials_specular":{
					"specularColorFactor":[
						0,
						0,
						0
					]
				},
				"KHR_materials_ior":{
					"ior":1.4500000476837158
				}
			},
			"name":"Material.002",
			"pbrMetallicRoughness":{
				"baseColorFactor":[
					0.013396640308201313,
					0.010864760726690292,
					0.008197106420993805,
					1
				],
				"metallicFactor":0,
				"roughnessFactor":0
			}
		}
	],
	"meshes":[
		{
			"name":"Cube",
			"primitives":[
				{
					"attributes":{
						"POSITION":0,
						"NORMAL":1,
						"TEXCOORD_0":2
					},
					"indices":3,
					"material":0
				},
				{
					"attributes":{
						"POSITION":4,
						"NORMAL":5,
						"TEXCOORD_0":6
					},
					"indices":7,
					"material":1
				},
				{
					"attributes":{
						"POSITION":8,
						"NORMAL":9,
						"TEXCOORD_0":10
					},
					"indices":11,
					"material":2
				}
			]
		},
		{
			"name":"Circle",
			"primitives":[
				{
					"attributes":{
						"POSITION":12,
						"NORMAL":13,
						"TEXCOORD_0":14
					},
					"indices":15,
					"material":2
				}
			]
		}
	],
	"accessors":[
		{
			"bufferView":0,
			"componentType":5126,
			"count":316,
			"max":[
				3.5936872959136963,
				2.714101552963257,
				12.925738334655762
			],
			"min":[
				-1.886444330215454,
				-1.2357749938964844,
				-12.925738334655762
			],
			"type":"VEC3"
		},
		{
			"bufferView":1,
			"componentType":5126,
			"count":316,
			"type":"VEC3"
		},
		{
			"bufferView":2,
			"componentType":5126,
			"count":316,
			"type":"VEC2"
		},
		{
			"bufferView":3,
			"componentType":5123,
			"count":777,
			"type":"SCALAR"
		},
		{
			"bufferView":4,
			"componentType":5126,
			"count":28,
			"max":[
				2.7080767154693604,
				1.9281418323516846,
				0.5997723340988159
			],
			"min":[
				1.9863543510437012,
				1.3867487907409668,
				-0.5997723340988159
			],
			"type":"VEC3"
		},
		{
			"bufferView":5,
			"componentType":5126,
			"count":28,
			"type":"VEC3"
		},
		{
			"bufferView":6,
			"componentType":5126,
			"count":28,
			"type":"VEC2"
		},
		{
			"bufferView":7,
			"componentType":5123,
			"count":42,
			"type":"SCALAR"
		},
		{
			"bufferView":8,
			"componentType":5126,
			"count":28,
			"max":[
				3.091708183288574,
				0.30817151069641113,
				12.794139862060547
			],
			"min":[
				1.8401086330413818,
				-0.4237358272075653,
				-12.79413890838623
			],
			"type":"VEC3"
		},
		{
			"bufferView":9,
			"componentType":5126,
			"count":28,
			"type":"VEC3"
		},
		{
			"bufferView":10,
			"componentType":5126,
			"count":28,
			"type":"VEC2"
		},
		{
			"bufferView":11,
			"componentType":5123,
			"count":57,
			"type":"SCALAR"
		},
		{
			"bufferView":12,
			"componentType":5126,
			"count":192,
			"max":[
				1,
				0.11496241390705109,
				1
			],
			"min":[
				-1,
				0,
				-1
			],
			"type":"VEC3"
		},
		{
			"bufferView":13,
			"componentType":5126,
			"count":192,
			"type":"VEC3"
		},
		{
			"bufferView":14,
			"componentType":5126,
			"count":192,
			"type":"VEC2"
		},
		{
			"bufferView":15,
			"componentType":5123,
			"count":372,
			"type":"SCALAR"
		}
	],
	"bufferViews":[
		{
			"buffer":0,
			"byteLength":3792,
			"byteOffset":0,
			"target":34962
		},
		{
			"buffer":0,
			"byteLength":3792,
			"byteOffset":3792,
			"target":34962
		},
		{
			"buffer":0,
			"byteLength":2528,
			"byteOffset":7584,
			"target":34962
		},
		{
			"buffer":0,
			"byteLength":1554,
			"byteOffset":10112,
			"target":34963
		},
		{
			"buffer":0,
			"byteLength":336,
			"byteOffset":11668,
			"target":34962
		},
		{
			"buffer":0,
			"byteLength":336,
			"byteOffset":12004,
			"target":34962
		},
		{
			"buffer":0,
			"byteLength":224,
			"byteOffset":12340,
			"target":34962
		},
		{
			"buffer":0,
			"byteLength":84,
			"byteOffset":12564,
			"target":34963
		},
		{
			"buffer":0,
			"byteLength":336,
			"byteOffset":12648,
			"target":34962
		},
		{
			"buffer":0,
			"byteLength":336,
			"byteOffset":12984,
			"target":34962
		},
		{
			"buffer":0,
			"byteLength":224,
			"byteOffset":13320,
			"target":34962
		},
		{
			"buffer":0,
			"byteLength":114,
			"byteOffset":13544,
			"target":34963
		},
		{
			"buffer":0,
			"byteLength":2304,
			"byteOffset":13660,
			"target":34962
		},
		{
			"buffer":0,
			"byteLength":2304,
			"byteOffset":15964,
			"target":34962
		},
		{
			"buffer":0,
			"byteLength":1536,
			"byteOffset":18268,
			"target":34962
		},
		{
			"buffer":0,
			"byteLength":744,
			"byteOffset":19804,
			"target":34963
		}
	],
	"buffers":[
		{
			"byteLength":20548,
			"uri":"data:application/octet-stream;base64,"
		}
	]
}
