{
	"asset":{
		"generator":"Khronos glTF Blender I/O v3.6.27",
		"version":"2.0"
	},
	"extensionsUsed":[
		"KHR_materials_specular",
		"KHR_materials_ior"
	],
	"scene":0,
	"scenes":[
		{
			"name":"Scene",
			"nodes":[
				3
			]
		}
	],
	"nodes":[
		{
			"name":"Object_2"
		},
		{
			"mesh":0,
			"name":"Object_3"
		},
		{
			"children":[
				0,
				1
			],
			"name":"8a6f4764c9794614a453b6a8750aa3ef.obj.cleaner.materialmerger.gle"
		},
		{
			"children":[
				2
			],
			"name":"Sketchfab_model",
			"rotation":[
				-0.7192075252532959,
				0.016307851299643517,
				-0.0020793138537555933,
				0.6946008205413818
			],
			"scale":[
				1.182349681854248,
				1.1823498010635376,
				1.1823498010635376
			],
			"translation":[
				-0.012551193125545979,
				-0.005745798349380493,
				0.012350383214652538
			]
		}
	],
	"materials":[
		{
			"doubleSided":true,
			"extensions":{
				"KHR_materials_specular":{
					"specularColorFactor":[
						0,
						0,
						0
					]
				},
				"KHR_materials_ior":{
					"ior":1.4500000476837158
				}
			},
			"name":"Material",
			"pbrMetallicRoughness":{
				"baseColorFactor":[
					0.1149354875087738,
					0.1149354875087738,
					0.1149354875087738,
					1
				],
				"metallicFactor":0,
				"roughnessFactor":0
			}
		},
		{
			"doubleSided":true,
			"extensions":{
				"KHR_materials_specular":{
					"specularColorFactor":[
						0,
						0,
						0
					]
				},
				"KHR_materials_ior":{
					"ior":1.4500000476837158
				}
			},
			"name":"Material.001",
			"pbrMetallicRoughness":{
				"baseColorFactor":[
					0.1375834196805954,
					0.04414554685354233,
					0.03030363656580448,
					1
				],
				"metallicFactor":0,
				"roughnessFactor":0
			}
		},
		{
			"doubleSided":true,
			"extensions":{
				"KHR_materials_specular":{
					"specularColorFactor":[
						0,
						0,
						0
					]
				},
				"KHR_materials_ior":{
					"ior":1.4500000476837158
				}
			},
			"name":"Material.002",
			"pbrMetallicRoughness":{
				"baseColorFactor":[
					0.05221787095069885,
					0.05221787095069885,
					0.05221787095069885,
					1
				],
				"metallicFactor":0,
				"roughnessFactor":0
			}
		}
	],
	"meshes":[
		{
			"name":"Object_1",
			"primitives":[
				{
					"attributes":{
						"POSITION":0,
						"NORMAL":1,
						"TEXCOORD_0":2
					},
					"indices":3,
					"material":0
				},
				{
					"attributes":{
						"POSITION":4,
						"NORMAL":5,
						"TEXCOORD_0":6
					},
					"indices":7,
					"material":1
				},
				{
					"attributes":{
						"POSITION":8,
						"NORMAL":9,
						"TEXCOORD_0":10
					},
					"indices":11,
					"material":2
				}
			]
		}
	],
	"accessors":[
		{
			"bufferView":0,
			"componentType":5126,
			"count":2655,
			"max":[
				1.5051980018615723,
				0.47194600105285645,
				1.044769048690796
			],
			"min":[
				-2.3171091079711914,
				-0.2121019959449768,
				0.1390639990568161
			],
			"type":"VEC3"
		},
		{
			"bufferView":1,
			"componentType":5126,
			"count":2655,
			"type":"VEC3"
		},
		{
			"bufferView":2,
			"componentType":5126,
			"count":2655,
			"type":"VEC2"
		},
		{
			"bufferView":3,
			"componentType":5123,
			"count":4719,
			"type":"SCALAR"
		},
		{
			"bufferView":4,
			"componentType":5126,
			"count":858,
			"max":[
				-0.20141500234603882,
				0.22410200536251068,
				0.8696119785308838
			],
			"min":[
				-2.323806047439575,
				0.029009999707341194,
				0.12519100308418274
			],
			"type":"VEC3"
		},
		{
			"bufferView":5,
			"componentType":5126,
			"count":858,
			"type":"VEC3"
		},
		{
			"bufferView":6,
			"componentType":5126,
			"count":858,
			"type":"VEC2"
		},
		{
			"bufferView":7,
			"componentType":5123,
			"count":1257,
			"type":"SCALAR"
		},
		{
			"bufferView":8,
			"componentType":5126,
			"count":993,
			"max":[
				1.299010992050171,
				0.46286600828170776,
				1.0217829942703247
			],
			"min":[
				-0.8443859815597534,
				-0.20302200317382812,
				0.1447480022907257
			],
			"type":"VEC3"
		},
		{
			"bufferView":9,
			"componentType":5126,
			"count":993,
			"type":"VEC3"
		},
		{
			"bufferView":10,
			"componentType":5126,
			"count":993,
			"type":"VEC2"
		},
		{
			"bufferView":11,
			"componentType":5123,
			"count":1398,
			"type":"SCALAR"
		}
	],
	"bufferViews":[
		{
			"buffer":0,
			"byteLength":31860,
			"byteOffset":0,
			"target":34962
		},
		{
			"buffer":0,
			"byteLength":31860,
			"byteOffset":31860,
			"target":34962
		},
		{
			"buffer":0,
			"byteLength":21240,
			"byteOffset":63720,
			"target":34962
		},
		{
			"buffer":0,
			"byteLength":9438,
			"byteOffset":84960,
			"target":34963
		},
		{
			"buffer":0,
			"byteLength":10296,
			"byteOffset":94400,
			"target":34962
		},
		{
			"buffer":0,
			"byteLength":10296,
			"byteOffset":104696,
			"target":34962
		},
		{
			"buffer":0,
			"byteLength":6864,
			"byteOffset":114992,
			"target":34962
		},
		{
			"buffer":0,
			"byteLength":2514,
			"byteOffset":121856,
			"target":34963
		},
		{
			"buffer":0,
			"byteLength":11916,
			"byteOffset":124372,
			"target":34962
		},
		{
			"buffer":0,
			"byteLength":11916,
			"byteOffset":136288,
			"target":34962
		},
		{
			"buffer":0,
			"byteLength":7944,
			"byteOffset":148204,
			"target":34962
		},
		{
			"buffer":0,
			"byteLength":2796,
			"byteOffset":156148,
			"target":34963
		}
	],
	"buffers":[
		{
			"byteLength":158944,
			"uri":"data:application/octet-stream;base64,"
		}
	]
}
