{
    "asset" : {
        "generator" : "Khronos glTF Blender I/O v3.4.50",
        "version" : "2.0"
    },
    "extensionsUsed" : [
        "KHR_materials_specular",
        "KHR_materials_ior"
    ],
    "scene" : 0,
    "scenes" : [
        {
            "name" : "Scene",
            "nodes" : [
                0
            ]
        }
    ],
    "nodes" : [
        {
            "mesh" : 0,
            "name" : "Icosphere",
            "scale" : [
                2,
                2,
                2
            ]
        }
    ],
    "materials" : [
        {
            "doubleSided" : true,
            "extensions" : {
                "KHR_materials_specular" : {
                    "specularColorFactor" : [
                        0,
                        0,
                        0
                    ]
                },
                "KHR_materials_ior" : {
                    "ior" : 1.4500000476837158
                }
            },
            "name" : "tree_crone_1",
            "pbrMetallicRoughness" : {
                "baseColorFactor" : [
                    0.10125423222780228,
                    0.15743163228034973,
                    0.04549543187022209,
                    1
                ],
                "metallicFactor" : 0,
                "roughnessFactor" : 0
            }
        }
    ],
    "meshes" : [
        {
            "name" : "Icosphere",
            "primitives" : [
                {
                    "attributes" : {
                        "POSITION" : 0,
                        "TEXCOORD_0" : 1,
                        "NORMAL" : 2
                    },
                    "indices" : 3,
                    "material" : 0
                }
            ]
        }
    ],
    "accessors" : [
        {
            "bufferView" : 0,
            "componentType" : 5126,
            "count" : 240,
            "max" : [
                0.9510578513145447,
                1,
                0.9999999403953552
            ],
            "min" : [
                -0.9510578513145447,
                -1,
                -0.9999999403953552
            ],
            "type" : "VEC3"
        },
        {
            "bufferView" : 1,
            "componentType" : 5126,
            "count" : 240,
            "type" : "VEC2"
        },
        {
            "bufferView" : 2,
            "componentType" : 5126,
            "count" : 240,
            "type" : "VEC3"
        },
        {
            "bufferView" : 3,
            "componentType" : 5123,
            "count" : 240,
            "type" : "SCALAR"
        }
    ],
    "bufferViews" : [
        {
            "buffer" : 0,
            "byteLength" : 2880,
            "byteOffset" : 0,
            "target" : 34962
        },
        {
            "buffer" : 0,
            "byteLength" : 1920,
            "byteOffset" : 2880,
            "target" : 34962
        },
        {
            "buffer" : 0,
            "byteLength" : 2880,
            "byteOffset" : 4800,
            "target" : 34962
        },
        {
            "buffer" : 0,
            "byteLength" : 480,
            "byteOffset" : 7680,
            "target" : 34963
        }
    ],
    "buffers" : [
        {
            "byteLength" : 8160,
            "uri" : "data:application/octet-stream;base64,"
        }
    ]
}
