{
	"asset":{
		"generator":"Khronos glTF Blender I/O v3.6.27",
		"version":"2.0"
	},
	"extensionsUsed":[
		"KHR_materials_specular",
		"KHR_materials_ior"
	],
	"scene":0,
	"scenes":[
		{
			"name":"Scene",
			"nodes":[
				0,
				1,
				2,
				3,
				4,
				5,
				6,
				7,
				8,
				9,
				10,
				11,
				12,
				13,
				14,
				15
			]
		}
	],
	"nodes":[
		{
			"name":"Sun",
			"rotation":[
				-0.347005695104599,
				0.0076614124700427055,
				-0.020700955763459206,
				0.937603235244751
			],
			"translation":[
				4997.20068359375,
				113113.1953125,
				-97109.09375
			]
		},
		{
			"name":"Shadow_Plane",
			"translation":[
				0,
				0,
				-10000
			]
		},
		{
			"mesh":0,
			"name":"Cylinder",
			"scale":[
				1.7377082109451294,
				1.7377082109451294,
				1.7377082109451294
			],
			"translation":[
				0,
				1.7604384422302246,
				0
			]
		},
		{
			"mesh":1,
			"name":"Cylinder.001",
			"scale":[
				1.7377082109451294,
				1.7377082109451294,
				1.7377082109451294
			],
			"translation":[
				-4.259987831115723,
				1.7604384422302246,
				0
			]
		},
		{
			"mesh":2,
			"name":"Cylinder.002",
			"scale":[
				1.7377082109451294,
				1.7377082109451294,
				1.7377082109451294
			],
			"translation":[
				4.351110458374023,
				1.7604384422302246,
				0
			]
		},
		{
			"mesh":3,
			"name":"Cube",
			"scale":[
				1.8400869369506836,
				0.23452377319335938,
				1.8400869369506836
			]
		},
		{
			"mesh":4,
			"name":"Cube.001",
			"scale":[
				1.8400869369506836,
				0.23452377319335938,
				1.8400869369506836
			],
			"translation":[
				4.429233551025391,
				0,
				0
			]
		},
		{
			"mesh":5,
			"name":"Cube.002",
			"scale":[
				1.8400869369506836,
				0.23452377319335938,
				1.8400869369506836
			],
			"translation":[
				-4.307605743408203,
				0,
				0
			]
		},
		{
			"mesh":6,
			"name":"Cube.009",
			"scale":[
				0.19269238412380219,
				0.5845252275466919,
				0.19269238412380219
			],
			"translation":[
				-5.8685173988342285,
				-0.4713863134384155,
				1.5838392972946167
			]
		},
		{
			"mesh":7,
			"name":"Cylinder.003",
			"scale":[
				0.20409029722213745,
				0.5670889019966125,
				0.20409029722213745
			],
			"translation":[
				5.231690406799316,
				-0.5755689740180969,
				2.568645715713501
			]
		},
		{
			"mesh":8,
			"name":"Cylinder.004",
			"rotation":[
				0,
				-1,
				0,
				1.6292068494294654e-07
			],
			"scale":[
				0.20409029722213745,
				0.5670889019966125,
				0.20409029722213745
			],
			"translation":[
				-5.874355792999268,
				-0.5755689740180969,
				2.568645715713501
			]
		},
		{
			"mesh":9,
			"name":"Cylinder.005",
			"rotation":[
				0,
				-1,
				0,
				1.6292068494294654e-07
			],
			"scale":[
				0.20409029722213745,
				0.5670889019966125,
				0.20409029722213745
			],
			"translation":[
				-3.979295492172241,
				-0.5755689740180969,
				3.452803134918213
			]
		},
		{
			"mesh":10,
			"name":"Cylinder.006",
			"scale":[
				0.20409029722213745,
				0.5670889019966125,
				0.20409029722213745
			],
			"translation":[
				2.7962400913238525,
				-0.5755689740180969,
				3.6639161109924316
			]
		},
		{
			"mesh":11,
			"name":"Cylinder.007",
			"scale":[
				0.20409029722213745,
				0.5670889019966125,
				0.20409029722213745
			],
			"translation":[
				1.9287283420562744,
				-0.5755689740180969,
				4.503559589385986
			]
		},
		{
			"mesh":12,
			"name":"Cube.015",
			"scale":[
				1,
				1,
				0.7328295111656189
			],
			"translation":[
				-0.4748237431049347,
				0,
				3.9653055667877197
			]
		},
		{
			"mesh":13,
			"name":"Cube.016",
			"scale":[
				3.2258424758911133,
				1,
				0.4079565703868866
			],
			"translation":[
				-0.4748237431049347,
				0,
				2.5393142700195312
			]
		}
	],
	"materials":[
		{
			"doubleSided":true,
			"extensions":{
				"KHR_materials_specular":{
					"specularColorFactor":[
						0,
						0,
						0
					]
				},
				"KHR_materials_ior":{
					"ior":1.4500000476837158
				}
			},
			"name":"Material.018",
			"pbrMetallicRoughness":{
				"baseColorFactor":[
					0.25294220447540283,
					0.25294220447540283,
					0.25294220447540283,
					1
				],
				"metallicFactor":0,
				"roughnessFactor":0
			}
		},
		{
			"doubleSided":true,
			"name":"Material.006",
			"pbrMetallicRoughness":{
				"baseColorFactor":[
					0.15377667546272278,
					0.28743845224380493,
					0.42002278566360474,
					1
				],
				"metallicFactor":0,
				"roughnessFactor":0.5
			}
		},
		{
			"doubleSided":true,
			"name":"Material.003",
			"pbrMetallicRoughness":{
				"baseColorFactor":[
					0.6038163900375366,
					0.3554474711418152,
					0.21794940531253815,
					1
				],
				"metallicFactor":0,
				"roughnessFactor":0.5
			}
		},
		{
			"doubleSided":true,
			"extensions":{
				"KHR_materials_specular":{
					"specularColorFactor":[
						0,
						0,
						0
					]
				},
				"KHR_materials_ior":{
					"ior":1.4500000476837158
				}
			},
			"name":"Material",
			"pbrMetallicRoughness":{
				"baseColorFactor":[
					0.19017641246318817,
					0.07449895143508911,
					0.07152001559734344,
					1
				],
				"metallicFactor":0,
				"roughnessFactor":0
			}
		},
		{
			"doubleSided":true,
			"name":"CAR_04",
			"pbrMetallicRoughness":{
				"baseColorFactor":[
					0.22658294439315796,
					0.22658294439315796,
					0.22658294439315796,
					1
				],
				"metallicFactor":0,
				"roughnessFactor":0.5527864098548889
			}
		},
		{
			"doubleSided":true,
			"extensions":{
				"KHR_materials_specular":{
					"specularColorFactor":[
						0,
						0,
						0
					]
				},
				"KHR_materials_ior":{
					"ior":1.4500000476837158
				}
			},
			"name":"Material.012",
			"pbrMetallicRoughness":{
				"baseColorFactor":[
					0.24619360268115997,
					0.24619360268115997,
					0.24619360268115997,
					1
				],
				"metallicFactor":0,
				"roughnessFactor":0
			}
		}
	],
	"meshes":[
		{
			"name":"Cylinder.012",
			"primitives":[
				{
					"attributes":{
						"POSITION":0,
						"NORMAL":1,
						"TEXCOORD_0":2
					},
					"indices":3,
					"material":0
				},
				{
					"attributes":{
						"POSITION":4,
						"NORMAL":5,
						"TEXCOORD_0":6
					},
					"indices":7,
					"material":1
				}
			]
		},
		{
			"name":"Cylinder.013",
			"primitives":[
				{
					"attributes":{
						"POSITION":8,
						"NORMAL":9,
						"TEXCOORD_0":10
					},
					"indices":3,
					"material":0
				},
				{
					"attributes":{
						"POSITION":11,
						"NORMAL":12,
						"TEXCOORD_0":13
					},
					"indices":7,
					"material":2
				}
			]
		},
		{
			"name":"Cylinder.014",
			"primitives":[
				{
					"attributes":{
						"POSITION":14,
						"NORMAL":15,
						"TEXCOORD_0":16
					},
					"indices":3,
					"material":0
				},
				{
					"attributes":{
						"POSITION":17,
						"NORMAL":18,
						"TEXCOORD_0":19
					},
					"indices":7,
					"material":3
				}
			]
		},
		{
			"name":"Cube.007",
			"primitives":[
				{
					"attributes":{
						"POSITION":20,
						"NORMAL":21,
						"TEXCOORD_0":22
					},
					"indices":23,
					"material":4
				}
			]
		},
		{
			"name":"Cube.008",
			"primitives":[
				{
					"attributes":{
						"POSITION":24,
						"NORMAL":25,
						"TEXCOORD_0":26
					},
					"indices":23,
					"material":4
				}
			]
		},
		{
			"name":"Cube.009",
			"primitives":[
				{
					"attributes":{
						"POSITION":27,
						"NORMAL":28,
						"TEXCOORD_0":29
					},
					"indices":23,
					"material":4
				}
			]
		},
		{
			"name":"Cube.016",
			"primitives":[
				{
					"attributes":{
						"POSITION":30,
						"NORMAL":31,
						"TEXCOORD_0":32
					},
					"indices":33,
					"material":4
				}
			]
		},
		{
			"name":"Cylinder.015",
			"primitives":[
				{
					"attributes":{
						"POSITION":34,
						"NORMAL":35,
						"TEXCOORD_0":36
					},
					"indices":37,
					"material":3
				}
			]
		},
		{
			"name":"Cylinder.016",
			"primitives":[
				{
					"attributes":{
						"POSITION":38,
						"NORMAL":39,
						"TEXCOORD_0":40
					},
					"indices":37,
					"material":3
				}
			]
		},
		{
			"name":"Cylinder.017",
			"primitives":[
				{
					"attributes":{
						"POSITION":41,
						"NORMAL":42,
						"TEXCOORD_0":43
					},
					"indices":37,
					"material":1
				}
			]
		},
		{
			"name":"Cylinder.018",
			"primitives":[
				{
					"attributes":{
						"POSITION":44,
						"NORMAL":45,
						"TEXCOORD_0":46
					},
					"indices":37,
					"material":1
				}
			]
		},
		{
			"name":"Cylinder.019",
			"primitives":[
				{
					"attributes":{
						"POSITION":47,
						"NORMAL":48,
						"TEXCOORD_0":49
					},
					"indices":37,
					"material":3
				}
			]
		},
		{
			"name":"Cube.022",
			"primitives":[
				{
					"attributes":{
						"POSITION":50,
						"NORMAL":51,
						"TEXCOORD_0":52
					},
					"indices":23,
					"material":4
				}
			]
		},
		{
			"name":"Cube.023",
			"primitives":[
				{
					"attributes":{
						"POSITION":53,
						"NORMAL":54,
						"TEXCOORD_0":55
					},
					"indices":23,
					"material":5
				}
			]
		}
	],
	"accessors":[
		{
			"bufferView":0,
			"componentType":5126,
			"count":86,
			"max":[
				0.9510565400123596,
				1.3950130939483643,
				1
			],
			"min":[
				-0.9510565400123596,
				-1,
				-1
			],
			"type":"VEC3"
		},
		{
			"bufferView":1,
			"componentType":5126,
			"count":86,
			"type":"VEC3"
		},
		{
			"bufferView":2,
			"componentType":5126,
			"count":86,
			"type":"VEC2"
		},
		{
			"bufferView":3,
			"componentType":5123,
			"count":288,
			"type":"SCALAR"
		},
		{
			"bufferView":4,
			"componentType":5126,
			"count":22,
			"max":[
				0.9510565400123596,
				0.6055623292922974,
				1
			],
			"min":[
				-0.9510565400123596,
				0.28055939078330994,
				-1
			],
			"type":"VEC3"
		},
		{
			"bufferView":5,
			"componentType":5126,
			"count":22,
			"type":"VEC3"
		},
		{
			"bufferView":6,
			"componentType":5126,
			"count":22,
			"type":"VEC2"
		},
		{
			"bufferView":7,
			"componentType":5123,
			"count":60,
			"type":"SCALAR"
		},
		{
			"bufferView":8,
			"componentType":5126,
			"count":86,
			"max":[
				0.9510565400123596,
				1.3950130939483643,
				1
			],
			"min":[
				-0.9510565400123596,
				-1,
				-1
			],
			"type":"VEC3"
		},
		{
			"bufferView":9,
			"componentType":5126,
			"count":86,
			"type":"VEC3"
		},
		{
			"bufferView":10,
			"componentType":5126,
			"count":86,
			"type":"VEC2"
		},
		{
			"bufferView":11,
			"componentType":5126,
			"count":22,
			"max":[
				0.9510565400123596,
				0.4539186656475067,
				1
			],
			"min":[
				-0.9510565400123596,
				0.21345096826553345,
				-1
			],
			"type":"VEC3"
		},
		{
			"bufferView":12,
			"componentType":5126,
			"count":22,
			"type":"VEC3"
		},
		{
			"bufferView":13,
			"componentType":5126,
			"count":22,
			"type":"VEC2"
		},
		{
			"bufferView":14,
			"componentType":5126,
			"count":86,
			"max":[
				0.9510565400123596,
				1.3950130939483643,
				1
			],
			"min":[
				-0.9510565400123596,
				-1,
				-1
			],
			"type":"VEC3"
		},
		{
			"bufferView":15,
			"componentType":5126,
			"count":86,
			"type":"VEC3"
		},
		{
			"bufferView":16,
			"componentType":5126,
			"count":86,
			"type":"VEC2"
		},
		{
			"bufferView":17,
			"componentType":5126,
			"count":22,
			"max":[
				0.9510565400123596,
				0.2150000035762787,
				1
			],
			"min":[
				-0.9510565400123596,
				-0.18595001101493835,
				-1
			],
			"type":"VEC3"
		},
		{
			"bufferView":18,
			"componentType":5126,
			"count":22,
			"type":"VEC3"
		},
		{
			"bufferView":19,
			"componentType":5126,
			"count":22,
			"type":"VEC2"
		},
		{
			"bufferView":20,
			"componentType":5126,
			"count":24,
			"max":[
				1,
				1,
				1
			],
			"min":[
				-1,
				-1,
				-1
			],
			"type":"VEC3"
		},
		{
			"bufferView":21,
			"componentType":5126,
			"count":24,
			"type":"VEC3"
		},
		{
			"bufferView":22,
			"componentType":5126,
			"count":24,
			"type":"VEC2"
		},
		{
			"bufferView":23,
			"componentType":5123,
			"count":36,
			"type":"SCALAR"
		},
		{
			"bufferView":24,
			"componentType":5126,
			"count":24,
			"max":[
				1,
				1,
				1
			],
			"min":[
				-1,
				-1,
				-1
			],
			"type":"VEC3"
		},
		{
			"bufferView":25,
			"componentType":5126,
			"count":24,
			"type":"VEC3"
		},
		{
			"bufferView":26,
			"componentType":5126,
			"count":24,
			"type":"VEC2"
		},
		{
			"bufferView":27,
			"componentType":5126,
			"count":24,
			"max":[
				1,
				1,
				1
			],
			"min":[
				-1,
				-1,
				-1
			],
			"type":"VEC3"
		},
		{
			"bufferView":28,
			"componentType":5126,
			"count":24,
			"type":"VEC3"
		},
		{
			"bufferView":29,
			"componentType":5126,
			"count":24,
			"type":"VEC2"
		},
		{
			"bufferView":30,
			"componentType":5126,
			"count":288,
			"max":[
				62.60121154785156,
				1.0000001192092896,
				1
			],
			"min":[
				-1,
				-1.0000001192092896,
				-17.332168579101562
			],
			"type":"VEC3"
		},
		{
			"bufferView":31,
			"componentType":5126,
			"count":288,
			"type":"VEC3"
		},
		{
			"bufferView":32,
			"componentType":5126,
			"count":288,
			"type":"VEC2"
		},
		{
			"bufferView":33,
			"componentType":5123,
			"count":432,
			"type":"SCALAR"
		},
		{
			"bufferView":34,
			"componentType":5126,
			"count":46,
			"max":[
				0.9510565400123596,
				2.7340011596679688,
				0.8090192079544067
			],
			"min":[
				-13.832131385803223,
				-1,
				-1
			],
			"type":"VEC3"
		},
		{
			"bufferView":35,
			"componentType":5126,
			"count":46,
			"type":"VEC3"
		},
		{
			"bufferView":36,
			"componentType":5126,
			"count":46,
			"type":"VEC2"
		},
		{
			"bufferView":37,
			"componentType":5123,
			"count":168,
			"type":"SCALAR"
		},
		{
			"bufferView":38,
			"componentType":5126,
			"count":46,
			"max":[
				0.9510565400123596,
				2.7340011596679688,
				0.8090192079544067
			],
			"min":[
				-13.832131385803223,
				-1,
				-1
			],
			"type":"VEC3"
		},
		{
			"bufferView":39,
			"componentType":5126,
			"count":46,
			"type":"VEC3"
		},
		{
			"bufferView":40,
			"componentType":5126,
			"count":46,
			"type":"VEC2"
		},
		{
			"bufferView":41,
			"componentType":5126,
			"count":46,
			"max":[
				0.9510565400123596,
				2.7340011596679688,
				0.8090192079544067
			],
			"min":[
				-13.832131385803223,
				-1,
				-1
			],
			"type":"VEC3"
		},
		{
			"bufferView":42,
			"componentType":5126,
			"count":46,
			"type":"VEC3"
		},
		{
			"bufferView":43,
			"componentType":5126,
			"count":46,
			"type":"VEC2"
		},
		{
			"bufferView":44,
			"componentType":5126,
			"count":46,
			"max":[
				0.9510565400123596,
				2.7340011596679688,
				0.8090192079544067
			],
			"min":[
				-13.832131385803223,
				-1,
				-1
			],
			"type":"VEC3"
		},
		{
			"bufferView":45,
			"componentType":5126,
			"count":46,
			"type":"VEC3"
		},
		{
			"bufferView":46,
			"componentType":5126,
			"count":46,
			"type":"VEC2"
		},
		{
			"bufferView":47,
			"componentType":5126,
			"count":46,
			"max":[
				0.9510565400123596,
				2.7340011596679688,
				0.8090192079544067
			],
			"min":[
				-13.832131385803223,
				-1,
				-1
			],
			"type":"VEC3"
		},
		{
			"bufferView":48,
			"componentType":5126,
			"count":46,
			"type":"VEC3"
		},
		{
			"bufferView":49,
			"componentType":5126,
			"count":46,
			"type":"VEC2"
		},
		{
			"bufferView":50,
			"componentType":5126,
			"count":24,
			"max":[
				1,
				1,
				1
			],
			"min":[
				-1,
				-1,
				-1
			],
			"type":"VEC3"
		},
		{
			"bufferView":51,
			"componentType":5126,
			"count":24,
			"type":"VEC3"
		},
		{
			"bufferView":52,
			"componentType":5126,
			"count":24,
			"type":"VEC2"
		},
		{
			"bufferView":53,
			"componentType":5126,
			"count":24,
			"max":[
				1,
				1,
				1
			],
			"min":[
				-1,
				-1,
				-1
			],
			"type":"VEC3"
		},
		{
			"bufferView":54,
			"componentType":5126,
			"count":24,
			"type":"VEC3"
		},
		{
			"bufferView":55,
			"componentType":5126,
			"count":24,
			"type":"VEC2"
		}
	],
	"bufferViews":[
		{
			"buffer":0,
			"byteLength":1032,
			"byteOffset":0,
			"target":34962
		},
		{
			"buffer":0,
			"byteLength":1032,
			"byteOffset":1032,
			"target":34962
		},
		{
			"buffer":0,
			"byteLength":688,
			"byteOffset":2064,
			"target":34962
		},
		{
			"buffer":0,
			"byteLength":576,
			"byteOffset":2752,
			"target":34963
		},
		{
			"buffer":0,
			"byteLength":264,
			"byteOffset":3328,
			"target":34962
		},
		{
			"buffer":0,
			"byteLength":264,
			"byteOffset":3592,
			"target":34962
		},
		{
			"buffer":0,
			"byteLength":176,
			"byteOffset":3856,
			"target":34962
		},
		{
			"buffer":0,
			"byteLength":120,
			"byteOffset":4032,
			"target":34963
		},
		{
			"buffer":0,
			"byteLength":1032,
			"byteOffset":4152,
			"target":34962
		},
		{
			"buffer":0,
			"byteLength":1032,
			"byteOffset":5184,
			"target":34962
		},
		{
			"buffer":0,
			"byteLength":688,
			"byteOffset":6216,
			"target":34962
		},
		{
			"buffer":0,
			"byteLength":264,
			"byteOffset":6904,
			"target":34962
		},
		{
			"buffer":0,
			"byteLength":264,
			"byteOffset":7168,
			"target":34962
		},
		{
			"buffer":0,
			"byteLength":176,
			"byteOffset":7432,
			"target":34962
		},
		{
			"buffer":0,
			"byteLength":1032,
			"byteOffset":7608,
			"target":34962
		},
		{
			"buffer":0,
			"byteLength":1032,
			"byteOffset":8640,
			"target":34962
		},
		{
			"buffer":0,
			"byteLength":688,
			"byteOffset":9672,
			"target":34962
		},
		{
			"buffer":0,
			"byteLength":264,
			"byteOffset":10360,
			"target":34962
		},
		{
			"buffer":0,
			"byteLength":264,
			"byteOffset":10624,
			"target":34962
		},
		{
			"buffer":0,
			"byteLength":176,
			"byteOffset":10888,
			"target":34962
		},
		{
			"buffer":0,
			"byteLength":288,
			"byteOffset":11064,
			"target":34962
		},
		{
			"buffer":0,
			"byteLength":288,
			"byteOffset":11352,
			"target":34962
		},
		{
			"buffer":0,
			"byteLength":192,
			"byteOffset":11640,
			"target":34962
		},
		{
			"buffer":0,
			"byteLength":72,
			"byteOffset":11832,
			"target":34963
		},
		{
			"buffer":0,
			"byteLength":288,
			"byteOffset":11904,
			"target":34962
		},
		{
			"buffer":0,
			"byteLength":288,
			"byteOffset":12192,
			"target":34962
		},
		{
			"buffer":0,
			"byteLength":192,
			"byteOffset":12480,
			"target":34962
		},
		{
			"buffer":0,
			"byteLength":288,
			"byteOffset":12672,
			"target":34962
		},
		{
			"buffer":0,
			"byteLength":288,
			"byteOffset":12960,
			"target":34962
		},
		{
			"buffer":0,
			"byteLength":192,
			"byteOffset":13248,
			"target":34962
		},
		{
			"buffer":0,
			"byteLength":3456,
			"byteOffset":13440,
			"target":34962
		},
		{
			"buffer":0,
			"byteLength":3456,
			"byteOffset":16896,
			"target":34962
		},
		{
			"buffer":0,
			"byteLength":2304,
			"byteOffset":20352,
			"target":34962
		},
		{
			"buffer":0,
			"byteLength":864,
			"byteOffset":22656,
			"target":34963
		},
		{
			"buffer":0,
			"byteLength":552,
			"byteOffset":23520,
			"target":34962
		},
		{
			"buffer":0,
			"byteLength":552,
			"byteOffset":24072,
			"target":34962
		},
		{
			"buffer":0,
			"byteLength":368,
			"byteOffset":24624,
			"target":34962
		},
		{
			"buffer":0,
			"byteLength":336,
			"byteOffset":24992,
			"target":34963
		},
		{
			"buffer":0,
			"byteLength":552,
			"byteOffset":25328,
			"target":34962
		},
		{
			"buffer":0,
			"byteLength":552,
			"byteOffset":25880,
			"target":34962
		},
		{
			"buffer":0,
			"byteLength":368,
			"byteOffset":26432,
			"target":34962
		},
		{
			"buffer":0,
			"byteLength":552,
			"byteOffset":26800,
			"target":34962
		},
		{
			"buffer":0,
			"byteLength":552,
			"byteOffset":27352,
			"target":34962
		},
		{
			"buffer":0,
			"byteLength":368,
			"byteOffset":27904,
			"target":34962
		},
		{
			"buffer":0,
			"byteLength":552,
			"byteOffset":28272,
			"target":34962
		},
		{
			"buffer":0,
			"byteLength":552,
			"byteOffset":28824,
			"target":34962
		},
		{
			"buffer":0,
			"byteLength":368,
			"byteOffset":29376,
			"target":34962
		},
		{
			"buffer":0,
			"byteLength":552,
			"byteOffset":29744,
			"target":34962
		},
		{
			"buffer":0,
			"byteLength":552,
			"byteOffset":30296,
			"target":34962
		},
		{
			"buffer":0,
			"byteLength":368,
			"byteOffset":30848,
			"target":34962
		},
		{
			"buffer":0,
			"byteLength":288,
			"byteOffset":31216,
			"target":34962
		},
		{
			"buffer":0,
			"byteLength":288,
			"byteOffset":31504,
			"target":34962
		},
		{
			"buffer":0,
			"byteLength":192,
			"byteOffset":31792,
			"target":34962
		},
		{
			"buffer":0,
			"byteLength":288,
			"byteOffset":31984,
			"target":34962
		},
		{
			"buffer":0,
			"byteLength":288,
			"byteOffset":32272,
			"target":34962
		},
		{
			"buffer":0,
			"byteLength":192,
			"byteOffset":32560,
			"target":34962
		}
	],
	"buffers":[
		{
			"byteLength":32752,
			"uri":"data:application/octet-stream;base64,"
		}
	]
}
