{
	"asset":{
		"generator":"Khronos glTF Blender I/O v3.6.27",
		"version":"2.0"
	},
	"scene":0,
	"scenes":[
		{
			"name":"Scene",
			"nodes":[
				0,
				1,
				2
			]
		}
	],
	"nodes":[
		{
			"mesh":0,
			"name":"Circle",
			"rotation":[
				0,
				0,
				-0.7071068286895752,
				0.7071068286895752
			],
			"scale":[
				5.582798004150391,
				5.582798004150391,
				5.582798004150391
			]
		},
		{
			"mesh":1,
			"name":"Cube",
			"scale":[
				1.8750072717666626,
				1.8750072717666626,
				1.8750072717666626
			],
			"translation":[
				-10.719754219055176,
				1.8025355339050293,
				-5.055904865264893
			]
		},
		{
			"mesh":2,
			"name":"Cube.001",
			"scale":[
				4.124687194824219,
				0.5288393497467041,
				0.8150023221969604
			],
			"translation":[
				-10.920536041259766,
				4.342044353485107,
				-0.04209134727716446
			]
		}
	],
	"materials":[
		{
			"doubleSided":true,
			"name":"Material.003",
			"pbrMetallicRoughness":{
				"baseColorFactor":[
					0.6038163900375366,
					0.3554474711418152,
					0.21794940531253815,
					1
				],
				"metallicFactor":0,
				"roughnessFactor":0.5
			}
		},
		{
			"doubleSided":true,
			"name":"Material.002",
			"pbrMetallicRoughness":{
				"baseColorFactor":[
					0.1679484248161316,
					0.1679484248161316,
					0.1679484248161316,
					1
				],
				"metallicFactor":0,
				"roughnessFactor":0.5
			}
		}
	],
	"meshes":[
		{
			"name":"Circle",
			"primitives":[
				{
					"attributes":{
						"POSITION":0,
						"NORMAL":1,
						"TEXCOORD_0":2
					},
					"indices":3,
					"material":0
				},
				{
					"attributes":{
						"POSITION":4,
						"NORMAL":5,
						"TEXCOORD_0":6
					},
					"indices":7,
					"material":1
				}
			]
		},
		{
			"name":"Cube.002",
			"primitives":[
				{
					"attributes":{
						"POSITION":8,
						"NORMAL":9,
						"TEXCOORD_0":10
					},
					"indices":11,
					"material":0
				},
				{
					"attributes":{
						"POSITION":12,
						"NORMAL":13,
						"TEXCOORD_0":14
					},
					"indices":15,
					"material":1
				}
			]
		},
		{
			"name":"Cube.003",
			"primitives":[
				{
					"attributes":{
						"POSITION":16,
						"NORMAL":17,
						"TEXCOORD_0":18
					},
					"indices":19,
					"material":1
				}
			]
		}
	],
	"accessors":[
		{
			"bufferView":0,
			"componentType":5126,
			"count":232,
			"max":[
				0.0657125860452652,
				0.14104953408241272,
				1.1100263595581055
			],
			"min":[
				-1.044313907623291,
				-2.709289073944092,
				-1.1100263595581055
			],
			"type":"VEC3"
		},
		{
			"bufferView":1,
			"componentType":5126,
			"count":232,
			"type":"VEC3"
		},
		{
			"bufferView":2,
			"componentType":5126,
			"count":232,
			"type":"VEC2"
		},
		{
			"bufferView":3,
			"componentType":5123,
			"count":648,
			"type":"SCALAR"
		},
		{
			"bufferView":4,
			"componentType":5126,
			"count":414,
			"max":[
				0.0657125860452652,
				0.14104953408241272,
				1.1100263595581055
			],
			"min":[
				-1.044313907623291,
				-2.709289073944092,
				-1.1100263595581055
			],
			"type":"VEC3"
		},
		{
			"bufferView":5,
			"componentType":5126,
			"count":414,
			"type":"VEC3"
		},
		{
			"bufferView":6,
			"componentType":5126,
			"count":414,
			"type":"VEC2"
		},
		{
			"bufferView":7,
			"componentType":5123,
			"count":1176,
			"type":"SCALAR"
		},
		{
			"bufferView":8,
			"componentType":5126,
			"count":20,
			"max":[
				2.721431016921997,
				2.551969051361084,
				1
			],
			"min":[
				-1,
				-1,
				-1.3184919357299805
			],
			"type":"VEC3"
		},
		{
			"bufferView":9,
			"componentType":5126,
			"count":20,
			"type":"VEC3"
		},
		{
			"bufferView":10,
			"componentType":5126,
			"count":20,
			"type":"VEC2"
		},
		{
			"bufferView":11,
			"componentType":5123,
			"count":30,
			"type":"SCALAR"
		},
		{
			"bufferView":12,
			"componentType":5126,
			"count":20,
			"max":[
				2.721431016921997,
				2.7686879634857178,
				1
			],
			"min":[
				-1,
				2.551969051361084,
				-1.3184919357299805
			],
			"type":"VEC3"
		},
		{
			"bufferView":13,
			"componentType":5126,
			"count":20,
			"type":"VEC3"
		},
		{
			"bufferView":14,
			"componentType":5126,
			"count":20,
			"type":"VEC2"
		},
		{
			"bufferView":15,
			"componentType":5123,
			"count":30,
			"type":"SCALAR"
		},
		{
			"bufferView":16,
			"componentType":5126,
			"count":24,
			"max":[
				2.721431016921997,
				2.551969051361084,
				1
			],
			"min":[
				-1,
				-1,
				-1.3184919357299805
			],
			"type":"VEC3"
		},
		{
			"bufferView":17,
			"componentType":5126,
			"count":24,
			"type":"VEC3"
		},
		{
			"bufferView":18,
			"componentType":5126,
			"count":24,
			"type":"VEC2"
		},
		{
			"bufferView":19,
			"componentType":5123,
			"count":36,
			"type":"SCALAR"
		}
	],
	"bufferViews":[
		{
			"buffer":0,
			"byteLength":2784,
			"byteOffset":0,
			"target":34962
		},
		{
			"buffer":0,
			"byteLength":2784,
			"byteOffset":2784,
			"target":34962
		},
		{
			"buffer":0,
			"byteLength":1856,
			"byteOffset":5568,
			"target":34962
		},
		{
			"buffer":0,
			"byteLength":1296,
			"byteOffset":7424,
			"target":34963
		},
		{
			"buffer":0,
			"byteLength":4968,
			"byteOffset":8720,
			"target":34962
		},
		{
			"buffer":0,
			"byteLength":4968,
			"byteOffset":13688,
			"target":34962
		},
		{
			"buffer":0,
			"byteLength":3312,
			"byteOffset":18656,
			"target":34962
		},
		{
			"buffer":0,
			"byteLength":2352,
			"byteOffset":21968,
			"target":34963
		},
		{
			"buffer":0,
			"byteLength":240,
			"byteOffset":24320,
			"target":34962
		},
		{
			"buffer":0,
			"byteLength":240,
			"byteOffset":24560,
			"target":34962
		},
		{
			"buffer":0,
			"byteLength":160,
			"byteOffset":24800,
			"target":34962
		},
		{
			"buffer":0,
			"byteLength":60,
			"byteOffset":24960,
			"target":34963
		},
		{
			"buffer":0,
			"byteLength":240,
			"byteOffset":25020,
			"target":34962
		},
		{
			"buffer":0,
			"byteLength":240,
			"byteOffset":25260,
			"target":34962
		},
		{
			"buffer":0,
			"byteLength":160,
			"byteOffset":25500,
			"target":34962
		},
		{
			"buffer":0,
			"byteLength":60,
			"byteOffset":25660,
			"target":34963
		},
		{
			"buffer":0,
			"byteLength":288,
			"byteOffset":25720,
			"target":34962
		},
		{
			"buffer":0,
			"byteLength":288,
			"byteOffset":26008,
			"target":34962
		},
		{
			"buffer":0,
			"byteLength":192,
			"byteOffset":26296,
			"target":34962
		},
		{
			"buffer":0,
			"byteLength":72,
			"byteOffset":26488,
			"target":34963
		}
	],
	"buffers":[
		{
			"byteLength":26560,
			"uri":"data:application/octet-stream;base64,"
		}
	]
}
