{
	"asset":{
		"generator":"Khronos glTF Blender I/O v3.6.27",
		"version":"2.0"
	},
	"extensionsUsed":[
		"KHR_materials_specular",
		"KHR_materials_ior"
	],
	"scene":0,
	"scenes":[
		{
			"name":"Scene",
			"nodes":[
				0,
				1,
				2,
				3,
				4,
				5,
				6,
				7,
				8
			]
		}
	],
	"nodes":[
		{
			"name":"Sun",
			"rotation":[
				-0.347005695104599,
				0.0076614124700427055,
				-0.020700955763459206,
				0.937603235244751
			],
			"translation":[
				4997.20068359375,
				113113.1953125,
				-97109.09375
			]
		},
		{
			"name":"Shadow_Plane",
			"translation":[
				0,
				0,
				-10000
			]
		},
		{
			"mesh":0,
			"name":"Cylinder.003",
			"scale":[
				0.20409029722213745,
				0.5670889019966125,
				0.20409029722213745
			],
			"translation":[
				5.231690406799316,
				-0.5755689740180969,
				-0.7127752304077148
			]
		},
		{
			"mesh":1,
			"name":"Cylinder.004",
			"rotation":[
				0,
				-1,
				0,
				1.6292068494294654e-07
			],
			"scale":[
				0.20409029722213745,
				0.5670889019966125,
				0.20409029722213745
			],
			"translation":[
				-5.874355792999268,
				-0.5755689740180969,
				-0.7127752304077148
			]
		},
		{
			"mesh":2,
			"name":"Cylinder.005",
			"rotation":[
				0,
				-1,
				0,
				1.6292068494294654e-07
			],
			"scale":[
				0.20409029722213745,
				0.5670889019966125,
				0.20409029722213745
			],
			"translation":[
				-3.979295492172241,
				-0.5755689740180969,
				0.17138218879699707
			]
		},
		{
			"mesh":3,
			"name":"Cylinder.006",
			"scale":[
				0.20409029722213745,
				0.5670889019966125,
				0.20409029722213745
			],
			"translation":[
				2.7962400913238525,
				-0.5755689740180969,
				0.3824951648712158
			]
		},
		{
			"mesh":4,
			"name":"Cylinder.007",
			"scale":[
				0.20409029722213745,
				0.5670889019966125,
				0.20409029722213745
			],
			"translation":[
				1.9287283420562744,
				-0.5755689740180969,
				1.2221386432647705
			]
		},
		{
			"mesh":5,
			"name":"Cube.015",
			"scale":[
				1,
				1,
				0.7328295111656189
			],
			"translation":[
				-0.4748237431049347,
				0,
				0.6838846206665039
			]
		},
		{
			"mesh":6,
			"name":"Cube.016",
			"scale":[
				3.2258424758911133,
				1,
				0.4079565703868866
			],
			"translation":[
				-0.4748237431049347,
				0,
				-0.7421066761016846
			]
		}
	],
	"materials":[
		{
			"doubleSided":true,
			"extensions":{
				"KHR_materials_specular":{
					"specularColorFactor":[
						0,
						0,
						0
					]
				},
				"KHR_materials_ior":{
					"ior":1.4500000476837158
				}
			},
			"name":"Material",
			"pbrMetallicRoughness":{
				"baseColorFactor":[
					0.19017641246318817,
					0.07449895143508911,
					0.07152001559734344,
					1
				],
				"metallicFactor":0,
				"roughnessFactor":0
			}
		},
		{
			"doubleSided":true,
			"name":"Material.006",
			"pbrMetallicRoughness":{
				"baseColorFactor":[
					0.15377667546272278,
					0.28743845224380493,
					0.42002278566360474,
					1
				],
				"metallicFactor":0,
				"roughnessFactor":0.5
			}
		},
		{
			"doubleSided":true,
			"name":"CAR_04",
			"pbrMetallicRoughness":{
				"baseColorFactor":[
					0.22658294439315796,
					0.22658294439315796,
					0.22658294439315796,
					1
				],
				"metallicFactor":0,
				"roughnessFactor":0.5527864098548889
			}
		},
		{
			"doubleSided":true,
			"extensions":{
				"KHR_materials_specular":{
					"specularColorFactor":[
						0,
						0,
						0
					]
				},
				"KHR_materials_ior":{
					"ior":1.4500000476837158
				}
			},
			"name":"Material.012",
			"pbrMetallicRoughness":{
				"baseColorFactor":[
					0.24619360268115997,
					0.24619360268115997,
					0.24619360268115997,
					1
				],
				"metallicFactor":0,
				"roughnessFactor":0
			}
		}
	],
	"meshes":[
		{
			"name":"Cylinder.015",
			"primitives":[
				{
					"attributes":{
						"POSITION":0,
						"NORMAL":1,
						"TEXCOORD_0":2
					},
					"indices":3,
					"material":0
				}
			]
		},
		{
			"name":"Cylinder.016",
			"primitives":[
				{
					"attributes":{
						"POSITION":4,
						"NORMAL":5,
						"TEXCOORD_0":6
					},
					"indices":3,
					"material":0
				}
			]
		},
		{
			"name":"Cylinder.017",
			"primitives":[
				{
					"attributes":{
						"POSITION":7,
						"NORMAL":8,
						"TEXCOORD_0":9
					},
					"indices":3,
					"material":1
				}
			]
		},
		{
			"name":"Cylinder.018",
			"primitives":[
				{
					"attributes":{
						"POSITION":10,
						"NORMAL":11,
						"TEXCOORD_0":12
					},
					"indices":3,
					"material":1
				}
			]
		},
		{
			"name":"Cylinder.019",
			"primitives":[
				{
					"attributes":{
						"POSITION":13,
						"NORMAL":14,
						"TEXCOORD_0":15
					},
					"indices":3,
					"material":0
				}
			]
		},
		{
			"name":"Cube.022",
			"primitives":[
				{
					"attributes":{
						"POSITION":16,
						"NORMAL":17,
						"TEXCOORD_0":18
					},
					"indices":19,
					"material":2
				}
			]
		},
		{
			"name":"Cube.023",
			"primitives":[
				{
					"attributes":{
						"POSITION":20,
						"NORMAL":21,
						"TEXCOORD_0":22
					},
					"indices":19,
					"material":3
				}
			]
		}
	],
	"accessors":[
		{
			"bufferView":0,
			"componentType":5126,
			"count":46,
			"max":[
				0.9510565400123596,
				2.7340011596679688,
				0.8090192079544067
			],
			"min":[
				-13.832131385803223,
				-1,
				-1
			],
			"type":"VEC3"
		},
		{
			"bufferView":1,
			"componentType":5126,
			"count":46,
			"type":"VEC3"
		},
		{
			"bufferView":2,
			"componentType":5126,
			"count":46,
			"type":"VEC2"
		},
		{
			"bufferView":3,
			"componentType":5123,
			"count":168,
			"type":"SCALAR"
		},
		{
			"bufferView":4,
			"componentType":5126,
			"count":46,
			"max":[
				0.9510565400123596,
				2.7340011596679688,
				0.8090192079544067
			],
			"min":[
				-13.832131385803223,
				-1,
				-1
			],
			"type":"VEC3"
		},
		{
			"bufferView":5,
			"componentType":5126,
			"count":46,
			"type":"VEC3"
		},
		{
			"bufferView":6,
			"componentType":5126,
			"count":46,
			"type":"VEC2"
		},
		{
			"bufferView":7,
			"componentType":5126,
			"count":46,
			"max":[
				0.9510565400123596,
				2.7340011596679688,
				0.8090192079544067
			],
			"min":[
				-13.832131385803223,
				-1,
				-1
			],
			"type":"VEC3"
		},
		{
			"bufferView":8,
			"componentType":5126,
			"count":46,
			"type":"VEC3"
		},
		{
			"bufferView":9,
			"componentType":5126,
			"count":46,
			"type":"VEC2"
		},
		{
			"bufferView":10,
			"componentType":5126,
			"count":46,
			"max":[
				0.9510565400123596,
				2.7340011596679688,
				0.8090192079544067
			],
			"min":[
				-13.832131385803223,
				-1,
				-1
			],
			"type":"VEC3"
		},
		{
			"bufferView":11,
			"componentType":5126,
			"count":46,
			"type":"VEC3"
		},
		{
			"bufferView":12,
			"componentType":5126,
			"count":46,
			"type":"VEC2"
		},
		{
			"bufferView":13,
			"componentType":5126,
			"count":46,
			"max":[
				0.9510565400123596,
				2.7340011596679688,
				0.8090192079544067
			],
			"min":[
				-13.832131385803223,
				-1,
				-1
			],
			"type":"VEC3"
		},
		{
			"bufferView":14,
			"componentType":5126,
			"count":46,
			"type":"VEC3"
		},
		{
			"bufferView":15,
			"componentType":5126,
			"count":46,
			"type":"VEC2"
		},
		{
			"bufferView":16,
			"componentType":5126,
			"count":24,
			"max":[
				1,
				1,
				1
			],
			"min":[
				-1,
				-1,
				-1
			],
			"type":"VEC3"
		},
		{
			"bufferView":17,
			"componentType":5126,
			"count":24,
			"type":"VEC3"
		},
		{
			"bufferView":18,
			"componentType":5126,
			"count":24,
			"type":"VEC2"
		},
		{
			"bufferView":19,
			"componentType":5123,
			"count":36,
			"type":"SCALAR"
		},
		{
			"bufferView":20,
			"componentType":5126,
			"count":24,
			"max":[
				1,
				1,
				1
			],
			"min":[
				-1,
				-1,
				-1
			],
			"type":"VEC3"
		},
		{
			"bufferView":21,
			"componentType":5126,
			"count":24,
			"type":"VEC3"
		},
		{
			"bufferView":22,
			"componentType":5126,
			"count":24,
			"type":"VEC2"
		}
	],
	"bufferViews":[
		{
			"buffer":0,
			"byteLength":552,
			"byteOffset":0,
			"target":34962
		},
		{
			"buffer":0,
			"byteLength":552,
			"byteOffset":552,
			"target":34962
		},
		{
			"buffer":0,
			"byteLength":368,
			"byteOffset":1104,
			"target":34962
		},
		{
			"buffer":0,
			"byteLength":336,
			"byteOffset":1472,
			"target":34963
		},
		{
			"buffer":0,
			"byteLength":552,
			"byteOffset":1808,
			"target":34962
		},
		{
			"buffer":0,
			"byteLength":552,
			"byteOffset":2360,
			"target":34962
		},
		{
			"buffer":0,
			"byteLength":368,
			"byteOffset":2912,
			"target":34962
		},
		{
			"buffer":0,
			"byteLength":552,
			"byteOffset":3280,
			"target":34962
		},
		{
			"buffer":0,
			"byteLength":552,
			"byteOffset":3832,
			"target":34962
		},
		{
			"buffer":0,
			"byteLength":368,
			"byteOffset":4384,
			"target":34962
		},
		{
			"buffer":0,
			"byteLength":552,
			"byteOffset":4752,
			"target":34962
		},
		{
			"buffer":0,
			"byteLength":552,
			"byteOffset":5304,
			"target":34962
		},
		{
			"buffer":0,
			"byteLength":368,
			"byteOffset":5856,
			"target":34962
		},
		{
			"buffer":0,
			"byteLength":552,
			"byteOffset":6224,
			"target":34962
		},
		{
			"buffer":0,
			"byteLength":552,
			"byteOffset":6776,
			"target":34962
		},
		{
			"buffer":0,
			"byteLength":368,
			"byteOffset":7328,
			"target":34962
		},
		{
			"buffer":0,
			"byteLength":288,
			"byteOffset":7696,
			"target":34962
		},
		{
			"buffer":0,
			"byteLength":288,
			"byteOffset":7984,
			"target":34962
		},
		{
			"buffer":0,
			"byteLength":192,
			"byteOffset":8272,
			"target":34962
		},
		{
			"buffer":0,
			"byteLength":72,
			"byteOffset":8464,
			"target":34963
		},
		{
			"buffer":0,
			"byteLength":288,
			"byteOffset":8536,
			"target":34962
		},
		{
			"buffer":0,
			"byteLength":288,
			"byteOffset":8824,
			"target":34962
		},
		{
			"buffer":0,
			"byteLength":192,
			"byteOffset":9112,
			"target":34962
		}
	],
	"buffers":[
		{
			"byteLength":9304,
			"uri":"data:application/octet-stream;base64,"
		}
	]
}
