{
	"asset":{
		"generator":"Khronos glTF Blender I/O v3.6.27",
		"version":"2.0"
	},
	"extensionsUsed":[
		"KHR_materials_specular",
		"KHR_materials_ior"
	],
	"scene":0,
	"scenes":[
		{
			"name":"Scene",
			"nodes":[
				0,
				1,
				2,
				3
			]
		}
	],
	"nodes":[
		{
			"mesh":0,
			"name":"Cube",
			"translation":[
				-0.08650503307580948,
				0,
				0
			]
		},
		{
			"mesh":1,
			"name":"Text",
			"rotation":[
				0.5,
				0.5,
				-0.5,
				0.5
			],
			"translation":[
				1.3850408792495728,
				0.283596396446228,
				0.6425581574440002
			]
		},
		{
			"mesh":2,
			"name":"Text.001",
			"rotation":[
				0.5,
				0.5,
				-0.5,
				0.5
			],
			"scale":[
				0.2929825782775879,
				0.2929825782775879,
				0.2929825782775879
			],
			"translation":[
				1.519235610961914,
				0.10507762432098389,
				0.5347211956977844
			]
		},
		{
			"mesh":3,
			"name":"Cube.001",
			"scale":[
				1.728522539138794,
				0.3095219135284424,
				2.282125234603882
			],
			"translation":[
				0.06851065903902054,
				-1.1033401489257812,
				0
			]
		}
	],
	"materials":[
		{
			"doubleSided":true,
			"extensions":{
				"KHR_materials_specular":{
					"specularColorFactor":[
						0,
						0,
						0
					]
				},
				"KHR_materials_ior":{
					"ior":1.4500000476837158
				}
			},
			"name":"Material",
			"pbrMetallicRoughness":{
				"baseColorFactor":[
					0.19017641246318817,
					0.07449895143508911,
					0.07152001559734344,
					1
				],
				"metallicFactor":0,
				"roughnessFactor":0
			}
		},
		{
			"doubleSided":true,
			"name":"Material.001",
			"pbrMetallicRoughness":{
				"baseColorFactor":[
					0.5070708990097046,
					0.23121990263462067,
					0.0791253075003624,
					1
				],
				"metallicFactor":0,
				"roughnessFactor":0.5
			}
		},
		{
			"doubleSided":true,
			"name":"Material.002",
			"pbrMetallicRoughness":{
				"baseColorFactor":[
					0.1679484248161316,
					0.1679484248161316,
					0.1679484248161316,
					1
				],
				"metallicFactor":0,
				"roughnessFactor":0.5
			}
		}
	],
	"meshes":[
		{
			"name":"Cube",
			"primitives":[
				{
					"attributes":{
						"POSITION":0,
						"NORMAL":1,
						"TEXCOORD_0":2
					},
					"indices":3,
					"material":0
				}
			]
		},
		{
			"name":"Text",
			"primitives":[
				{
					"attributes":{
						"POSITION":4,
						"NORMAL":5,
						"TEXCOORD_0":6
					},
					"indices":7,
					"material":1
				}
			]
		},
		{
			"name":"Text.001",
			"primitives":[
				{
					"attributes":{
						"POSITION":8,
						"NORMAL":9,
						"TEXCOORD_0":10
					},
					"indices":11,
					"material":1
				}
			]
		},
		{
			"name":"Cube.001",
			"primitives":[
				{
					"attributes":{
						"POSITION":12,
						"NORMAL":13,
						"TEXCOORD_0":14
					},
					"indices":15,
					"material":2
				}
			]
		}
	],
	"accessors":[
		{
			"bufferView":0,
			"componentType":5126,
			"count":138,
			"max":[
				1.6588560342788696,
				1.3955879211425781,
				2.152636766433716
			],
			"min":[
				-1.3209139108657837,
				-1.3527897596359253,
				-2.15122127532959
			],
			"type":"VEC3"
		},
		{
			"bufferView":1,
			"componentType":5126,
			"count":138,
			"type":"VEC3"
		},
		{
			"bufferView":2,
			"componentType":5126,
			"count":138,
			"type":"VEC2"
		},
		{
			"bufferView":3,
			"componentType":5123,
			"count":816,
			"type":"SCALAR"
		},
		{
			"bufferView":4,
			"componentType":5126,
			"count":3036,
			"max":[
				1.8939235210418701,
				0.05000000074505806,
				0.008781173266470432
			],
			"min":[
				0.058658238500356674,
				-0.05000000074505806,
				-0.5237091779708862
			],
			"type":"VEC3"
		},
		{
			"bufferView":5,
			"componentType":5126,
			"count":3036,
			"type":"VEC3"
		},
		{
			"bufferView":6,
			"componentType":5126,
			"count":3036,
			"type":"VEC2"
		},
		{
			"bufferView":7,
			"componentType":5123,
			"count":9048,
			"type":"SCALAR"
		},
		{
			"bufferView":8,
			"componentType":5126,
			"count":14342,
			"max":[
				6.973304748535156,
				0.10000000149011612,
				1.1513874530792236
			],
			"min":[
				0.041798386722803116,
				-0.10000000149011612,
				-0.5149280428886414
			],
			"type":"VEC3"
		},
		{
			"bufferView":9,
			"componentType":5126,
			"count":14342,
			"type":"VEC3"
		},
		{
			"bufferView":10,
			"componentType":5126,
			"count":14342,
			"type":"VEC2"
		},
		{
			"bufferView":11,
			"componentType":5123,
			"count":42612,
			"type":"SCALAR"
		},
		{
			"bufferView":12,
			"componentType":5126,
			"count":24,
			"max":[
				1.1304435729980469,
				1,
				1.1304434537887573
			],
			"min":[
				-1.1304435729980469,
				-0.9999999403953552,
				-1.1304434537887573
			],
			"type":"VEC3"
		},
		{
			"bufferView":13,
			"componentType":5126,
			"count":24,
			"type":"VEC3"
		},
		{
			"bufferView":14,
			"componentType":5126,
			"count":24,
			"type":"VEC2"
		},
		{
			"bufferView":15,
			"componentType":5123,
			"count":36,
			"type":"SCALAR"
		}
	],
	"bufferViews":[
		{
			"buffer":0,
			"byteLength":1656,
			"byteOffset":0,
			"target":34962
		},
		{
			"buffer":0,
			"byteLength":1656,
			"byteOffset":1656,
			"target":34962
		},
		{
			"buffer":0,
			"byteLength":1104,
			"byteOffset":3312,
			"target":34962
		},
		{
			"buffer":0,
			"byteLength":1632,
			"byteOffset":4416,
			"target":34963
		},
		{
			"buffer":0,
			"byteLength":36432,
			"byteOffset":6048,
			"target":34962
		},
		{
			"buffer":0,
			"byteLength":36432,
			"byteOffset":42480,
			"target":34962
		},
		{
			"buffer":0,
			"byteLength":24288,
			"byteOffset":78912,
			"target":34962
		},
		{
			"buffer":0,
			"byteLength":18096,
			"byteOffset":103200,
			"target":34963
		},
		{
			"buffer":0,
			"byteLength":172104,
			"byteOffset":121296,
			"target":34962
		},
		{
			"buffer":0,
			"byteLength":172104,
			"byteOffset":293400,
			"target":34962
		},
		{
			"buffer":0,
			"byteLength":114736,
			"byteOffset":465504,
			"target":34962
		},
		{
			"buffer":0,
			"byteLength":85224,
			"byteOffset":580240,
			"target":34963
		},
		{
			"buffer":0,
			"byteLength":288,
			"byteOffset":665464,
			"target":34962
		},
		{
			"buffer":0,
			"byteLength":288,
			"byteOffset":665752,
			"target":34962
		},
		{
			"buffer":0,
			"byteLength":192,
			"byteOffset":666040,
			"target":34962
		},
		{
			"buffer":0,
			"byteLength":72,
			"byteOffset":666232,
			"target":34963
		}
	],
	"buffers":[
		{
			"byteLength":666304,
			"uri":"data:application/octet-stream;base64,"
		}
	]
}
