{
	"asset":{
		"generator":"Khronos glTF Blender I/O v3.6.27",
		"version":"2.0"
	},
	"extensionsUsed":[
		"KHR_materials_specular",
		"KHR_materials_ior"
	],
	"scene":0,
	"scenes":[
		{
			"name":"Scene",
			"nodes":[
				0,
				1,
				2,
				3,
				4,
				5,
				6
			]
		}
	],
	"nodes":[
		{
			"mesh":0,
			"name":"Cylinder"
		},
		{
			"mesh":1,
			"name":"Cube",
			"rotation":[
				-0.13908027112483978,
				0,
				0,
				0.9902811050415039
			],
			"scale":[
				0.11673048138618469,
				0.44162583351135254,
				0.11673048883676529
			],
			"translation":[
				0.03756830096244812,
				0.877948522567749,
				-0.2727731168270111
			]
		},
		{
			"mesh":2,
			"name":"Icosphere",
			"rotation":[
				-0.1362096667289734,
				-0.028111496940255165,
				-0.20015983283519745,
				0.9698415994644165
			],
			"scale":[
				1.200783133506775,
				1.2007830142974854,
				1.200783133506775
			],
			"translation":[
				0.1973140686750412,
				3.744929313659668,
				-1.0942851305007935
			]
		},
		{
			"mesh":3,
			"name":"Icosphere.001",
			"rotation":[
				0.4238429665565491,
				-0.894993007183075,
				-0.13895070552825928,
				0.006118011195212603
			],
			"scale":[
				1.2007830142974854,
				1.200783133506775,
				1.200783133506775
			],
			"translation":[
				-1.3744580745697021,
				3.235877513885498,
				0.9118349552154541
			]
		},
		{
			"mesh":4,
			"name":"Cube.001",
			"rotation":[
				0.23419499397277832,
				-0.9621891379356384,
				-0.13484613597393036,
				0.03407737985253334
			],
			"scale":[
				0.11673048138618469,
				0.44162583351135254,
				0.11673048138618469
			],
			"translation":[
				0.08407332003116608,
				0.7625897526741028,
				0.08993931114673615
			]
		},
		{
			"mesh":5,
			"name":"Icosphere.002",
			"rotation":[
				0.06678014993667603,
				-0.3515338599681854,
				-0.2369152456521988,
				0.9032362699508667
			],
			"scale":[
				1.550925374031067,
				1.5509254932403564,
				1.5509254932403564
			],
			"translation":[
				0.49266770482063293,
				4.8664751052856445,
				0.26314860582351685
			]
		},
		{
			"mesh":6,
			"name":"Cube.002",
			"rotation":[
				-0.005651961546391249,
				-0.35777536034584045,
				-0.04945925995707512,
				0.9324798583984375
			],
			"scale":[
				0.1507684737443924,
				0.570401668548584,
				0.1507684886455536
			],
			"translation":[
				-0.03071388602256775,
				1.0517652034759521,
				0.02963954210281372
			]
		}
	],
	"materials":[
		{
			"doubleSided":true,
			"extensions":{
				"KHR_materials_specular":{
					"specularColorFactor":[
						0,
						0,
						0
					]
				},
				"KHR_materials_ior":{
					"ior":1.4500000476837158
				}
			},
			"name":"Material.005",
			"pbrMetallicRoughness":{
				"baseColorFactor":[
					0.3031977415084839,
					0.17643044888973236,
					0.1302042007446289,
					1
				],
				"metallicFactor":0,
				"roughnessFactor":0
			}
		},
		{
			"doubleSided":true,
			"extensions":{
				"KHR_materials_specular":{
					"specularColorFactor":[
						0,
						0,
						0
					]
				},
				"KHR_materials_ior":{
					"ior":1.4500000476837158
				}
			},
			"name":"Material.002",
			"pbrMetallicRoughness":{
				"baseColorFactor":[
					0.102055624127388,
					0.26676085591316223,
					0.15704092383384705,
					1
				],
				"metallicFactor":0,
				"roughnessFactor":0
			}
		},
		{
			"doubleSided":true,
			"extensions":{
				"KHR_materials_specular":{
					"specularColorFactor":[
						0,
						0,
						0
					]
				},
				"KHR_materials_ior":{
					"ior":1.4500000476837158
				}
			},
			"name":"Material.007",
			"pbrMetallicRoughness":{
				"baseColorFactor":[
					0.1375768929719925,
					0.07835177332162857,
					0.05606025084853172,
					1
				],
				"metallicFactor":0,
				"roughnessFactor":0
			}
		},
		{
			"doubleSided":true,
			"extensions":{
				"KHR_materials_specular":{
					"specularColorFactor":[
						0,
						0,
						0
					]
				},
				"KHR_materials_ior":{
					"ior":1.4500000476837158
				}
			},
			"name":"Material.025",
			"pbrMetallicRoughness":{
				"baseColorFactor":[
					0.102055624127388,
					0.26676085591316223,
					0.15704092383384705,
					1
				],
				"metallicFactor":0,
				"roughnessFactor":0
			}
		},
		{
			"doubleSided":true,
			"extensions":{
				"KHR_materials_specular":{
					"specularColorFactor":[
						0,
						0,
						0
					]
				},
				"KHR_materials_ior":{
					"ior":1.4500000476837158
				}
			},
			"name":"Material.026",
			"pbrMetallicRoughness":{
				"baseColorFactor":[
					0.1375768929719925,
					0.07835177332162857,
					0.05606025084853172,
					1
				],
				"metallicFactor":0,
				"roughnessFactor":0
			}
		},
		{
			"doubleSided":true,
			"extensions":{
				"KHR_materials_specular":{
					"specularColorFactor":[
						0,
						0,
						0
					]
				},
				"KHR_materials_ior":{
					"ior":1.4500000476837158
				}
			},
			"name":"Material.027",
			"pbrMetallicRoughness":{
				"baseColorFactor":[
					0.102055624127388,
					0.26676085591316223,
					0.15704092383384705,
					1
				],
				"metallicFactor":0,
				"roughnessFactor":0
			}
		},
		{
			"doubleSided":true,
			"extensions":{
				"KHR_materials_specular":{
					"specularColorFactor":[
						0,
						0,
						0
					]
				},
				"KHR_materials_ior":{
					"ior":1.4500000476837158
				}
			},
			"name":"Material.028",
			"pbrMetallicRoughness":{
				"baseColorFactor":[
					0.1375768929719925,
					0.07835177332162857,
					0.05606025084853172,
					1
				],
				"metallicFactor":0,
				"roughnessFactor":0
			}
		}
	],
	"meshes":[
		{
			"name":"Cylinder.021",
			"primitives":[
				{
					"attributes":{
						"POSITION":0,
						"NORMAL":1,
						"TEXCOORD_0":2
					},
					"indices":3,
					"material":0
				},
				{
					"attributes":{
						"POSITION":4,
						"NORMAL":5,
						"TEXCOORD_0":6
					},
					"indices":7,
					"material":1
				}
			]
		},
		{
			"name":"Cube.037",
			"primitives":[
				{
					"attributes":{
						"POSITION":8,
						"NORMAL":9,
						"TEXCOORD_0":10
					},
					"indices":11,
					"material":2
				}
			]
		},
		{
			"name":"Icosphere",
			"primitives":[
				{
					"attributes":{
						"POSITION":12,
						"NORMAL":13,
						"TEXCOORD_0":14
					},
					"indices":15,
					"material":1
				}
			]
		},
		{
			"name":"Icosphere.001",
			"primitives":[
				{
					"attributes":{
						"POSITION":16,
						"NORMAL":17,
						"TEXCOORD_0":18
					},
					"indices":15,
					"material":3
				}
			]
		},
		{
			"name":"Cube.038",
			"primitives":[
				{
					"attributes":{
						"POSITION":19,
						"NORMAL":20,
						"TEXCOORD_0":21
					},
					"indices":11,
					"material":4
				}
			]
		},
		{
			"name":"Icosphere.002",
			"primitives":[
				{
					"attributes":{
						"POSITION":22,
						"NORMAL":23,
						"TEXCOORD_0":24
					},
					"indices":15,
					"material":5
				}
			]
		},
		{
			"name":"Cube.039",
			"primitives":[
				{
					"attributes":{
						"POSITION":25,
						"NORMAL":26,
						"TEXCOORD_0":27
					},
					"indices":11,
					"material":6
				}
			]
		}
	],
	"accessors":[
		{
			"bufferView":0,
			"componentType":5126,
			"count":71,
			"max":[
				1.4910296201705933,
				1,
				1.4910296201705933
			],
			"min":[
				-1.4910296201705933,
				-1,
				-1.4910296201705933
			],
			"type":"VEC3"
		},
		{
			"bufferView":1,
			"componentType":5126,
			"count":71,
			"type":"VEC3"
		},
		{
			"bufferView":2,
			"componentType":5126,
			"count":71,
			"type":"VEC2"
		},
		{
			"bufferView":3,
			"componentType":5123,
			"count":306,
			"type":"SCALAR"
		},
		{
			"bufferView":4,
			"componentType":5126,
			"count":8,
			"max":[
				1.0033066272735596,
				0.7283128499984741,
				1.0033066272735596
			],
			"min":[
				-1.0033066272735596,
				0.7283128499984741,
				-1.0033066272735596
			],
			"type":"VEC3"
		},
		{
			"bufferView":5,
			"componentType":5126,
			"count":8,
			"type":"VEC3"
		},
		{
			"bufferView":6,
			"componentType":5126,
			"count":8,
			"type":"VEC2"
		},
		{
			"bufferView":7,
			"componentType":5123,
			"count":18,
			"type":"SCALAR"
		},
		{
			"bufferView":8,
			"componentType":5126,
			"count":29,
			"max":[
				4.811538219451904,
				4.935246467590332,
				1.2520592212677002
			],
			"min":[
				-1.208380103111267,
				-1,
				-1.5146262645721436
			],
			"type":"VEC3"
		},
		{
			"bufferView":9,
			"componentType":5126,
			"count":29,
			"type":"VEC3"
		},
		{
			"bufferView":10,
			"componentType":5126,
			"count":29,
			"type":"VEC2"
		},
		{
			"bufferView":11,
			"componentType":5123,
			"count":108,
			"type":"SCALAR"
		},
		{
			"bufferView":12,
			"componentType":5126,
			"count":22,
			"max":[
				0.8944249749183655,
				1,
				0.8506399989128113
			],
			"min":[
				-0.8944249749183655,
				-1,
				-0.8506399989128113
			],
			"type":"VEC3"
		},
		{
			"bufferView":13,
			"componentType":5126,
			"count":22,
			"type":"VEC3"
		},
		{
			"bufferView":14,
			"componentType":5126,
			"count":22,
			"type":"VEC2"
		},
		{
			"bufferView":15,
			"componentType":5123,
			"count":60,
			"type":"SCALAR"
		},
		{
			"bufferView":16,
			"componentType":5126,
			"count":22,
			"max":[
				0.8944249749183655,
				1,
				0.8506399989128113
			],
			"min":[
				-0.8944249749183655,
				-1,
				-0.8506399989128113
			],
			"type":"VEC3"
		},
		{
			"bufferView":17,
			"componentType":5126,
			"count":22,
			"type":"VEC3"
		},
		{
			"bufferView":18,
			"componentType":5126,
			"count":22,
			"type":"VEC2"
		},
		{
			"bufferView":19,
			"componentType":5126,
			"count":29,
			"max":[
				4.811538219451904,
				4.935246467590332,
				1.2520592212677002
			],
			"min":[
				-1.208380103111267,
				-1,
				-1.5146262645721436
			],
			"type":"VEC3"
		},
		{
			"bufferView":20,
			"componentType":5126,
			"count":29,
			"type":"VEC3"
		},
		{
			"bufferView":21,
			"componentType":5126,
			"count":29,
			"type":"VEC2"
		},
		{
			"bufferView":22,
			"componentType":5126,
			"count":22,
			"max":[
				0.8944249749183655,
				1,
				0.8506399989128113
			],
			"min":[
				-0.8944249749183655,
				-1,
				-0.8506399989128113
			],
			"type":"VEC3"
		},
		{
			"bufferView":23,
			"componentType":5126,
			"count":22,
			"type":"VEC3"
		},
		{
			"bufferView":24,
			"componentType":5126,
			"count":22,
			"type":"VEC2"
		},
		{
			"bufferView":25,
			"componentType":5126,
			"count":29,
			"max":[
				4.811538219451904,
				4.935246467590332,
				1.2520592212677002
			],
			"min":[
				-1.208380103111267,
				-1,
				-1.5146262645721436
			],
			"type":"VEC3"
		},
		{
			"bufferView":26,
			"componentType":5126,
			"count":29,
			"type":"VEC3"
		},
		{
			"bufferView":27,
			"componentType":5126,
			"count":29,
			"type":"VEC2"
		}
	],
	"bufferViews":[
		{
			"buffer":0,
			"byteLength":852,
			"byteOffset":0,
			"target":34962
		},
		{
			"buffer":0,
			"byteLength":852,
			"byteOffset":852,
			"target":34962
		},
		{
			"buffer":0,
			"byteLength":568,
			"byteOffset":1704,
			"target":34962
		},
		{
			"buffer":0,
			"byteLength":612,
			"byteOffset":2272,
			"target":34963
		},
		{
			"buffer":0,
			"byteLength":96,
			"byteOffset":2884,
			"target":34962
		},
		{
			"buffer":0,
			"byteLength":96,
			"byteOffset":2980,
			"target":34962
		},
		{
			"buffer":0,
			"byteLength":64,
			"byteOffset":3076,
			"target":34962
		},
		{
			"buffer":0,
			"byteLength":36,
			"byteOffset":3140,
			"target":34963
		},
		{
			"buffer":0,
			"byteLength":348,
			"byteOffset":3176,
			"target":34962
		},
		{
			"buffer":0,
			"byteLength":348,
			"byteOffset":3524,
			"target":34962
		},
		{
			"buffer":0,
			"byteLength":232,
			"byteOffset":3872,
			"target":34962
		},
		{
			"buffer":0,
			"byteLength":216,
			"byteOffset":4104,
			"target":34963
		},
		{
			"buffer":0,
			"byteLength":264,
			"byteOffset":4320,
			"target":34962
		},
		{
			"buffer":0,
			"byteLength":264,
			"byteOffset":4584,
			"target":34962
		},
		{
			"buffer":0,
			"byteLength":176,
			"byteOffset":4848,
			"target":34962
		},
		{
			"buffer":0,
			"byteLength":120,
			"byteOffset":5024,
			"target":34963
		},
		{
			"buffer":0,
			"byteLength":264,
			"byteOffset":5144,
			"target":34962
		},
		{
			"buffer":0,
			"byteLength":264,
			"byteOffset":5408,
			"target":34962
		},
		{
			"buffer":0,
			"byteLength":176,
			"byteOffset":5672,
			"target":34962
		},
		{
			"buffer":0,
			"byteLength":348,
			"byteOffset":5848,
			"target":34962
		},
		{
			"buffer":0,
			"byteLength":348,
			"byteOffset":6196,
			"target":34962
		},
		{
			"buffer":0,
			"byteLength":232,
			"byteOffset":6544,
			"target":34962
		},
		{
			"buffer":0,
			"byteLength":264,
			"byteOffset":6776,
			"target":34962
		},
		{
			"buffer":0,
			"byteLength":264,
			"byteOffset":7040,
			"target":34962
		},
		{
			"buffer":0,
			"byteLength":176,
			"byteOffset":7304,
			"target":34962
		},
		{
			"buffer":0,
			"byteLength":348,
			"byteOffset":7480,
			"target":34962
		},
		{
			"buffer":0,
			"byteLength":348,
			"byteOffset":7828,
			"target":34962
		},
		{
			"buffer":0,
			"byteLength":232,
			"byteOffset":8176,
			"target":34962
		}
	],
	"buffers":[
		{
			"byteLength":8408,
			"uri":"data:application/octet-stream;base64,"
		}
	]
}
