{
	"asset":{
		"generator":"Khronos glTF Blender I/O v3.6.27",
		"version":"2.0"
	},
	"extensionsUsed":[
		"KHR_materials_specular",
		"KHR_materials_ior"
	],
	"scene":0,
	"scenes":[
		{
			"name":"Scene",
			"nodes":[
				0,
				1,
				2,
				3,
				4
			]
		}
	],
	"nodes":[
		{
			"mesh":0,
			"name":"Cube.009",
			"rotation":[
				0.4325743317604065,
				0.5593563318252563,
				-0.4325743019580841,
				0.5593562722206116
			],
			"scale":[
				0.813815712928772,
				0.1946677565574646,
				0.8772169351577759
			],
			"translation":[
				-1.0302050113677979,
				0.6452038288116455,
				0.16532564163208008
			]
		},
		{
			"mesh":1,
			"name":"Cube.010",
			"rotation":[
				0.4325743317604065,
				0.5593563318252563,
				-0.4325743019580841,
				0.5593562722206116
			],
			"scale":[
				0.813815712928772,
				0.1946677565574646,
				0.8772169351577759
			],
			"translation":[
				-0.5595871210098267,
				0.5838150978088379,
				0.12319231033325195
			]
		},
		{
			"mesh":2,
			"name":"Cube.016",
			"scale":[
				1.5282772779464722,
				0.9882124662399292,
				1
			],
			"translation":[
				0,
				0.057077884674072266,
				0.1172800064086914
			]
		},
		{
			"mesh":3,
			"name":"Cube.001",
			"rotation":[
				0.4325743317604065,
				0.5593563318252563,
				-0.4325743019580841,
				0.5593562722206116
			],
			"scale":[
				0.813815712928772,
				0.1946677565574646,
				0.8772169351577759
			],
			"translation":[
				0.41004687547683716,
				0.5838150978088379,
				0.12319231033325195
			]
		},
		{
			"mesh":4,
			"name":"Cube.002",
			"rotation":[
				0.4325743317604065,
				0.5593563318252563,
				-0.4325743019580841,
				0.5593562722206116
			],
			"scale":[
				0.813815712928772,
				0.1946677565574646,
				0.8772169351577759
			],
			"translation":[
				-0.06057101488113403,
				0.6452038288116455,
				0.16532564163208008
			]
		}
	],
	"materials":[
		{
			"doubleSided":true,
			"extensions":{
				"KHR_materials_specular":{
					"specularColorFactor":[
						0,
						0,
						0
					]
				},
				"KHR_materials_ior":{
					"ior":1.4500000476837158
				}
			},
			"name":"Material.003",
			"pbrMetallicRoughness":{
				"baseColorFactor":[
					0.26676100492477417,
					0.09361475706100464,
					0.10617094486951828,
					1
				],
				"metallicFactor":0,
				"roughnessFactor":0
			}
		},
		{
			"doubleSided":true,
			"extensions":{
				"KHR_materials_specular":{
					"specularColorFactor":[
						0,
						0,
						0
					]
				},
				"KHR_materials_ior":{
					"ior":1.4500000476837158
				}
			},
			"name":"Material.002",
			"pbrMetallicRoughness":{
				"baseColorFactor":[
					0.09140948951244354,
					0.15816964209079742,
					0.26676100492477417,
					1
				],
				"metallicFactor":0,
				"roughnessFactor":0
			}
		},
		{
			"doubleSided":true,
			"extensions":{
				"KHR_materials_specular":{
					"specularColorFactor":[
						0,
						0,
						0
					]
				},
				"KHR_materials_ior":{
					"ior":1.4500000476837158
				}
			},
			"name":"Material.005",
			"pbrMetallicRoughness":{
				"baseColorFactor":[
					0.3031977415084839,
					0.17643044888973236,
					0.1302042007446289,
					1
				],
				"metallicFactor":0,
				"roughnessFactor":0
			}
		},
		{
			"doubleSided":true,
			"extensions":{
				"KHR_materials_specular":{
					"specularColorFactor":[
						0,
						0,
						0
					]
				},
				"KHR_materials_ior":{
					"ior":1.4500000476837158
				}
			},
			"name":"Material.006",
			"pbrMetallicRoughness":{
				"baseColorFactor":[
					0.09140948951244354,
					0.15816964209079742,
					0.26676100492477417,
					1
				],
				"metallicFactor":0,
				"roughnessFactor":0
			}
		},
		{
			"doubleSided":true,
			"extensions":{
				"KHR_materials_specular":{
					"specularColorFactor":[
						0,
						0,
						0
					]
				},
				"KHR_materials_ior":{
					"ior":1.4500000476837158
				}
			},
			"name":"Material.007",
			"pbrMetallicRoughness":{
				"baseColorFactor":[
					0.26676100492477417,
					0.09361475706100464,
					0.10617094486951828,
					1
				],
				"metallicFactor":0,
				"roughnessFactor":0
			}
		}
	],
	"meshes":[
		{
			"name":"Cube.009",
			"primitives":[
				{
					"attributes":{
						"POSITION":0,
						"NORMAL":1,
						"TEXCOORD_0":2
					},
					"indices":3,
					"material":0
				}
			]
		},
		{
			"name":"Cube.010",
			"primitives":[
				{
					"attributes":{
						"POSITION":4,
						"NORMAL":5,
						"TEXCOORD_0":6
					},
					"indices":3,
					"material":1
				}
			]
		},
		{
			"name":"Cube.016",
			"primitives":[
				{
					"attributes":{
						"POSITION":7,
						"NORMAL":8,
						"TEXCOORD_0":9
					},
					"indices":10,
					"material":2
				}
			]
		},
		{
			"name":"Cube.017",
			"primitives":[
				{
					"attributes":{
						"POSITION":11,
						"NORMAL":12,
						"TEXCOORD_0":13
					},
					"indices":3,
					"material":3
				}
			]
		},
		{
			"name":"Cube.018",
			"primitives":[
				{
					"attributes":{
						"POSITION":14,
						"NORMAL":15,
						"TEXCOORD_0":16
					},
					"indices":3,
					"material":4
				}
			]
		}
	],
	"accessors":[
		{
			"bufferView":0,
			"componentType":5126,
			"count":24,
			"max":[
				1,
				1,
				1
			],
			"min":[
				-1,
				-1,
				-1
			],
			"type":"VEC3"
		},
		{
			"bufferView":1,
			"componentType":5126,
			"count":24,
			"type":"VEC3"
		},
		{
			"bufferView":2,
			"componentType":5126,
			"count":24,
			"type":"VEC2"
		},
		{
			"bufferView":3,
			"componentType":5123,
			"count":36,
			"type":"SCALAR"
		},
		{
			"bufferView":4,
			"componentType":5126,
			"count":24,
			"max":[
				1,
				1,
				1
			],
			"min":[
				-1,
				-1,
				-1
			],
			"type":"VEC3"
		},
		{
			"bufferView":5,
			"componentType":5126,
			"count":24,
			"type":"VEC3"
		},
		{
			"bufferView":6,
			"componentType":5126,
			"count":24,
			"type":"VEC2"
		},
		{
			"bufferView":7,
			"componentType":5126,
			"count":50,
			"max":[
				1,
				1.0000001192092896,
				1
			],
			"min":[
				-1,
				-1,
				-1
			],
			"type":"VEC3"
		},
		{
			"bufferView":8,
			"componentType":5126,
			"count":50,
			"type":"VEC3"
		},
		{
			"bufferView":9,
			"componentType":5126,
			"count":50,
			"type":"VEC2"
		},
		{
			"bufferView":10,
			"componentType":5123,
			"count":84,
			"type":"SCALAR"
		},
		{
			"bufferView":11,
			"componentType":5126,
			"count":24,
			"max":[
				1,
				1,
				1
			],
			"min":[
				-1,
				-1,
				-1
			],
			"type":"VEC3"
		},
		{
			"bufferView":12,
			"componentType":5126,
			"count":24,
			"type":"VEC3"
		},
		{
			"bufferView":13,
			"componentType":5126,
			"count":24,
			"type":"VEC2"
		},
		{
			"bufferView":14,
			"componentType":5126,
			"count":24,
			"max":[
				1,
				1,
				1
			],
			"min":[
				-1,
				-1,
				-1
			],
			"type":"VEC3"
		},
		{
			"bufferView":15,
			"componentType":5126,
			"count":24,
			"type":"VEC3"
		},
		{
			"bufferView":16,
			"componentType":5126,
			"count":24,
			"type":"VEC2"
		}
	],
	"bufferViews":[
		{
			"buffer":0,
			"byteLength":288,
			"byteOffset":0,
			"target":34962
		},
		{
			"buffer":0,
			"byteLength":288,
			"byteOffset":288,
			"target":34962
		},
		{
			"buffer":0,
			"byteLength":192,
			"byteOffset":576,
			"target":34962
		},
		{
			"buffer":0,
			"byteLength":72,
			"byteOffset":768,
			"target":34963
		},
		{
			"buffer":0,
			"byteLength":288,
			"byteOffset":840,
			"target":34962
		},
		{
			"buffer":0,
			"byteLength":288,
			"byteOffset":1128,
			"target":34962
		},
		{
			"buffer":0,
			"byteLength":192,
			"byteOffset":1416,
			"target":34962
		},
		{
			"buffer":0,
			"byteLength":600,
			"byteOffset":1608,
			"target":34962
		},
		{
			"buffer":0,
			"byteLength":600,
			"byteOffset":2208,
			"target":34962
		},
		{
			"buffer":0,
			"byteLength":400,
			"byteOffset":2808,
			"target":34962
		},
		{
			"buffer":0,
			"byteLength":168,
			"byteOffset":3208,
			"target":34963
		},
		{
			"buffer":0,
			"byteLength":288,
			"byteOffset":3376,
			"target":34962
		},
		{
			"buffer":0,
			"byteLength":288,
			"byteOffset":3664,
			"target":34962
		},
		{
			"buffer":0,
			"byteLength":192,
			"byteOffset":3952,
			"target":34962
		},
		{
			"buffer":0,
			"byteLength":288,
			"byteOffset":4144,
			"target":34962
		},
		{
			"buffer":0,
			"byteLength":288,
			"byteOffset":4432,
			"target":34962
		},
		{
			"buffer":0,
			"byteLength":192,
			"byteOffset":4720,
			"target":34962
		}
	],
	"buffers":[
		{
			"byteLength":4912,
			"uri":"data:application/octet-stream;base64,"
		}
	]
}
