{
    "asset" : {
        "generator" : "Khronos glTF Blender I/O v3.4.50",
        "version" : "2.0"
    },
    "scene" : 0,
    "scenes" : [
        {
            "name" : "Scene",
            "nodes" : [
                0,
                1,
                2
            ]
        }
    ],
    "nodes" : [
        {
            "mesh" : 0,
            "name" : "Circle",
            "rotation" : [
                0,
                0,
                -0.7071068286895752,
                0.7071068286895752
            ],
            "translation" : [
                -0.20000000298023224,
                0,
                0
            ]
        },
        {
            "mesh" : 1,
            "name" : "Text",
            "rotation" : [
                0.5,
                0.5,
                -0.5,
                0.5
            ],
            "scale" : [
                2.3725671768188477,
                2.3725671768188477,
                2.3725671768188477
            ],
            "translation" : [
                0.17811602354049683,
                -0.5929439067840576,
                0.5300165414810181
            ]
        },
        {
            "mesh" : 2,
            "name" : "Text.001",
            "rotation" : [
                0.5,
                -0.5,
                0.5,
                0.5
            ],
            "scale" : [
                2.3725671768188477,
                2.3725671768188477,
                2.3725671768188477
            ],
            "translation" : [
                -0.1930277943611145,
                -0.5929439067840576,
                -0.5536532402038574
            ]
        }
    ],
    "materials" : [
        {
            "doubleSided" : true,
            "name" : "while",
            "pbrMetallicRoughness" : {
                "baseColorFactor" : [
                    0.800000011920929,
                    0.800000011920929,
                    0.800000011920929,
                    1
                ],
                "metallicFactor" : 0
            }
        },
        {
            "doubleSided" : true,
            "name" : "pantone",
            "pbrMetallicRoughness" : {
                "baseColorFactor" : [
                    0,
                    0.07035999745130539,
                    0.24228104948997498,
                    1
                ],
                "metallicFactor" : 0
            }
        },
        {
            "doubleSided" : true,
            "name" : "pantone.001",
            "pbrMetallicRoughness" : {
                "baseColorFactor" : [
                    0,
                    0.07035999745130539,
                    0.24228104948997498,
                    1
                ],
                "metallicFactor" : 0
            }
        }
    ],
    "meshes" : [
        {
            "name" : "Circle",
            "primitives" : [
                {
                    "attributes" : {
                        "POSITION" : 0,
                        "TEXCOORD_0" : 1,
                        "NORMAL" : 2
                    },
                    "indices" : 3,
                    "material" : 0
                },
                {
                    "attributes" : {
                        "POSITION" : 4,
                        "TEXCOORD_0" : 5,
                        "NORMAL" : 6
                    },
                    "indices" : 7,
                    "material" : 1
                }
            ]
        },
        {
            "name" : "Text",
            "primitives" : [
                {
                    "attributes" : {
                        "POSITION" : 8,
                        "TEXCOORD_0" : 9,
                        "NORMAL" : 10
                    },
                    "indices" : 11,
                    "material" : 1
                }
            ]
        },
        {
            "name" : "Text.001",
            "primitives" : [
                {
                    "attributes" : {
                        "POSITION" : 12,
                        "TEXCOORD_0" : 13,
                        "NORMAL" : 14
                    },
                    "indices" : 11,
                    "material" : 2
                }
            ]
        }
    ],
    "accessors" : [
        {
            "bufferView" : 0,
            "componentType" : 5126,
            "count" : 32,
            "max" : [
                1,
                0.3253766894340515,
                1
            ],
            "min" : [
                -1,
                0.07448890060186386,
                -1
            ],
            "type" : "VEC3"
        },
        {
            "bufferView" : 1,
            "componentType" : 5126,
            "count" : 32,
            "type" : "VEC2"
        },
        {
            "bufferView" : 2,
            "componentType" : 5126,
            "count" : 32,
            "type" : "VEC3"
        },
        {
            "bufferView" : 3,
            "componentType" : 5123,
            "count" : 84,
            "type" : "SCALAR"
        },
        {
            "bufferView" : 4,
            "componentType" : 5126,
            "count" : 96,
            "max" : [
                1.1609516143798828,
                0.4118501543998718,
                1.1752097606658936
            ],
            "min" : [
                -1.1609516143798828,
                0,
                -1.1752097606658936
            ],
            "type" : "VEC3"
        },
        {
            "bufferView" : 5,
            "componentType" : 5126,
            "count" : 96,
            "type" : "VEC2"
        },
        {
            "bufferView" : 6,
            "componentType" : 5126,
            "count" : 96,
            "type" : "VEC3"
        },
        {
            "bufferView" : 7,
            "componentType" : 5123,
            "count" : 480,
            "type" : "SCALAR"
        },
        {
            "bufferView" : 8,
            "componentType" : 5126,
            "count" : 359,
            "max" : [
                0.5023356080055237,
                0,
                0.009701760485768318
            ],
            "min" : [
                0.01976284570991993,
                0,
                -0.5084441304206848
            ],
            "type" : "VEC3"
        },
        {
            "bufferView" : 9,
            "componentType" : 5126,
            "count" : 359,
            "type" : "VEC2"
        },
        {
            "bufferView" : 10,
            "componentType" : 5126,
            "count" : 359,
            "type" : "VEC3"
        },
        {
            "bufferView" : 11,
            "componentType" : 5123,
            "count" : 807,
            "type" : "SCALAR"
        },
        {
            "bufferView" : 12,
            "componentType" : 5126,
            "count" : 359,
            "max" : [
                0.5023356080055237,
                0,
                0.009701760485768318
            ],
            "min" : [
                0.01976284570991993,
                0,
                -0.5084441304206848
            ],
            "type" : "VEC3"
        },
        {
            "bufferView" : 13,
            "componentType" : 5126,
            "count" : 359,
            "type" : "VEC2"
        },
        {
            "bufferView" : 14,
            "componentType" : 5126,
            "count" : 359,
            "type" : "VEC3"
        }
    ],
    "bufferViews" : [
        {
            "buffer" : 0,
            "byteLength" : 384,
            "byteOffset" : 0,
            "target" : 34962
        },
        {
            "buffer" : 0,
            "byteLength" : 256,
            "byteOffset" : 384,
            "target" : 34962
        },
        {
            "buffer" : 0,
            "byteLength" : 384,
            "byteOffset" : 640,
            "target" : 34962
        },
        {
            "buffer" : 0,
            "byteLength" : 168,
            "byteOffset" : 1024,
            "target" : 34963
        },
        {
            "buffer" : 0,
            "byteLength" : 1152,
            "byteOffset" : 1192,
            "target" : 34962
        },
        {
            "buffer" : 0,
            "byteLength" : 768,
            "byteOffset" : 2344,
            "target" : 34962
        },
        {
            "buffer" : 0,
            "byteLength" : 1152,
            "byteOffset" : 3112,
            "target" : 34962
        },
        {
            "buffer" : 0,
            "byteLength" : 960,
            "byteOffset" : 4264,
            "target" : 34963
        },
        {
            "buffer" : 0,
            "byteLength" : 4308,
            "byteOffset" : 5224,
            "target" : 34962
        },
        {
            "buffer" : 0,
            "byteLength" : 2872,
            "byteOffset" : 9532,
            "target" : 34962
        },
        {
            "buffer" : 0,
            "byteLength" : 4308,
            "byteOffset" : 12404,
            "target" : 34962
        },
        {
            "buffer" : 0,
            "byteLength" : 1614,
            "byteOffset" : 16712,
            "target" : 34963
        },
        {
            "buffer" : 0,
            "byteLength" : 4308,
            "byteOffset" : 18328,
            "target" : 34962
        },
        {
            "buffer" : 0,
            "byteLength" : 2872,
            "byteOffset" : 22636,
            "target" : 34962
        },
        {
            "buffer" : 0,
            "byteLength" : 4308,
            "byteOffset" : 25508,
            "target" : 34962
        }
    ],
    "buffers" : [
        {
            "byteLength" : 29816,
            "uri" : "data:application/octet-stream;base64,"
        }
    ]
}
